<svg xmlns="http://www.w3.org/2000/svg" viewBox="0 0 227.063 227.063">
  <defs>
    <style>
      .cls-1 {
        fill: #8cc342;
      }

      .cls-2, .cls-4 {
        fill: none;
      }

      .cls-2 {
        stroke: #16a79e;
        stroke-width: 3px;
      }

      .cls-3 {
        stroke: none;
      }
    </style>
  </defs>
  <g id="Group_49" data-name="Group 49" transform="translate(-1190 -2469)">
    <path id="Path_99" data-name="Path 99" class="cls-1" d="M8.3,28.936a1.825,1.825,0,0,1-1.7-1.7V23a1.825,1.825,0,0,1,1.7-1.7,1.825,1.825,0,0,1,1.7,1.7v4.242a1.554,1.554,0,0,1-1.7,1.7Zm0,0" transform="translate(1268.865 2598.61)"/>
    <g id="Group_48" data-name="Group 48">
      <g id="Ellipse_4" data-name="Ellipse 4" class="cls-2" transform="translate(1190 2469)">
        <circle class="cls-3" cx="113.531" cy="113.531" r="113.531"/>
        <circle class="cls-4" cx="113.531" cy="113.531" r="112.031"/>
      </g>
      <path id="Path_96" data-name="Path 96" class="cls-1" d="M82.619,53.238h-52.6a1.825,1.825,0,0,1-1.7-1.7V23.968a14.123,14.123,0,0,0-14-14A10.952,10.952,0,0,0,3.294,21a8.509,8.509,0,0,0,8.484,8.484,6.524,6.524,0,0,0,6.363-6.363,4.708,4.708,0,0,0-4.666-4.666,1.825,1.825,0,0,1-1.7-1.7,1.825,1.825,0,0,1,1.7-1.7,8.054,8.054,0,0,1,8.06,8.06,9.6,9.6,0,0,1-9.757,9.757A11.857,11.857,0,0,1-.1,21,14.882,14.882,0,0,1,14.747,7,17.018,17.018,0,0,1,31.715,23.968V49.844H80.923V23.968A17.018,17.018,0,0,1,97.891,7a14.575,14.575,0,0,1,14.423,14.423A11.857,11.857,0,0,1,100.436,33.3a9.6,9.6,0,0,1-9.757-9.757,8.054,8.054,0,0,1,8.06-8.06,1.825,1.825,0,0,1,1.7,1.7,1.825,1.825,0,0,1-1.7,1.7,4.708,4.708,0,0,0-4.666,4.666,6.524,6.524,0,0,0,6.363,6.363,8.509,8.509,0,0,0,8.484-8.484A10.952,10.952,0,0,0,97.891,10.394a14.123,14.123,0,0,0-14,14V51.965c.424.848-.424,1.273-1.273,1.273Zm0,0" transform="translate(1247.144 2552.249)"/>
      <path id="Path_97" data-name="Path 97" class="cls-1" d="M87.989,52.923H9.511A7.15,7.15,0,0,1,2.3,45.712V13.9A1.825,1.825,0,0,1,4,12.2a1.825,1.825,0,0,1,1.7,1.7V45.712c.424,2.121,1.7,3.818,3.818,3.818H87.989a3.8,3.8,0,0,0,3.818-3.818V13.9a1.7,1.7,0,1,1,3.394,0V45.712c-.424,3.818-3.394,7.211-7.211,7.211Zm0,0" transform="translate(1254.924 2569.107)"/>
      <path id="Path_98" data-name="Path 98" class="cls-1" d="M60.9,17.194H8.3a1.825,1.825,0,0,1-1.7-1.7,1.825,1.825,0,0,1,1.7-1.7H60.474a1.825,1.825,0,0,1,1.7,1.7c.424.848-.424,1.7-1.273,1.7Zm0,0" transform="translate(1268.865 2574.294)"/>
      <path id="Path_100" data-name="Path 100" class="cls-1" d="M20.7,28.936a1.825,1.825,0,0,1-1.7-1.7V23a1.825,1.825,0,0,1,1.7-1.7,1.825,1.825,0,0,1,1.7,1.7v4.242a1.825,1.825,0,0,1-1.7,1.7Zm0,0" transform="translate(1309.066 2598.61)"/>
      <path id="Path_101" data-name="Path 101" class="cls-1" d="M80.781,33.088a1.825,1.825,0,0,1-1.7-1.7V20.362A16.564,16.564,0,0,0,62.54,3.818H24.362A16.564,16.564,0,0,0,7.818,20.362V31.391a1.825,1.825,0,0,1-1.7,1.7A1.941,1.941,0,0,1,4,31.391V20.362A20.366,20.366,0,0,1,24.362,0H62.116A20.01,20.01,0,0,1,82.053,20.362V31.391c0,.848-.424,1.7-1.273,1.7Zm0,0" transform="translate(1260.436 2529.555)"/>
    </g>
  </g>
</svg>
