<svg xmlns="http://www.w3.org/2000/svg" viewBox="0 0 227.063 227.063">
  <defs>
    <style>
      .cls-1, .cls-4 {
        fill: none;
      }

      .cls-1 {
        stroke: #16a79e;
        stroke-width: 3px;
      }

      .cls-2 {
        fill: #8cc342;
      }

      .cls-3 {
        stroke: none;
      }
    </style>
  </defs>
  <g id="Group_45" data-name="Group 45" transform="translate(-160 -2469)">
    <g id="Ellipse_1" data-name="Ellipse 1" class="cls-1" transform="translate(160 2469)">
      <circle class="cls-3" cx="113.531" cy="113.531" r="113.531"/>
      <circle class="cls-4" cx="113.531" cy="113.531" r="112.031"/>
    </g>
    <path id="Path_104" data-name="Path 104" class="cls-2" d="M141.917,21.025h-3.5V8.76A8.758,8.758,0,0,0,129.653,0H101.62a8.7,8.7,0,0,0-6.986,3.526A8.814,8.814,0,0,0,87.6,0H59.57a8.814,8.814,0,0,0-7.03,3.526A8.7,8.7,0,0,0,45.554,0H17.521A8.758,8.758,0,0,0,8.76,8.76V21.025h-3.5A5.244,5.244,0,0,0,0,26.281V64.826a1.757,1.757,0,0,0,1.752,1.752H14.017v7.008a1.757,1.757,0,0,0,1.752,1.752h7.008a1.757,1.757,0,0,0,1.752-1.752V66.578h98.116v8.76a1.757,1.757,0,0,0,1.752,1.752H131.4a1.757,1.757,0,0,0,1.752-1.752v-8.76h12.264a1.757,1.757,0,0,0,1.752-1.752V26.281A5.258,5.258,0,0,0,141.917,21.025ZM101.62,3.5h28.033a5.244,5.244,0,0,1,5.256,5.256V21.025a5.244,5.244,0,0,0-5.256,5.256v8.76H96.364V18.375h0V8.651A5.249,5.249,0,0,1,101.62,3.5ZM87.6,3.5A5.244,5.244,0,0,1,92.859,8.76V35.041H54.314V8.76A5.244,5.244,0,0,1,59.57,3.5ZM54.314,38.545H92.859V49.058H54.314ZM12.264,8.76A5.244,5.244,0,0,1,17.521,3.5H45.554A5.264,5.264,0,0,1,50.81,8.651v7.621h0V35.041H17.521v-8.76a5.244,5.244,0,0,0-5.256-5.256Zm1.752,54.314H3.5V26.281a1.757,1.757,0,0,1,1.752-1.752h7.008a1.757,1.757,0,0,1,1.752,1.752v9.067c-.066.022-.11.044-.175.066-.088.044-.2.088-.285.131-.2.088-.372.2-.569.307-.088.044-.175.11-.263.153-.2.153-.394.307-.591.482-.044.044-.088.066-.11.11a5.9,5.9,0,0,0-.591.7c-.044.066-.088.153-.131.219l-.329.591c-.044.088-.088.2-.131.285a3.059,3.059,0,0,0-.2.635c-.022.088-.044.2-.066.285a4.782,4.782,0,0,0-.088.964v7.008a6.851,6.851,0,0,0,.088.964c.022.088.044.2.066.285a3.531,3.531,0,0,0,.2.635c.044.088.088.2.131.285a3.989,3.989,0,0,0,.329.591c.044.066.088.153.131.219a5.9,5.9,0,0,0,.591.7c.044.044.088.066.11.11a4.35,4.35,0,0,0,.591.482,1.633,1.633,0,0,0,.263.153,4.7,4.7,0,0,0,.569.307c.088.044.175.088.285.131.066.022.11.066.175.088Zm0-15.769V40.3a1.757,1.757,0,0,1,1.752-1.752H50.81V49.058H15.769A1.757,1.757,0,0,1,14.017,47.306Zm7.008,24.529h-3.5V66.578h3.5Zm108.628,1.752h-3.5V66.578h3.5Zm0-10.512H17.521V52.562H129.653ZM131.4,49.058H96.364V38.545H131.4a1.757,1.757,0,0,1,1.752,1.752v7.008A1.757,1.757,0,0,1,131.4,49.058Zm1.752,14.017V52.255c.066-.022.11-.044.175-.066.088-.044.2-.088.285-.131.2-.088.372-.2.569-.307.088-.044.175-.11.263-.153.2-.153.394-.307.591-.482.044-.044.088-.066.11-.11a5.9,5.9,0,0,0,.591-.7c.044-.066.088-.153.131-.219l.329-.591c.044-.088.088-.2.131-.285a3.06,3.06,0,0,0,.2-.635c.022-.088.044-.2.066-.285a4.782,4.782,0,0,0,.088-.964V40.319a6.85,6.85,0,0,0-.088-.964c-.022-.088-.044-.2-.066-.285a3.531,3.531,0,0,0-.2-.635c-.044-.11-.088-.2-.131-.285a3.989,3.989,0,0,0-.329-.591c-.044-.066-.088-.153-.131-.219a5.9,5.9,0,0,0-.591-.7c-.044-.044-.088-.066-.11-.11a4.35,4.35,0,0,0-.591-.482,1.633,1.633,0,0,0-.263-.153,4.7,4.7,0,0,0-.569-.307c-.088-.044-.2-.088-.285-.131-.066-.022-.11-.044-.175-.066V26.281a1.757,1.757,0,0,1,1.752-1.752h7.008a1.757,1.757,0,0,1,1.752,1.752V63.074Z" transform="translate(200.413 2550.455)"/>
  </g>
</svg>
