<svg xmlns="http://www.w3.org/2000/svg" viewBox="0 0 227.063 227.063">
  <defs>
    <style>
      .cls-1 {
        fill: none;
      }

      .cls-2 {
        fill: #8cc342;
      }

      .cls-3, .cls-4 {
        stroke: none;
      }

      .cls-4 {
        fill: #16a79e;
      }
    </style>
  </defs>
  <g id="Group_50" data-name="Group 50" transform="translate(-1533 -2469)">
    <g id="Path_107" data-name="Path 107" class="cls-1" transform="translate(1533 2469)">
      <path class="cls-3" d="M113.531,0A113.531,113.531,0,1,1,0,113.531,113.531,113.531,0,0,1,113.531,0Z"/>
      <path class="cls-4" d="M 113.53125 224.0625 C 121.0326232910156 224.0625 128.5283813476562 223.3069763183594 135.8103179931641 221.8168487548828 C 142.9056854248047 220.3649444580078 149.8848724365234 218.1984710693359 156.5540618896484 215.3776245117188 C 163.1028442382812 212.6077117919922 169.4194030761719 209.1791839599609 175.3282165527344 205.1872863769531 C 181.1816864013672 201.2327575683594 186.6861267089844 196.691162109375 191.6886291503906 191.6886291503906 C 196.691162109375 186.6861267089844 201.2327575683594 181.1816864013672 205.1872863769531 175.3282165527344 C 209.1791839599609 169.4194030761719 212.6077117919922 163.1028442382812 215.3776245117188 156.5540618896484 C 218.1984710693359 149.8848724365234 220.3649444580078 142.9056854248047 221.8168487548828 135.8103179931641 C 223.3069763183594 128.5283813476562 224.0625 121.0326232910156 224.0625 113.53125 C 224.0625 106.0298767089844 223.3069763183594 98.53412628173828 221.8168487548828 91.25218963623047 C 220.3649444580078 84.15681457519531 218.1984710693359 77.17762756347656 215.3776245117188 70.50843811035156 C 212.6077117919922 63.95965576171875 209.1791839599609 57.64309310913086 205.1872863769531 51.73427963256836 C 201.2327575683594 45.88081359863281 196.691162109375 40.37637329101562 191.6886291503906 35.37387466430664 C 186.6861267089844 30.3713436126709 181.1816864013672 25.82975006103516 175.3282165527344 21.87521934509277 C 169.4194030761719 17.8833122253418 163.1028442382812 14.4547815322876 156.5540618896484 11.68487453460693 C 149.8848724365234 8.864030838012695 142.9056854248047 6.697562694549561 135.8103179931641 5.24565601348877 C 128.5283813476562 3.755531311035156 121.0326232910156 3 113.53125 3 C 106.0298767089844 3 98.53412628173828 3.755531311035156 91.25218963623047 5.24565601348877 C 84.15681457519531 6.697562694549561 77.17762756347656 8.864030838012695 70.50843811035156 11.68487453460693 C 63.95965576171875 14.4547815322876 57.64309310913086 17.8833122253418 51.73427963256836 21.87521934509277 C 45.88081359863281 25.82975006103516 40.37637329101562 30.3713436126709 35.37387466430664 35.37387466430664 C 30.3713436126709 40.37637329101562 25.82975006103516 45.88081359863281 21.87521934509277 51.73427963256836 C 17.8833122253418 57.64309310913086 14.4547815322876 63.95965576171875 11.68487453460693 70.50843811035156 C 8.864030838012695 77.17762756347656 6.697562694549561 84.15681457519531 5.24565601348877 91.25218963623047 C 3.755531311035156 98.53412628173828 3 106.0298767089844 3 113.53125 C 3 121.0326232910156 3.755531311035156 128.5283813476562 5.24565601348877 135.8103179931641 C 6.697562694549561 142.9056854248047 8.864030838012695 149.8848724365234 11.68487453460693 156.5540618896484 C 14.4547815322876 163.1028442382812 17.8833122253418 169.4194030761719 21.87521934509277 175.3282165527344 C 25.82975006103516 181.1816864013672 30.3713436126709 186.6861267089844 35.37387466430664 191.6886291503906 C 40.37637329101562 196.691162109375 45.88081359863281 201.2327575683594 51.73427963256836 205.1872863769531 C 57.64309310913086 209.1791839599609 63.95965576171875 212.6077117919922 70.50843811035156 215.3776245117188 C 77.17762756347656 218.1984710693359 84.15681457519531 220.3649444580078 91.25218963623047 221.8168487548828 C 98.53412628173828 223.3069763183594 106.0298767089844 224.0625 113.53125 224.0625 M 113.53125 227.0625 C 50.82968902587891 227.0625 0 176.2328186035156 0 113.53125 C 0 50.82968902587891 50.82968902587891 0 113.53125 0 C 176.2328186035156 0 227.0625 50.82968902587891 227.0625 113.53125 C 227.0625 176.2328186035156 176.2328186035156 227.0625 113.53125 227.0625 Z"/>
    </g>
    <g id="Group_34" data-name="Group 34" transform="translate(1593.954 2520.946)">
      <path id="Path_102" data-name="Path 102" class="cls-2" d="M104.507,115.608H1.414A1.418,1.418,0,0,1,0,114.194V11.879a1.414,1.414,0,0,1,2.828,0v1.838a45.659,45.659,0,0,0,12.02-1.343c4.525-1.061,8.556-3.111,12.8-5.3s8.626-4.455,13.647-5.727a51.638,51.638,0,0,1,23.4,0c5.02,1.273,9.4,3.535,13.647,5.727s8.273,4.313,12.8,5.3a42.849,42.849,0,0,0,12.02,1.343V11.879a1.414,1.414,0,1,1,2.828,0V114.194a1.531,1.531,0,0,1-1.485,1.414Zm-5.02-2.828h3.606V24.96H2.828v87.82H6.434V91a1.418,1.418,0,0,1,1.414-1.414H98.073A1.418,1.418,0,0,1,99.487,91ZM9.263,112.5h87.4V92.416H9.263ZM2.828,22.132H103.093V16.546a45.292,45.292,0,0,1-12.657-1.485c-4.879-1.131-9.263-3.394-13.505-5.586-4.1-2.121-8.273-4.313-13.01-5.445A50.563,50.563,0,0,0,42,4.03,60.824,60.824,0,0,0,28.99,9.475c-4.243,2.192-8.626,4.455-13.505,5.586A45.292,45.292,0,0,1,2.828,16.546Zm57.2,81.739H45.89a1.414,1.414,0,1,1,0-2.828H60.031a1.414,1.414,0,0,1,0,2.828ZM98.073,84.779H7.849a1.418,1.418,0,0,1-1.414-1.414V60.456a1.418,1.418,0,0,1,1.414-1.414H98.073a1.418,1.418,0,0,1,1.414,1.414v22.91a1.418,1.418,0,0,1-1.414,1.414ZM9.263,81.951h87.4V61.87H9.263Zm50.769-7.778H45.89a1.414,1.414,0,1,1,0-2.828H60.031a1.414,1.414,0,0,1,0,2.828ZM98.073,55.365H56.284A1.418,1.418,0,0,1,54.87,53.95V31.041a1.418,1.418,0,0,1,1.414-1.414H98.073a1.418,1.418,0,0,1,1.414,1.414V53.95a1.418,1.418,0,0,1-1.414,1.414ZM57.7,52.536h38.96V32.455H57.7Zm-9.616,2.828H7.849A1.418,1.418,0,0,1,6.434,53.95V31.041a1.418,1.418,0,0,1,1.414-1.414H48.082A1.418,1.418,0,0,1,49.5,31.041V53.95a1.418,1.418,0,0,1-1.414,1.414ZM9.263,52.536h37.4V32.455H9.263ZM84.285,43.91H70.143a1.414,1.414,0,0,1,0-2.828H84.285a1.414,1.414,0,0,1,0,2.828Zm-49.213,0H20.93a1.414,1.414,0,1,1,0-2.828H35.071a1.414,1.414,0,0,1,0,2.828Zm28.5-23.758H38.96a1.414,1.414,0,0,1,0-2.828H63.638a1.267,1.267,0,0,0,1.273-1.273V15.98a1.267,1.267,0,0,0-1.273-1.273H41.577a4.1,4.1,0,0,1,0-8.2H66.254a1.414,1.414,0,1,1,0,2.828H41.577a1.273,1.273,0,1,0,0,2.546h21.99a4.1,4.1,0,0,1,4.1,4.1v.071a4.1,4.1,0,0,1-4.1,4.1Zm0,0" transform="translate(0 0.001)"/>
    </g>
  </g>
</svg>
