<?xml version="1.0" encoding="utf-8"?>
<!-- Generator: Adobe Illustrator 23.0.2, SVG Export Plug-In . SVG Version: 6.00 Build 0)  -->
<svg version="1.1" id="Layer_1" xmlns="http://www.w3.org/2000/svg" xmlns:xlink="http://www.w3.org/1999/xlink" x="0px" y="0px"
	 viewBox="0 0 484.8 157.2" style="enable-background:new 0 0 484.8 157.2;" xml:space="preserve">
<style type="text/css">
	.st0{fill:#8CC342;}
</style>
<g>
	<path class="st0" d="M17.8,63.1C8,63.1,0,71.3,0,81.5c0,7.9,4.8,14.7,11.6,17.3v51.3h4.8c-1.3,0.7-2.1,1.7-2.1,2.8
		c0,2.4,4,4.3,8.9,4.3s8.9-1.9,8.9-4.3c0-0.7-0.3-1.3-0.9-1.9v-0.8h4.3v-66c0.1-0.9,0.2-1.7,0.2-2.6C35.6,71.3,27.6,63.1,17.8,63.1z
		"/>
	<rect x="41.1" y="111.2" class="st0" width="70.3" height="37.6"/>
	<path class="st0" d="M40.5,87.5c-4.1,8.5,0.2,20.2,0.2,20.2H111c0,0,4.7-13.5,0.3-19.9C96.1,85.3,65.7,83,40.5,87.5z"/>
	<path class="st0" d="M134.5,63.1c-9.8,0-17.8,8.3-17.8,18.5c0,0.9,0.1,1.8,0.2,2.6v66h4.3v0.5c-0.8,0.7-1.3,1.4-1.3,2.2
		c0,2.4,4,4.3,8.9,4.3s8.9-1.9,8.9-4.3c0-1-0.7-1.9-1.8-2.6v-0.1h4.9V98.8c6.8-2.6,11.6-9.4,11.6-17.3
		C152.3,71.3,144.3,63.1,134.5,63.1z"/>
	<g>
		<path class="st0" d="M87.3,28.9C87.3,28.9,87.2,28.9,87.3,28.9C87.2,28.9,87.3,28.9,87.3,28.9C87.4,28.9,87.5,28.8,87.3,28.9
			c0.2,0,0.2,0.1,0.2-0.1l0.1,0.1c-0.2-0.1-0.2-0.2-0.2-0.3l0,0c-0.1,0-0.2,0.1-0.3,0.1l0.1,0.1C87.2,29,87.2,29,87.3,28.9z"/>
		<path class="st0" d="M87,29L87,29L87,29L87,29z"/>
		<path class="st0" d="M88.6,31C88.6,31.1,88.6,31.1,88.6,31L88.6,31L88.6,31z"/>
		<path class="st0" d="M88.6,30.9V31l0,0C88.6,31,88.6,31,88.6,30.9L88.6,30.9z"/>
		<path class="st0" d="M63.3,28.8C63.2,28.7,63.2,28.8,63.3,28.8L63.3,28.8C63.2,28.8,63.2,28.8,63.3,28.8z"/>
		<path class="st0" d="M85.2,27.9L85.2,27.9C85.2,28,85.2,28,85.2,27.9C85.3,28,85.2,27.9,85.2,27.9z"/>
		<path class="st0" d="M87.4,29.1L87.4,29.1C87.4,29.1,87.6,29.3,87.4,29.1L87.4,29.1z"/>
		<path class="st0" d="M87.3,29.2C87.4,29.2,87.4,29.2,87.3,29.2C87.3,29.1,87.3,29.1,87.3,29.2z"/>
		<path class="st0" d="M88.3,25.5C88.2,25.5,88.2,25.5,88.3,25.5C88.2,25.5,88.2,25.5,88.3,25.5L88.3,25.5z"/>
		<path class="st0" d="M63.2,29c0-0.1,0-0.1-0.1-0.2l0,0C63.1,28.9,63.2,28.9,63.2,29L63.2,29z"/>
		<path class="st0" d="M119.4,36.1C119.5,36.2,119.5,36.2,119.4,36.1L119.4,36.1C119.5,36.1,119.5,36.1,119.4,36.1z"/>
		<path class="st0" d="M86.3,32.5C86.3,32.5,86.3,32.6,86.3,32.5L86.3,32.5L86.3,32.5z"/>
		<path class="st0" d="M119.5,35.6c0-0.1,0-0.1,0-0.2C119.5,35.5,119.5,35.5,119.5,35.6z"/>
		<path class="st0" d="M82.8,69.2C82.8,69.2,82.8,69.1,82.8,69.2L82.8,69.2C82.7,69.2,82.7,69.2,82.8,69.2z"/>
		<path class="st0" d="M86.1,65.5C86.1,65.5,86.1,65.6,86.1,65.5C86.2,65.5,86.2,65.5,86.1,65.5L86.1,65.5z"/>
		<path class="st0" d="M133,16.6c-7.9-9.2-60.1-30.5-109.4-2.9c-4.6,23.1,0.2,45.4,0.2,45.4c17.3,7.8,15.9,18,17.3,24.5
			c33.3-5.4,70,0,70,0c1.4-21.1,17.3-23.4,17.3-23.4S137.7,22.1,133,16.6z M118.3,23.3l-0.4,0.2L118.3,23.3L118.3,23.3z M88.3,23
			c-0.1,0.1-0.2,0-0.3,0C88.1,22.8,88.3,22.8,88.3,23z M86.8,19.6c-0.1,0.2,0.4,0.2,0.1,0.3C86.9,19.8,86.6,19.7,86.8,19.6z
			 M62.8,34c0-0.1,0.3,0,0.2-0.2C63.2,34,62.8,34,62.8,34z M82.3,28.9c0.1-0.1,0.2-0.2,0.3-0.3c0.1-0.2-0.3,0.1-0.3,0.1
			C82.2,28.8,82.4,28.7,82.3,28.9c-0.2-0.1-0.1-0.3-0.3-0.1c0.1-0.1,0.2-0.2,0.3-0.3h-0.1c0.2-0.3,0.5-0.3,0.8-0.6h-0.1
			c0.2-0.2,0.3-0.1,0.3-0.3c-0.1,0-0.5,0.3-0.5,0.4c-0.1,0-0.5,0.4-0.6,0.3c0.1-0.1,0.1,0,0.2-0.1c0.1-0.2-0.2,0-0.1-0.1
			c0,0.1-0.3,0.3-0.3,0.3c0.1-0.1,0.2-0.1,0.2-0.2c-0.1,0.1-0.3,0.1-0.3,0.2c-0.3,0.2,0-0.1-0.2,0c0.2-0.2,0.5-0.3,0.5-0.5
			c-0.2,0.2-0.3,0.1-0.6,0.4c0-0.1,0.2-0.2,0.3-0.3c0.1-0.1-0.4,0.2-0.1-0.1l-0.2,0.2c0-0.1,0.1-0.1,0.2-0.2c0,0-0.4,0.1-0.1-0.1
			c0,0-0.1-0.1-0.3,0.1c-0.1,0.2,0.2-0.1,0,0.2c0.2-0.2-0.1,0-0.2,0l0.1-0.1c-0.1,0-0.1,0-0.2,0.1c0.1,0,0.1-0.1,0.2-0.1L81,27.9
			c-0.1,0,0.3-0.3,0.2-0.3l0.2-0.1c0,0,0.1-0.1,0-0.1c-0.2,0.1-0.4,0.3-0.5,0.4c-0.1,0,0.2-0.2,0-0.1l0.2-0.1c0.1,0,0.2-0.3,0.2-0.3
			c-0.1,0-0.3,0.2-0.4,0.3c0,0,0-0.1,0.2-0.2c-0.1,0-0.2,0.2-0.3,0.2c0.1-0.1,0.2-0.3,0.3-0.5l0.3-0.2l0,0c0.2-0.1,0.1-0.2,0.4-0.3
			c0-0.1-0.1,0-0.2,0c-0.3,0.4-0.5,0.3-0.8,0.6c-0.2,0,0.7-0.7,0.1-0.4c-0.1,0.1-0.2,0.2-0.2,0.2c-0.1,0-0.3,0.2-0.2,0.1
			c0.2-0.1,0.3-0.3,0.5-0.4c-0.1,0.1,0,0.1,0,0.1c0.1-0.1,0.3-0.3,0.3-0.3c-0.1,0-0.1-0.1-0.3,0.1c-0.2,0.2,0.1,0-0.1,0.2
			c-0.1,0,0.1-0.3-0.2,0c0.1,0-0.1,0.2-0.2,0.3h-0.1l0.1-0.1c0-0.2-0.2,0.2-0.3,0.1l0.2-0.2c0.2-0.2,0,0.2,0.3-0.1
			c0-0.1-0.2,0.1-0.2-0.1h0.1c0,0,0.4-0.4,0.1-0.3c-0.1,0-0.1,0.1-0.3,0.2c-0.1-0.1-0.3,0-0.3,0c0.3-0.2-0.1-0.1,0.2-0.3
			c-0.1,0.2,0,0.3,0.3,0.1c0.3-0.3,0,0.1,0.3-0.1c-0.1-0.1,0.2-0.3,0.4-0.5h-0.1C81,25.9,81,26,80.9,26.1c0-0.1-0.2-0.1-0.4,0
			c0.1-0.1,0.2-0.2,0.3-0.2c-0.1,0-0.2-0.2-0.2-0.3c-0.2,0.3-0.2,0-0.3,0.1c0.1-0.1,0.2-0.2,0.3-0.3c-0.2,0,0.2-0.1,0.1-0.2
			c-0.2,0-0.3,0.1-0.5,0c0.1-0.3-0.2-0.2-0.3-0.3c0.1-0.1,0.4-0.3,0.4-0.4c-0.1,0-0.2,0.3-0.2,0.1h0.1c-0.1,0,0-0.3-0.3,0l0.3-0.2
			h-0.1c0.1-0.1,0.2-0.2,0.2-0.2c0.1-0.2-0.1-0.1-0.2-0.1L80,24.3c-0.2,0-0.1-0.2-0.2-0.2L80,24h-0.1c0.1-0.1,0.2-0.2,0.1-0.2
			l0.4-0.2c-0.1,0.1-0.2,0.1-0.4,0.3c-0.1,0.1,0,0.2,0.2,0.1c0,0,0,0-0.1,0c0.2-0.2,0.2-0.2,0.4-0.3l0,0c0.1,0,0.1,0,0.2,0
			c-0.1,0-0.1,0.1-0.2,0.2c0.2-0.2,0.3-0.2,0.3-0.1c-0.2,0.2,0.2,0,0.3,0.1c-0.2,0.1-0.4,0.2-0.5,0.3c-0.1,0.1,0.1,0,0,0.2
			c0.2-0.1,0.4-0.3,0.5-0.3L80.6,24c0.1,0,0.3-0.2,0.4-0.1c0,0.2,0.1,0.3,0.2,0.4L81,24.5c0.4-0.2,0.3,0.1,0.5,0
			c0,0.2,0.4,0.1,0.2,0.4c0.3,0.1,0.6,0.2,0.7,0.4l-0.2,0.1c0.2-0.1-0.1,0.1,0,0.1c0.1-0.2,0.3-0.1,0.4-0.2
			c-0.1,0.2,0.2,0.2,0.4,0.2l-0.1,0.1c0.3-0.2,0.2,0.2,0.2,0.3c0,0.1-0.2,0.2-0.1,0.2c0.3-0.1,0.3-0.1,0.5-0.1
			c0.1,0.1,0.1,0.2,0.1,0.4c0.5-0.1,0.5,0.4,0.9,0.4L84.2,27c0.6-0.1,0.5,0.5,0.9,0.5l-0.3,0.2c0,0.1,0.2,0.1,0.4-0.1
			c0,0.1,0,0.1,0.1,0.1c0-0.2-0.1-0.5-0.1-0.6l0.3-0.1c-0.7,0-0.4-0.6-0.8-0.8c0.2-0.6-0.6-0.9-0.1-1.3c-0.5-0.8-1-1.4-1.2-2.2h0.5
			c-0.4,0,0.2-0.2,0.1-0.3c-0.3,0.3-0.5,0-0.8,0c0.2-0.5-0.4-0.8-0.8-1l0.3-0.2c-0.7,0-0.4-0.6-0.5-1.1c0.1-0.1,0.3-0.3,0.2-0.4
			c-0.6,0.1-0.6-0.1-1.1-0.2C81,19.4,81,19.3,81,19.1c0-0.2-0.1-0.3-0.1-0.5c-0.3-0.1-0.5-0.2-0.7-0.3c-0.2-0.1-0.3-0.3-0.5-0.4
			c-0.3-0.3-0.6-0.6-1.1-0.6l0.2-0.3c-0.3,0.1-0.5,0-0.7,0s-0.3-0.2-0.5-0.2c-0.1,0-0.2-0.1-0.2-0.1c-0.1,0-0.2-0.1-0.2-0.1
			c-0.2,0-0.3-0.1-0.5,0l0.2-0.6c-0.2-0.2-0.5,0.1-0.5,0.6c-0.1-0.1-0.2,0-0.3,0c-0.1,0-0.2,0-0.2-0.3c-0.2-0.1-0.2,0.3-0.4,0.4
			c-0.2-0.1-0.3-0.1-0.5-0.1c-0.1,0-0.1,0-0.2,0.1c0,0-0.1,0-0.1,0.1v0.1h-0.1c0,0,0.1,0,0.1-0.1c0-0.2-0.1-0.3-0.2-0.4
			c-0.1,0.2-0.6,0-0.2,0.7c-0.3-0.2-0.5,0-0.7,0.2c-0.2,0.1-0.4,0.3-0.7,0.2c0.1,0.2,0.1,0.3,0.1,0.4C72.9,18,72.8,18,72.7,18l0,0
			l0,0c0,0,0.2-0.1,0.1-0.1l0,0l0,0l0,0l0,0h-0.1c-0.1,0-0.1,0-0.2,0.1c-0.1,0-0.2,0.1-0.3,0.2l-0.1,0.1v0.1
			C72,18.3,72,18,71.8,18.1c0,0.1,0.2,0.2,0.2,0.4c0,0.1-0.1,0.1-0.1,0.2c0,0,0,0-0.1,0.1l-0.1,0.1c-0.1,0.1-0.3,0.1-0.4,0.2
			C71.2,18.9,71,19,70.9,19c-0.1,0.1-0.3,0.2-0.3,0.3c-0.1,0.3-0.2,0.5-0.3,0.7c-0.1,0.1-0.1,0.2-0.2,0.3c-0.1,0.1-0.1,0.2-0.2,0.3
			c-0.3,0.4-0.6,0.9-0.7,1.4l-0.1-0.1c0.2,0.3,0,0.4-0.2,0.5s-0.3,0.3,0,0.6c-0.2,0-0.2,0.3-0.4,0.1c0.1,0.2,0,0.4-0.2,0.5
			C68,24,67.9,24.2,68,24.4l0,0c0.1,0.1,0.1,0.1,0.1,0.1s0-0.1-0.1-0.1c-0.4,0.3-0.1,0.8-0.5,1.2c-0.1-0.1-0.1-0.1-0.2-0.2
			c-0.3,0.1,0.6,0.5-0.2,0.5c0,0.1,0.4,0.1,0.3,0.1c-0.5,0.9-0.2,2.1,0,3.2c-0.5,0.7-1.3,0-0.7,0.6c-0.1,0,0.3,0,0.1,0
			c0.2,0.2-0.9,0.3-0.5,0.5c0.5-0.1,0.3,0.1,0.5,0.1c-0.3,0.5-0.7,0.6-0.4,0.9h-0.2c0.7,0.4,0.3,1,1.2,1.3c0.1,1.2,0.4,2.3,0.7,3.5
			c0.2,0.6,0.3,1.1,0.5,1.6s0.3,1,0.5,1.5c0.1,0.3,0.2,0.6,0.2,0.9l0.1,0.4l0.1,0.2l0.1,0.2l0.3,0.8c0.1,0.3,0.2,0.5,0.3,0.8
			c0.2,0.5,0.4,1.1,0.6,1.6s0.4,1.1,0.6,1.7c-0.3,0.8-0.3,0.8,0.2,1.2c-0.1,0-0.1,0-0.2,0.1c0.5-0.2,0.2,0.4,0.7,0.2
			c0.2,0.4,0.4,0.8,0.6,1.1s0.5,0.7,0.7,1.1c-0.1-0.1-0.5,0.1-0.4,0.2h0.4l-0.1,0.1c0.1,0.1,0.4,0,0.5-0.2c0.4,0.4,0.7,0.9,1,1.3
			c0.1,0.2,0.3,0.5,0.4,0.7s0.3,0.5,0.4,0.7s0.3,0.5,0.4,0.8c0.1,0.2,0.3,0.5,0.4,0.7c0.3,0.5,0.6,0.9,1,1.3c0.2,0.6,0.9,1,1.3,1.3
			c0.7,1.7,1.4,3.2,3.1,4c0,0-1.1,0.9-1.8,0.6c-0.8,0.1-1.2-0.2-1.6-0.7c-0.4-0.4-0.7-0.9-1.4-1c-0.1-0.1,0.5-0.4,0.2-0.5
			c-0.7,0-1.2-0.5-1.6-1c-0.4-0.6-0.6-1.4-0.7-2.1l0.2-0.1c0-0.3-0.7-0.1-0.8-0.3c0.1-0.1,0.2,0,0.3-0.2C74.3,55.4,74.2,55,74,55
			c0.1-0.2,0.3-0.3,0.3-0.5l-0.4,0.2c-1.1,0.3-0.5-0.8-1.3-0.9c0.1,0,0.2,0,0.2-0.1c-1-0.3-1.6-1.3-2.3-2c0.2-0.1,0.4-0.2,0.5-0.3
			c-0.4,0.2-0.7,0-0.9-0.2c0.3-0.3-0.6-0.2-0.5-0.6h0.1c-0.5,0,0.1-0.4-0.5-0.3l0.2-0.3c-0.6,0.2,0.1-0.5-0.2-0.5l-0.1,0.1
			c-0.2-0.1,0-0.3-0.2-0.4H69c-0.3-0.3-0.1-0.6-0.6-0.4c0.3-0.3,0.3,0.2,0.8-0.2c-0.5-0.4-0.9-1-1.2-1.6c-0.3-0.6-0.6-1.2-0.8-1.8
			c0.1-0.2,0.2-0.3,0.3-0.4c-0.1-0.1-0.3-0.4-0.6-0.4l0.2-0.2c0.1-0.3-0.6,0-0.5-0.4c0.2,0,0.3,0,0.5-0.1c-0.5-0.1-0.5-0.4-0.7-0.6
			c0.1,0,0.2,0.1,0.3,0c-0.5-0.1-0.1-0.5-0.4-0.7h0.3c0.2-0.5-0.6,0.1-0.5-0.3c0.1,0.1,0.2,0,0.3,0c-0.6-0.1-0.6-0.7-0.9-1h0.1
			c-0.1-0.2-0.1-0.3-0.2-0.5s-0.1-0.4-0.3-0.5c0.1-0.2,0.7-0.1,0.5-0.5c-0.6,0.2-0.4-0.6-1-0.2c0-0.3,0.1-0.9-0.1-1.1
			c0.3,0.1,0.7-0.3,0.8,0l0.3-0.3c0.2,0,0,0.2,0.2,0.1c-0.1-0.1-0.4-0.5-0.3-0.6c-0.4-0.2-1.1-0.3-1.3-0.7c0.2,0.1,0.5-0.1,0.7-0.1
			c-0.1,0-0.3-0.1-0.5-0.2c-0.3-0.1-0.6-0.2-0.6-0.2c0-0.1,0.5-0.1,0.3-0.3c-0.2,0-0.3,0-0.4-0.1c0.1-0.1-0.2-0.5,0.4-0.7
			c0.2-0.1,0.1,0.2,0.3,0c0-0.2-0.2-0.2-0.3-0.5h0.1c0.1-0.2-0.3-0.5-0.6-0.2c0,0.1,0.3-0.1,0.2,0.1c-0.3-0.1-0.5-0.4-0.5-0.6
			c0.1,0.1,0.3,0.1,0.4,0.1c-0.5-0.3-0.6-0.6-0.8-1c-0.1,0-0.1,0,0,0l0,0c0.1,0,0.3,0.1,0.4,0.1c0.3-0.5-0.6-0.9-0.1-1.4
			c-0.1,0-0.3,0-0.3,0c0-0.2,0.4-0.2,0.3-0.4c0.2,0-0.1-0.2-0.2-0.3c-0.1-0.1,0-0.1,0.1,0c-0.2-0.3-0.5-1.1-0.1-1.5
			c-0.2,0-0.6-0.3-0.5-0.5l0.4,0.1c0.1,0,0.1-0.1,0.1-0.1V29c0-0.1,0-0.1,0.1-0.2l0,0c-0.1-0.2-0.2-0.3,0-0.5
			c-0.1,0.1,0.5,0.2,0.5,0c0-0.3-0.2-0.1-0.3-0.4l-0.1-0.2c-0.3,0,0-0.3-0.3-0.2c0.2-0.1-0.1-0.5,0.4-0.4l0.5,0.1
			c0-0.1-0.5-0.3-0.6-0.4c0,0,0.1,0,0.2,0c-0.7-0.1,0.1-0.3-0.4-0.6c0.3-0.3,0.2-0.8,0.6-0.8c-0.2-0.3-0.4-0.5-0.2-0.8
			c0.1,0.1,0.1,0.1,0.2,0.2c0.2-0.1,0.1-0.2,0-0.4c0.1,0.1,0.5-0.2,0.8-0.4c-0.1-0.3-0.5-0.3-0.8-0.4c0.7,0-0.3-0.8,0.4-0.9
			c0.1,0.1,0.2,0.4,0.5,0.3c0.7,0-0.4-0.6,0.1-0.8H64c0.4,0-0.1-0.6,0.4-0.4c-0.2-0.2,0.3-0.3-0.2-0.5c0.3-0.2,0.4-0.5,0.5-0.9
			c0.1-0.3,0.3-0.6,0.9-0.5c0-0.1,0.1-0.3-0.1-0.4c-0.3,0,0.1,0.3-0.1,0.2c0-0.1-0.1-0.2-0.2-0.2c0.2-0.1,0.3-0.2,0.6,0.2
			c0.5-0.2-0.7-0.8-0.2-1.2c0.2,0.1,0.3,0.2,0.3,0L65.7,18c0.3-0.2,0.6,0.1,0.9,0.3c0-0.2,0.2-0.4,0-0.6l0.5,0.1
			c-0.4-0.1-0.1-0.3-0.1-0.4v0.1c0.2,0.1,0.2-0.2,0.2-0.3c-0.2-0.1-0.4,0-0.5,0c-0.1-0.2,0-0.3-0.1-0.5c0.3,0.3,0.4-0.1,0.5-0.1
			c0.2-0.1-0.1-0.4-0.1-0.4c0.2,0.1,0.2-0.2,0.3,0.1c0,0.1-0.2,0-0.2,0.2c0.2,0,0.4,0.3,0.4-0.1c0-0.3-0.6-0.5-0.2-0.6
			c0,0.1,0.1,0.2,0.2,0.4l0.4-0.1l-0.2-0.3c0.1,0,0.1,0.1,0.1,0.1c-0.2-0.3,0.2-0.4,0-0.8c0.1-0.1,0.4,0,0.6-0.1l0,0
			c0.3,0,0.4-0.2,0.3-0.5v0.1c0.1,0,0.3-0.2,0.3-0.5c0.4,0,0.9,1,0.8,0.5c0.2-0.1-0.1-0.7-0.3-0.9c0.1,0,0.2-0.1,0.3-0.1l0.1-0.1
			l0.1-0.1l0,0l0,0l0,0l0,0l0,0l0,0l0,0l0.1-0.1c0.2-0.2,0.4-0.3,0.7-0.1c0-0.2-0.1-0.2,0-0.4c0.3-0.1,0.6-0.4,0.9-0.5
			c0.2-0.1,0.3-0.2,0.5-0.2s0.4,0,0.6,0.2c-0.1,0.2,0.1,0.3,0.2,0.5c0.1-0.4,0.3,0.3,0.2-0.3c-0.1-0.3-0.1-0.5-0.4-0.5
			c0.2-0.1,0.4-0.3,0.7-0.3c0.3,0,0.5,0,0.7,0.1c-0.1-0.1-0.1-0.2,0-0.4c0.1,0.5,0.4,0.5,0.6,0.3v-0.3l0.2,0.3
			c0.1-0.1,0.1-0.7,0.3-0.4c0,0.1,0,0.2,0.1,0.3c0.1-0.1,0.1-0.1,0.2-0.2c0.1-0.1,0.2-0.1,0.3-0.2c0.2-0.1,0.4-0.1,0.5,0
			c0,0,0.1,0.1,0.1,0.2c0,0.1,0.1,0.2,0.1,0.2c0.1,0,0.4-0.3,0.2-0.4c0.5,0.4,0.8,0.5,0.8,0.9c0.3-0.2,0.5-0.3,0.8-0.3
			c0.1,0,0.3,0,0.4,0s0.3,0,0.4,0.1c0.6,0.1,1.1,0.4,1.5,0.7l0.1,0.4c0.1,0.3,0.3-0.3,0.4,0c-0.2,0.1-0.1,0.5-0.4,0.6
			c0.1,0.4,0.6-0.1,0.9,0c0.2-0.2-0.3,0,0-0.2c0.1-0.1,0.2,0.5,0.6,0.2c0,0.2-0.3,0.4-0.5,0.5h0.3c-0.1,0.3-0.4,0.4-0.6,0.5
			c-0.3,0.1-0.6,0.2-0.7,0.6l0.2,0.1c-0.2,0.5-0.7,0.1-0.5,0.5c0.3-0.1,0.9-0.4,0.9-0.7c0.4,0.2,0.9-0.7,1.2-0.3
			c-0.1,0.3-0.3-0.2-0.5,0.1c-0.1,0.4,0.5,0.2,0.5,0.4c0-0.3,0.4-0.5,0.6-0.4c0,0.3-0.4,0.2-0.2,0.5c0.2-0.1,0.6,0,0.6-0.4
			c0.5-0.3,0.1,0.4,0.6,0.2c-0.3,0.4-1,0.4-0.9,0.8c0.3-0.3,0.7,0,1.1-0.5c0,0.2-0.3,0.4-0.5,0.5c-0.1,0.3,0.9,0,0.3,0.5l0.4-0.2
			c-0.1,0.1-0.1,0.3-0.2,0.5c0.1,0.1,0.8,0.2,0.3,0.5c0.1,0,0.3,0.4,0.6,0c0.1-0.4-0.4-0.1,0-0.5c-0.3,0.4,0.3,0.3,0.5,0.3l-0.2,0.2
			c0.1,0,0.2,0.2,0.4,0.1c-0.2,0-0.3,0.1-0.3,0.2l0.4-0.1c0.3,0.2-0.5,0.4-0.3,0.6L85.4,18c0.1,0-0.2,0.3,0,0.4
			c0.3-0.1,0.8-0.2,1-0.3c0.2,0.1-0.2,0.2,0,0.3H86c-0.1,0-0.4,0.4-0.3,0.6c0.2,0.1,0.7,0.1,0.8-0.2c0.1,0.1,0,0.4-0.3,0.4
			c0.2,0.2,0.3-0.2,0.6-0.1c-0.2,0.2-0.3,0.6-0.5,0.9h-0.6l0.1,0.2c-0.5,0-0.3,0.2-0.8,0.3c0,0.1,0.2,0.2,0.3,0.2
			c0.6-0.6,1.1-0.1,1.7-0.5c0.4,0.4-1.5,1-0.3,1c0.1-0.1,0.5-0.1,0.5-0.2c0,0-0.1,0-0.1-0.1c0.1,0,0.1,0.1,0.1,0.1
			c0.2,0.1,0.6-0.1,0.5,0.2c-0.4-0.1-0.6,0.5-1.1,0.3c0.2-0.1,0.1-0.3,0-0.3c-0.2,0.2-0.7,0.3-0.6,0.5c0.1,0.1,0.2,0.4,0.6,0.2
			c0.4-0.2-0.1-0.2,0.3-0.3c0.3,0.3-0.3,0.5,0.4,0.4c-0.1-0.2,0.2-0.4,0.5-0.5l0.3,0.2h-0.3c0,0.5,0.5-0.1,0.6,0.4L88,22.5
			c-0.5,0.1,0-0.6-0.7-0.3c0.1,0.3,0.4,0.2,0.3,0.5c-0.1,0-0.1-0.1-0.2-0.1c0,0.1-0.9,0.5-0.2,0.7c0.3,0.1,0.3,0,0.5-0.1
			c0.2,0.4,0.5,0.4,0.6,0.6c-0.5,0.1,0.1,0.5-0.5,0.4c0.3-0.2,0-0.8-0.5-0.8c-0.6,0.3,0-0.3-0.7-0.2c0.1,0.3-0.5,0.5-0.9,0.7
			c0,0.1,0.2,0.1,0.3,0.1c0.4-0.1,0.3-0.2,0.7-0.3c0,0.4,0.3,0.6,0.8,0.7c-0.2,0.2-0.5,0.3-0.6,0.1c0.2,0.4,0.3,0.8,0.3,1.3
			c0.5-0.4,0.3,0.2,0.6,0.2c-0.2,0.1-0.4,0.2-0.6,0.2c0.3,0.2-0.3,0.1-0.3,0.3c0.3,0.2,0.6,0.5,0.8,0.7c0.1-0.3,0.2-0.7,0.3-1l0,0
			h-0.1c-0.1,0,0.1-0.1,0.1-0.1s0,0,0.1,0c0.1-0.1,0.1-0.2,0.1-0.2c-0.1,0-0.2,0-0.3,0.1l0,0c0.1-0.2,0.3-0.4,0.5-0.5
			c0.2-0.4,0.4-0.8,0.7-1.2c0.4,0,0.4,0,0.4-0.2c0.1,0,0.1,0.1,0.1,0.1c-0.3-0.1,0-0.1-0.2-0.3c0.2-0.2,0.2-0.5,0.4-0.8
			c0,0.1,0.2,0.2,0.2,0.1L89.8,23h0.1c0-0.1-0.1-0.2-0.2-0.2c0.1-0.8,1-1.1,1.3-1.8c0.2-0.1,0.2-0.4,0.2-0.6
			c0.6-0.3,1.2-0.6,1.2-1.2c0,0,0.7,0.4,0.7,0.7c0.5,0.6-0.3,0.6-0.1,1.1c0,0-0.3-0.2-0.3-0.1c0.3,0.5-0.2,0.8-0.7,1l-0.1-0.1
			c-0.1,0,0.2,0.3,0.1,0.3S91.9,22,91.8,22c0.2,0.1,0,0.2,0.2,0.3c-0.1,0-0.2-0.1-0.4-0.1l0.2,0.2c0.5,0.4-0.2,0.2,0,0.5l-0.1-0.1
			c0.2,0.4,0,0.7,0,1c-0.1-0.1-0.2-0.1-0.3-0.2c0.2,0.1,0.2,0.3,0.3,0.3c-0.3-0.1,0.2,0.2,0,0.3l0,0c0.2,0.2-0.2,0,0.1,0.2l-0.2-0.1
			c0.3,0.2-0.2,0-0.1,0.1h0.1c0.1,0.1-0.1,0-0.1,0.1l0,0c0,0.2-0.2,0.1,0.1,0.2c-0.2-0.1,0-0.2-0.4-0.3c0.1,0.5-0.1,0.8-0.3,1.2
			c-0.1,0-0.2,0-0.3-0.1c0,0.1,0,0.2,0.1,0.3c0,0-0.1,0-0.2,0s0.3,0.2,0.1,0.2c-0.1-0.1-0.1-0.1-0.2-0.2c0.2,0.2,0.1,0.2,0.1,0.3
			L90.4,26c0.2,0.2-0.1,0.1,0,0.3l-0.1-0.1c-0.2,0,0.3,0.2,0.1,0.2c0,0-0.1-0.1-0.2-0.1c0.2,0.2,0.1,0.3,0.1,0.5h-0.1
			c0,0.1-0.2,0.2-0.1,0.3c-0.1,0-0.4-0.2-0.4-0.1c0.3,0.2,0,0.2,0.4,0.4c-0.1,0.1-0.3,0.1-0.2,0.2c-0.1-0.1-0.4-0.2-0.4-0.2h-0.2
			c-0.1-0.1,0.1,0-0.1-0.1c0,0,0.1,0.2,0,0.2c0.2,0.2,0.5,0.4,0.5,0.5c-0.1-0.1-0.3-0.1-0.4-0.2l0.5,0.4c0,0-0.3-0.1-0.2,0
			c0.1,0,0.1,0.1,0.2,0.1c0,0,0,0.2-0.3,0c-0.1,0,0-0.1-0.2-0.1c0,0.1,0.1,0.1,0,0.2l0,0c-0.1,0,0.1,0.2,0.3,0.2l0,0
			c0,0-0.2-0.1-0.1-0.1c0,0,0.1,0,0.1,0.1c0.1,0.1,0.1,0.2,0.1,0.2c0-0.1-0.1-0.1-0.2-0.1c0.2,0.2,0.2,0.3,0.3,0.5c0,0,0.1,0,0,0
			l0,0c-0.1,0-0.2-0.1-0.2-0.1c-0.2,0,0.1,0.4-0.2,0.4c0,0,0.2,0.1,0.1,0.1C89.2,30,89,29.9,89,30c-0.1-0.1,0,0.1,0,0.2s0,0,0,0
			c0,0.2,0,0.6-0.2,0.6c0.1,0.1,0.2,0.4,0.1,0.4L88.8,31h-0.1l0,0c0,0,0,0-0.1,0l0,0c0,0.1,0,0.3-0.1,0.2l-0.2-0.3
			c0,0.2,0,0.1,0,0.3v0.1c0.1,0.2-0.1,0.1,0.1,0.3c-0.1-0.1,0,0.3-0.2-0.1l-0.1-0.3c0,0.1,0.1,0.4,0.2,0.6l-0.1-0.1
			c0.2,0.5-0.1,0.1,0,0.5c-0.1-0.1-0.2,0.3-0.3,0c0,0.3,0,0.6-0.1,0.5c0-0.1,0-0.1,0-0.3c-0.1-0.1,0,0.1-0.1,0.2
			c0-0.1-0.2-0.2-0.2-0.4c0,0.3,0.1,0.6,0.1,0.8c-0.1-0.3-0.1-0.1-0.1,0.1c0,0.2,0,0.4-0.1,0.1c0-0.1,0-0.5-0.1-0.6
			c-0.1-0.3-0.1-0.1-0.1,0.1c0,0.2,0,0.5,0,0.4l0.1,0.6c0-0.1-0.1,0-0.1,0.1c0,0,0,0-0.1-0.3c0,0.2-0.1-0.3-0.1,0.3
			c-0.1-0.3-0.2-0.4-0.3-0.5c-0.1-0.1-0.2-0.3-0.2-0.8c0,0.1-0.1-0.1-0.1,0.2s0.1-0.1,0.1,0.1c0,0,0,0.1,0,0.2
			c-0.1-0.2-0.1-0.3,0-0.6c-0.1-0.4-0.1,0.7-0.3,0.3c0,0,0,0,0-0.1c-0.1,0-0.1,0-0.1,0l0,0c0,0,0,0,0-0.1l0,0c0-0.1,0-0.3,0-0.4
			c0,0,0,0-0.1,0c0,0,0,0,0.1,0c0-0.1,0-0.2,0-0.2S86,31.8,85.9,32v-0.4c0,0.3-0.1,0.1-0.1,0.2l0,0c0-0.1-0.1-0.1-0.1-0.1
			c0,0.2,0,0.3,0,0.4c-0.1,0.1-0.1,0-0.2,0.1c0.1-0.3,0-0.3-0.1-0.4c0-0.1-0.1,0.2-0.1,0.2c0-0.1-0.1-0.1,0-0.3c0,0,0,0.2,0.1,0.1
			c0-0.1,0.1-0.4,0-0.3s-0.2,0.5-0.2,0.3c0,0,0.1-0.1,0.1-0.2v-0.2l-0.1,0.2c0-0.1,0-0.1,0-0.1c-0.1,0.2-0.1-0.1-0.3,0.2
			c-0.1,0,0-0.2-0.1-0.3l0,0c0-0.2-0.1-0.2-0.2-0.1l0,0c0,0-0.1-0.1-0.2,0c0-0.2,0.4-0.7,0.2-0.6c-0.1-0.1-0.3,0.2-0.4,0.3
			c0-0.1-0.1-0.2-0.2-0.2c-0.1-0.1-0.2-0.1-0.1-0.3c-0.1,0-0.1,0.1-0.2,0.1c-0.1-0.2-0.4-0.1-0.2-0.5c0.1,0,0.2-0.1,0.2-0.2
			c-0.2,0.1,0.1-0.2-0.1,0c-0.1,0.1-0.2,0.2-0.2,0.3c-0.1,0-0.3-0.1-0.2-0.3c0,0.1-0.1,0.1-0.2,0.1c0.2-0.2,0.2-0.3,0.1-0.3L83,29.8
			l0.1-0.2c-0.1,0-0.3,0.2-0.2,0.1c0.1-0.1,0.1-0.1,0.1-0.1c-0.2,0.1-0.4,0.2-0.3,0l0.2-0.2c0,0-0.2,0.1-0.2,0.2
			c0-0.2,0-0.3,0.2-0.4C82.6,29.3,82.4,29.1,82.3,28.9h0.2C82.5,28.7,82.2,29,82.3,28.9z M81,27.5c0,0.1-0.1,0.1-0.1,0.1L81,27.5
			L81,27.5z M80.6,27.3C80.6,27.3,80.7,27.3,80.6,27.3C80.7,27.3,80.4,27.4,80.6,27.3z M79.8,25.7C79.8,25.7,79.7,25.8,79.8,25.7
			L79.8,25.7c0.1,0,0.1-0.1,0.2-0.1l0,0c0,0.1-0.2,0.3-0.3,0.4C79.7,26,79.8,25.9,79.8,25.7C79.7,25.9,79.8,25.8,79.8,25.7z
			 M79.8,25.6c0,0,0.1,0,0.1-0.1C80,25.5,79.9,25.6,79.8,25.6C79.9,25.6,79.8,25.6,79.8,25.6z M80.2,25.9C80.1,26,79.9,26,79.9,26
			L80.2,25.9z M79.9,26.7c0.1,0,0.1-0.1,0.1-0.1C80,26.7,79.9,26.7,79.9,26.7z M80.3,26.4c0,0,0,0.1-0.1,0.1
			C80.2,26.5,80.1,26.5,80.3,26.4z M80,23.2c-0.1,0.1-0.1,0.2-0.3,0.3C79.8,23.4,79.9,23.2,80,23.2z M79.8,23.1
			C79.9,23,80,23,79.8,23.1C79.8,23.1,79.8,23.3,79.8,23.1z M64.1,22.3l0.2,0.1l-0.2,0.1V22.3z M86.2,18.5L86,18.7
			c0,0,0-0.1-0.1-0.1C85.9,18.4,86.1,18.4,86.2,18.5z M87.5,23.1c0-0.1,0-0.2,0.1-0.3C87.6,22.9,87.8,23,87.5,23.1z M88.1,25.1
			l-0.6-0.4C87.7,24.6,88,24.9,88.1,25.1z M89.8,27.5L89.8,27.5l-0.3-0.1L89.8,27.5z M89.8,29.4c0,0-0.1-0.1-0.2,0
			C89.6,29.3,89.7,29.4,89.8,29.4z M87.4,33.6v0.2V33.6L87.4,33.6z M120.6,31.3C120.6,31.2,120.6,31.2,120.6,31.3
			c-0.1-0.1-0.3-0.2-0.3-0.2c-0.2,0.3-0.1,0.6,0,0.8c0.1,0.3,0.1,0.6-0.1,0.7c0.1,0,0.3,0.1,0.3,0c-0.1,0.3-0.5,0.2-0.4,0.4
			c-0.2,0,0,0.2,0.1,0.4c0.1,0.1,0,0.1-0.1,0c0.1,0.2,0.1,0.5,0.1,0.8c0,0.4-0.1,0.8-0.4,1c0.2,0,0.5,0.5,0.4,0.6l-0.3-0.1
			c-0.1,0-0.1,0.1-0.1,0.1v0.1c0,0.1,0,0.1-0.1,0.2l0,0c0.1,0.2,0.1,0.4-0.2,0.5c0.1-0.1-0.4-0.4-0.5-0.1c-0.1,0.4,0.1,0.2,0.1,0.5
			l0.1,0.2c0.3,0.1-0.1,0.3,0.2,0.3c-0.2,0,0,0.6-0.5,0.4l-0.4-0.2c0,0.2,0.4,0.4,0.5,0.6h-0.2c0.7,0.3-0.2,0.4,0.2,0.7
			c-0.4,0.2-0.4,0.8-0.8,0.8c0.1,0.3,0.2,0.7,0,0.9c0-0.1,0-0.2-0.1-0.2c-0.3,0.1-0.1,0.2-0.1,0.4c-0.1-0.1-0.5,0.2-0.9,0.3
			c0.1,0.3,0.5,0.4,0.7,0.6c-0.4,0-0.3,0.2-0.3,0.4s0,0.5-0.3,0.5c0-0.1-0.1-0.5-0.4-0.4c-0.7-0.1,0.2,0.7-0.3,0.9l0.6,0.2
			c-0.4,0,0,0.7-0.5,0.4c0.1,0.2-0.4,0.3,0.1,0.6c-0.8,0.3-0.6,1.5-1.7,1.3c0,0.1-0.2,0.3,0.1,0.4c0.4,0-0.1-0.3,0.1-0.2
			c0,0.1,0.1,0.2,0.1,0.2c-0.2,0.1-0.3,0.2-0.6-0.2c-0.5,0.2,0.6,0.9,0,1.3c-0.2-0.2-0.3-0.2-0.3,0l0.2,0.5
			c-0.3,0.3-0.6-0.1-0.9-0.4c-0.1,0.2-0.2,0.4,0,0.6l-0.5-0.1c0.4,0.1,0.1,0.3,0.1,0.4v-0.1c-0.2-0.1-0.2,0.2-0.2,0.3
			c0.2,0.1,0.4,0,0.6-0.1c0.1,0.2,0,0.3,0,0.5c-0.3-0.3-0.4,0.1-0.5,0.2c-0.2,0.1,0.2,0.4,0.1,0.4c-0.2-0.1-0.2,0.2-0.3-0.1
			c0-0.1,0.2,0,0.2-0.2c-0.2,0-0.5-0.2-0.4,0.1c0,0.3,0.6,0.4,0.2,0.6c0-0.1-0.1-0.2-0.2-0.4l-0.4,0.1l0.3,0.2
			c-0.1,0-0.1-0.1-0.2-0.1c0.2,0.3-0.2,0.5,0.1,0.8c-0.1,0.2-0.4,0.1-0.5,0.2l0,0c-0.3,0-0.3,0.3-0.3,0.6l-0.1-0.1
			c-0.1,0.1-0.2,0.3-0.1,0.5c-0.4,0-1.1-0.8-0.9-0.3c-0.2,0.2,0.2,0.8,0.5,0.8c-0.5,0.2-0.4,1-1.2,1c0.1,0.2,0.2,0.2,0.1,0.3
			c-0.3,0.2-0.5,0.6-0.7,0.9c-0.2,0.3-0.5,0.5-1,0.5c0-0.3-0.2-0.3-0.4-0.4c0.1,0.3-0.4-0.1,0,0.3c0.2,0.2,0.3,0.3,0.6,0.3
			c-0.2,0.4-0.7,0.9-1,0.8c0.2,0,0.2,0.2,0.2,0.3c-0.3-0.4-0.6-0.2-0.7,0l0.2,0.2l-0.3-0.1c0,0.1,0.4,0.5,0,0.5
			c-0.1-0.1-0.2-0.2-0.3-0.2c0,0.2,0,0.4,0,0.6c0,0.1,0,0.2-0.1,0.2l0,0l0,0l0,0l0,0l0,0l0,0l0,0h-0.1l-0.5-0.2
			c-0.1,0.1,0,0.4,0.2,0.4c-0.5,0.1-0.8,0.3-1.2,0.1c0,0.6-0.2,1.1-0.5,1.5c-0.2,0.2-0.4,0.4-0.5,0.6c-0.2,0.2-0.4,0.3-0.6,0.4
			l-0.1-0.2c-0.3,0,0.1,0.4-0.1,0.4c-0.1-0.2-0.4-0.3-0.4-0.6c-0.4,0-0.1,0.6-0.3,0.8c0.1,0.3,0-0.3,0.2,0.1c0,0.1-0.5,0.1-0.3,0.5
			c-0.2-0.1-0.3-0.4-0.4-0.6l-0.1,0.3c-0.5-0.3-0.1-1.1-0.7-1.5l-0.1,0.2c-0.4-0.3,0.1-0.7-0.4-0.6c0,0.3,0.2,1,0.5,1
			c-0.3,0.4,0.5,1,0,1.3c-0.3-0.2,0.3-0.3,0-0.5c-0.4-0.2-0.3,0.4-0.5,0.4c0.3,0,0.4,0.5,0.3,0.7c-0.3,0-0.1-0.5-0.4-0.3
			c0.1,0.3-0.1,0.6,0.3,0.6c0.2,0.6-0.4,0.1-0.3,0.6c-0.3-0.3-0.2-1-0.7-1c0.3,0.3-0.1,0.7,0.4,1.1c-0.2,0-0.4-0.3-0.4-0.6
			c-0.3-0.1-0.1,0.9-0.5,0.3l0.2,0.4c-0.1-0.1-0.3-0.1-0.5-0.3c-0.2,0.1-0.2,0.8-0.5,0.2c0,0.1-0.4,0.3,0,0.6c0.4,0.1,0.1-0.4,0.5,0
			c-0.4-0.3-0.3,0.2-0.4,0.5L98,63.8c0,0.1-0.2,0.2-0.2,0.5c0-0.2-0.1-0.3-0.2-0.3l0.1,0.4c-0.2,0.3-0.4-0.5-0.7-0.3l0.1-0.4
			c0,0.1-0.3-0.2-0.4,0c0.1,0.3,0.2,0.8,0.3,1c-0.1,0.2-0.2-0.2-0.3,0v-0.4c0-0.1-0.4-0.4-0.7-0.3c-0.1,0.2-0.1,0.8,0.2,0.8
			c-0.1,0.1-0.4,0-0.4-0.3c-0.2,0.3,0.2,0.3,0.1,0.6c-0.2-0.2-0.7-0.3-1-0.5V64l-0.2,0.1c0-0.5-0.3-0.3-0.4-0.7
			c-0.1,0-0.2,0.2-0.2,0.4c0.7,0.5,0.1,1.1,0.6,1.7c-0.4,0.4-1.1-1.4-1-0.2c0.1,0.1,0.2,0.5,0.3,0.5c-0.1,0.2,0.2,0.6-0.2,0.5
			c0.1-0.4-0.6-0.5-0.4-1.1c0.1,0.2,0.3,0.1,0.3,0c-0.2-0.2-0.3-0.6-0.6-0.5c-0.1,0.1-0.4,0.3-0.2,0.6c0.2,0.4,0.2-0.2,0.3,0.2
			c-0.3,0.3-0.6-0.2-0.4,0.5c0.2-0.2,0.4,0.2,0.6,0.4l-0.2,0.3l-0.1-0.3c-0.5,0,0.1,0.5-0.3,0.6l-0.4-0.4c-0.1-0.5,0.7-0.1,0.2-0.7
			c-0.3,0.1-0.2,0.5-0.5,0.4c0-0.1,0.1-0.1,0.1-0.2c-0.1,0-0.6-0.8-0.7-0.1c-0.1,0.3,0.1,0.3,0.2,0.5c-0.4,0.3-0.4,0.6-0.6,0.8
			c-0.2-0.5-0.5,0.2-0.5-0.5c0.3,0.2,0.8-0.1,0.8-0.7c-0.4-0.5,0.4-0.1,0.1-0.7c-0.3,0.2-0.6-0.4-0.9-0.8c-0.1,0-0.1,0.2-0.1,0.3
			c0.1,0.4,0.3,0.3,0.4,0.7c-0.4,0.1-0.7,0.5-0.7,0.9C90,66.4,89.8,66,90,65.9c-0.4,0.3-0.9,0.5-1.3,0.6c0.5,0.4-0.1,0.4-0.1,0.6
			c-0.1-0.2-0.3-0.4-0.3-0.6c-0.1,0.4-0.2-0.3-0.4-0.2c-0.2,0.4-0.4,0.8-0.6,1c-0.6-0.2-1,0.5-1.3,0.7c-0.3-0.1-0.5-0.7-0.7-0.7l0,0
			l0,0c-0.1,0.1,0.5,0.4,0,0.4v-0.1c0,0.1-0.1,0.1-0.3,0.1c0,0.2,0,0.4,0,0.6c-0.1,0-0.2,0-0.3,0c-0.2-0.1-0.3-0.1-0.2,0
			c0.1,0,0.1,0.1,0.2,0.1s0.1,0.1,0.2,0.1c0.2,0.1,0.4,0.2,0.6,0.5c-0.1,0.4,0,0.4,0.2,0.3c0,0.1,0,0.1-0.1,0.1
			c0.1-0.3,0.1,0,0.2-0.2c0.2,0.1,0.4,0.1,0.6,0.2c0,0-0.2,0.2-0.1,0.2l0.1-0.2v0.1c0,0,0.1-0.2,0.1-0.3c0.6,0,0.8,0.8,1.3,0.9
			c0.1,0.2,0.3,0.1,0.4,0.1c0.2,0.5,0.4,1,0.9,0.9c0,0-0.3,0.7-0.6,0.8C88,72.5,88,71.7,87.6,72c0,0,0.2-0.4,0.1-0.3
			c-0.4,0.4-0.6,0-0.7-0.5l0.1-0.1c0-0.1-0.2,0.2-0.3,0.1c0-0.1,0.1-0.1,0.1-0.2c-0.1,0.2-0.1,0.1-0.2,0.2c0-0.1,0.1-0.2,0.1-0.3
			l-0.1,0.2c-0.3,0.5-0.2-0.1-0.4,0.1l0.1-0.1c-0.3,0.3-0.5,0.1-0.8,0.1c0-0.1,0.1-0.2,0.2-0.3c-0.1,0.2-0.2,0.3-0.3,0.3
			c0.1-0.3-0.2,0.2-0.2,0v-0.1c-0.2,0.2,0-0.2-0.2,0.1l0.1-0.2c-0.2,0.3,0-0.2-0.1-0.1V71c-0.1,0.1,0-0.1-0.1-0.1l0,0
			c-0.1,0.1-0.1-0.2-0.2,0.1c0.1-0.2,0.1-0.1,0.2-0.4c-0.4,0.2-0.6,0-0.9-0.2c0-0.1,0-0.2,0.1-0.3l0,0l-0.1,0.1
			c-0.1,0.1-0.1,0.1-0.2,0.2h-0.1l0,0c0.1,0.1-0.1-0.1-0.3-0.5l0,0l0,0l0,0c-0.1,0.1-0.2,0-0.3,0v-0.1c-0.1,0-0.1-0.1-0.3-0.1
			c0-0.1,0.2-0.3,0.1-0.3c-0.2,0.3-0.2,0-0.4,0.4c0-0.1,0-0.3-0.2-0.2c0.1-0.1,0.3-0.3,0.3-0.3s0,0,0.1-0.1l0,0c0,0,0-0.1-0.1-0.1
			l0,0l0,0l0,0l0,0l0,0l0,0c-0.1,0-0.1,0.1-0.2,0c-0.1,0-0.3-0.1-0.2-0.4c0,0.1,0.1,0.1,0.2,0.2c0.1,0,0.1,0.1,0.1,0.1s0,0,0-0.1
			c0,0,0-0.1-0.1-0.1l0,0l0,0l0,0l0,0l0,0l0,0l0,0c0-0.1-0.1-0.1-0.1-0.1l0,0l-0.1-0.1l0,0c0,0,0,0-0.1-0.1l0,0
			c-0.1,0-0.1,0-0.1,0.1l0.1-0.6l0,0l0,0v-0.4c0.1,0,0.1,0.1,0.1,0.1c0.1,0,0.2,0.1,0.1,0c0.1,0.1,0-0.1,0-0.1c-0.1,0,0,0,0,0
			c-0.1-0.1-0.2-0.3,0-0.3l0,0c-0.1,0-0.3-0.2-0.3-0.2l0.2,0.1h0.1l0,0l0,0l0,0l0,0l0,0l0,0l0,0l0,0c0-0.1-0.1-0.1,0-0.1l0,0
			c0,0,0-0.1,0.1-0.1l0,0c-0.2-0.1,0.1,0-0.2-0.1c0.2,0.1-0.1-0.1,0.3,0l0.2,0.1c0,0-0.2-0.2-0.3-0.2h0.1c-0.4-0.2,0.1-0.1-0.2-0.2
			c0.2,0,0.1-0.1,0.3-0.1c-0.1-0.1-0.2-0.2-0.1-0.2c0,0,0,0,0.1,0.1c0.1,0,0,0,0-0.1c0.1,0,0.3,0,0.4,0c-0.1-0.1-0.3-0.2-0.4-0.2
			c0.4,0.1-0.2-0.2,0.2-0.1c0,0,0.2,0.1,0.3,0.1c0.4,0.1-0.2-0.2,0-0.2l-0.3-0.1c0.2,0.1-0.1-0.2,0.2,0c-0.1-0.1,0.1,0-0.2-0.2
			c0.3,0-0.1-0.3,0.5-0.2c0,0,0-0.1-0.1-0.1c-0.2,0,0.1,0.1,0,0l-0.1-0.1c0.1,0,0.1,0,0.4,0.1c0.2,0-0.5-0.3-0.3-0.3
			c0.1,0.1,0.2,0.1,0.2,0l-0.2-0.1c0.1,0,0.3,0.1,0.5,0.2c0,0,0-0.1-0.2-0.2l0.3,0.1c-0.2,0-0.1-0.1-0.2-0.1l0,0c0.1,0,0.1,0,0-0.1
			s-0.2,0-0.3,0c-0.1-0.1-0.1-0.1-0.2-0.1c0.2,0.1,0.2,0,0.2,0c0.1,0-0.2-0.1-0.2-0.1c0.1,0,0,0,0.2,0c0,0-0.1,0,0,0s0.3,0.1,0.2,0
			c-0.1-0.1-0.4-0.2-0.3-0.2c0,0,0.1,0.1,0.2,0.1h0.1l-0.2-0.1c0.1,0,0.1,0,0.1,0c-0.2-0.1,0-0.1-0.3-0.2h0.2l0,0
			c0.1,0,0.1-0.1-0.1-0.1l0,0c0,0,0-0.1-0.1-0.1c0.2,0,0.7,0.3,0.5,0.1c0-0.1-0.3-0.2-0.5-0.2c0.2,0-0.1-0.3,0.2-0.2
			c-0.1,0-0.1-0.1-0.2-0.1c0.1-0.1-0.1-0.4,0.3-0.3c0.1,0.1,0.2,0.1,0.3,0.1c-0.2-0.1,0.2,0-0.1-0.1c-0.2-0.1-0.3-0.1-0.3-0.1
			c-0.1-0.1,0-0.2,0.2-0.2c-0.1,0-0.1,0-0.2-0.1c0.3,0.1,0.3,0.1,0.3,0l0.3,0.6h0.2c0,0-0.4-0.2-0.2-0.1c0.1,0,0.1,0,0.2,0.1
			c-0.1-0.1-0.3-0.2-0.2-0.2l0.3,0.1l-0.2-0.1c0.2,0,0.2-0.1,0.4,0c-0.5-0.3-0.4-0.5-0.3-0.7l0.1,0.1c0.1,0-0.2-0.1-0.1-0.1
			c0.1,0.1,0.3,0.1,0.4,0.2c0.2,0-0.2-0.2-0.2-0.2c-0.2-0.1,0.1,0.1-0.1,0c-0.1,0,0.2,0-0.1-0.1c0.1,0,0.3,0.1,0.4,0.1l-0.1-0.1
			c0.3,0.1,0.5,0.3,0.9,0.4l0,0c0.3,0.1,0.3,0.2,0.4,0.2c-0.1-0.1-0.5-0.3-0.6-0.3c0-0.1-0.6-0.3-0.5-0.3c0.2,0,0,0.1,0.2,0.1
			s-0.1-0.1,0-0.1c-0.1,0-0.4-0.1-0.4-0.2c0.1,0,0.2,0.1,0.3,0.1c-0.1-0.1-0.2-0.2-0.4-0.2c-0.3-0.1,0.1,0-0.1-0.2
			c0.2,0.1,0.5,0.3,0.7,0.2c-0.2-0.1-0.3-0.2-0.6-0.3c0.1,0,0.3,0.1,0.4,0.1c0.2,0-0.4-0.2,0.1-0.1l-0.2-0.1c0.1,0,0.1,0,0.3,0
			c0,0-0.3-0.2,0.1-0.1c0,0,0-0.1-0.2-0.2c-0.2,0,0.2,0.1-0.2,0c0.3,0.1,0-0.1-0.1-0.1h0.1c0,0,0-0.1-0.1-0.1c0.1,0,0.2,0.1,0.2,0.1
			l-0.2-0.1c-0.1-0.1,0.4,0.1,0.3,0l0.1,0.1c0,0,0.2,0,0.1,0c-0.2-0.1-0.4-0.2-0.6-0.3c-0.1-0.1,0.2,0.1,0,0l0.2,0.1
			c0.1,0,0.3,0.1,0.3,0c-0.1-0.1-0.3-0.2-0.4-0.2c0,0,0.1,0,0.3,0.1c0-0.1-0.2-0.1-0.3-0.2c0.1,0,0.3,0,0.5,0.1l0.3,0.2l0,0
			c0.2,0.1,0.2,0.1,0.5,0.2c0.1,0,0-0.1-0.1-0.1c-0.5-0.1-0.6-0.3-1-0.4c-0.1-0.1,1,0.3,0.4,0c-0.1,0-0.3-0.1-0.3-0.1
			c-0.1-0.1-0.3-0.2-0.2-0.2c0.1,0.1,0.4,0.1,0.6,0.2c-0.1,0-0.1,0-0.1,0c0.2,0,0.4,0.1,0.4,0.1s0-0.1-0.2-0.2c-0.2-0.1,0,0.1-0.2,0
			c-0.1-0.1,0.3,0-0.1-0.2c0,0.1-0.2,0-0.4-0.1l-0.1-0.1l0.1,0.1c0.1,0-0.3-0.1-0.2-0.2l0.3,0.1c0.2,0.1-0.2,0.1,0.3,0.2
			c0,0-0.2-0.1,0-0.1c0,0,0,0,0.1,0.1c0,0,0.6,0.2,0.3,0c-0.1-0.1-0.1-0.1-0.3-0.1c0-0.1-0.2-0.2-0.2-0.2c0.3,0.1,0.1-0.1,0.4,0.1
			c-0.2,0-0.2,0.1,0.1,0.2c0.4,0.1-0.1,0,0.3,0.2c0-0.1,0.4,0.1,0.6,0.1l-0.1-0.1c-0.2-0.1-0.2-0.1-0.4-0.1c0.1-0.1,0-0.2-0.2-0.3
			c0.1,0,0.3,0.1,0.3,0.1c0-0.1,0-0.2,0.1-0.3C85.8,60,86,60,85.8,59.9c0.1,0,0.2,0.1,0.4,0.1c-0.1-0.1,0.2,0.1,0.2,0
			c-0.1-0.1-0.2-0.2-0.3-0.3c0.3,0,0.1-0.2,0.1-0.3c0.2,0,0.5,0.1,0.5,0.1c0-0.1-0.4-0.1-0.2-0.1h0.1c-0.1,0,0.3-0.1-0.2-0.2
			l0.3,0.1c0,0,0,0-0.1-0.1c0.1,0,0.2,0.1,0.3,0.1c0.3,0,0-0.1,0-0.2h-0.2c-0.1-0.1,0.1-0.1,0-0.2l0.2,0.1l-0.1-0.1
			C86.9,59,87,59,87,59l0.4,0.3c-0.1,0-0.2-0.1-0.4-0.2c-0.2,0-0.1,0.1,0,0.1c0,0,0,0-0.1-0.1c0.3,0.1,0.3,0.1,0.4,0.2l0,0
			c0.1,0.1,0.1,0.1,0.1,0.1c-0.1-0.1-0.2,0-0.3-0.1c0.2,0.1,0.3,0.2,0.2,0.2c-0.3-0.1,0.1,0.2,0,0.2c-0.2-0.1-0.4-0.2-0.5-0.3
			c-0.1,0,0,0.1-0.2,0.1c0.2,0.1,0.5,0.2,0.5,0.3l-0.2-0.1c0.1,0.1,0.3,0.2,0.3,0.2C87.1,60,87,60.1,87,60.2h0
			c0.4,0.2,0.1,0.2,0.2,0.3c-0.2,0,0.1,0.3-0.2,0.2c0.1,0.2,0.1,0.5,0,0.6l-0.3-0.1c0.2,0.1-0.2,0-0.1,0c0.2,0,0.3,0.1,0.4,0.2
			c-0.2,0-0.1,0.2,0.1,0.4l-0.2-0.1c0.3,0.2,0,0.2-0.1,0.3c-0.1,0-0.3-0.1-0.2,0c0.3,0.2,0.2,0.2,0.4,0.3c0,0.1-0.1,0.1-0.3,0.1
			c0.3,0.4,0,0.5,0.2,0.8l-0.2-0.1c0.4,0.4-0.1,0.5,0,0.8l-0.4-0.1c-0.1,0,0,0.2,0.3,0.2c-0.1,0,0.1,0.2-0.2,0.1
			c-0.1,0,0.1,0.1,0.2,0.2c-0.2,0.1-0.2,0.1-0.1,0.2c-0.1,0-0.2-0.1-0.2-0.1c0.1,0.1-0.2,0.1,0.3,0.2c-0.3,0,0.1,0.4-0.3,0.3
			c0.1,0,0.1,0.1,0.2,0.1c0,0.1-0.2,0.1-0.2,0.2c0.2-0.1,0.4-0.2,0.6-0.3l0.2,0.3c-0.1-0.7,0.7-0.6,0.8-1.1c0.7,0,1-0.9,1.5-0.5
			c0.8-0.7,1.5-1.3,2.5-1.7l0.1,0.5c0-0.4,0.2,0.2,0.4,0c-0.4-0.2,0-0.6,0-0.9c0.6,0.1,1-0.5,1.2-1l0.2,0.3c0.1-0.7,0.8-0.5,1.3-0.7
			c0.1,0.1,0.4,0.3,0.5,0.2c0-0.6,0.1-0.6,0.3-1.1c0.3-0.2,0.8-0.3,1.1-0.3c0.3-0.6,0.7-1,1.2-1.3s1-0.7,1.3-1.2l0.3,0.3
			c0.2-0.7,0.7-1,1.2-1.4c0.2-0.2,0.5-0.3,0.7-0.5s0.4-0.4,0.5-0.6l0.4,0.6c0.4,0,0.4-0.6,0-0.9c0.1,0,0.2-0.1,0.2-0.1l0.1-0.1l0,0
			l0,0l0,0l0,0l0,0l0,0l0,0l0,0l0,0l0,0l0,0v-0.1c0.1-0.2,0.2-0.3,0.5-0.1c0.3-0.1,0.1-0.5,0.2-0.7c0.3-0.1,0.5-0.3,0.7-0.4
			c0.1-0.1,0.2-0.3,0.3-0.4c0.1,0.1,0.2,0.3,0.3,0.2c0-0.3,0.7-0.4,0-0.8c0.8-0.1,0.7-1.3,1.6-1.3c-0.2-0.1-0.1-0.2-0.2-0.4
			c0.4-0.4,1.1-0.6,1.1-1.1c0.1,0,0.2,0.3,0.3,0.2c0-0.2-0.2-0.2-0.2-0.4c0.1-0.2,0.2-0.4,0.4-0.6c0.2-0.2,0.3-0.3,0.5-0.4
			c0.4-0.3,0.8-0.5,1-0.8c0.3-0.7,0.7-1.3,1.1-1.9c0.2-0.3,0.4-0.6,0.6-0.9c0.2-0.3,0.4-0.6,0.6-0.9l0.1,0.1
			c-0.3-0.7,1.1-0.6,0.5-1.4c0.2,0,0.3-0.3,0.5-0.1c-0.2-0.5,0.7-0.7,0.6-1.3c0.5-0.3,0.3-0.9,0.8-1.3c0,0.1,0,0.2,0.2,0.3
			c0.4-0.1-0.4-0.7,0.4-0.5c0-0.1-0.3-0.2-0.3-0.2c0.4-0.5,0.6-1.1,0.7-1.7c0.1-0.6,0.2-1.3,0.2-1.9c0.7-0.7,1.2,0.3,0.9-0.5
			c0.2,0-0.3-0.1-0.1-0.1c-0.1-0.3,0.9-0.2,0.6-0.5c-0.5,0-0.2-0.2-0.5-0.3c0.4-0.5,0.8-0.5,0.6-1l0.2,0.1c-0.3-0.3-0.3-0.6-0.4-0.9
			s-0.1-0.5-0.5-0.8c0-0.3,0-0.7,0-1s0-0.7-0.1-1v-0.5v-0.1l0,0l0,0v0.1l0,0v-0.1V28v-0.3c0-0.1,0-0.1-0.1-0.1c0-0.1,0-0.2-0.1-0.3
			c-0.3-0.9-0.8-1.8-1.5-2.7c-0.5-0.9-1.3-1.7-2.2-2.3c-0.4-0.3-0.9-0.6-1.4-0.8c-0.5-0.3-0.9-0.5-1.4-0.8c-0.2-0.4-0.3-0.6-0.4-0.6
			c-0.1-0.1-0.3,0-0.6,0c0-0.1,0.1-0.1,0.1-0.2c-0.1,0.5-0.4,0-0.5,0.5c-0.8-0.2-1.5,0-2.3,0.2c0.1-0.1,0.1-0.5,0-0.4l-0.1,0.4
			l-0.1-0.1c-0.1,0.1-0.1,0.4,0,0.5c-0.5,0.3-1,0.4-1.6,0.6l-0.3,0.1h0.1h-0.1c-0.1,0-0.1,0-0.2,0.1s-0.3,0.1-0.5,0.2l-0.3,0.1
			l-0.3,0.1l-0.6,0.3l-0.3,0.1l-0.3,0.2c-0.2,0.1-0.4,0.2-0.5,0.4c-0.2,0.1-0.4,0.3-0.5,0.4c-0.2,0.1-0.3,0.3-0.5,0.5
			c-0.3,0.1-0.5,0.4-0.8,0.7c-0.1,0.1-0.2,0.3-0.3,0.4c-0.1,0.2-0.2,0.3-0.3,0.5c-0.5,0.3-0.9,0.5-1.3,0.8s-0.8,0.5-1.2,0.9
			c-0.7,0.7-1.3,1.4-1.8,2.4c0,0-0.9-1-0.7-1.9c-0.2-0.8,0.3-1.3,0.7-1.8l0.3-0.4c0.1-0.1,0.2-0.2,0.3-0.4c0.2-0.3,0.4-0.6,0.4-0.9
			c0.1-0.1,0.5,0.5,0.6,0.1c0-0.8,0.5-1.4,1.1-1.9c0.7-0.5,1.5-0.9,2.3-1.1l0.1,0.2c0.3-0.1,0.1-0.8,0.4-0.9c0.1,0.1,0,0.2,0.2,0.3
			c-0.2-0.3,0.3-0.5,0.2-0.8c0.2,0,0.4,0.3,0.6,0.3l-0.1-0.4c-0.1-0.6,0.1-0.7,0.4-0.8c0.3-0.1,0.6-0.1,0.8-0.5c0,0.1,0,0.2,0.1,0.3
			c0.1-0.2,0.2-0.3,0.3-0.4c0.1-0.1,0.2-0.3,0.4-0.4l0,0c0.7-0.5,1.5-0.8,2.3-1.1c0,0.2,0,0.4,0.1,0.6c0-0.5,0.3-0.6,0.6-0.8
			c0.1,0.2,0.2,0.1,0.4,0c0.1-0.1,0.3-0.3,0.5-0.2V17c0.3-0.5,0.4,0.3,0.6-0.3c0,0,0,0.1,0.1,0.2c0,0.1,0.1,0.2,0.1,0.2
			c0.1-0.7,0.4,0.3,0.6,0V17c0.2-0.1,0.3,0.2,0.5,0.1v0.1c0.5-0.1,0.7,0.3,0.8-0.2c0.1,0.4-0.5,0.1-0.3,0.7c0.8-0.2,1.6-0.1,2.3,0.1
			c0.8,0.2,1.5,0.6,2.1,0.9c0.1,0.3,0.1,0.4,0,0.6c0.2,0,0.5,0.2,0.8,0.1c0,0-0.1,0.3,0,0.3c0.1,0.3,0.6-0.3,0.7,0.1
			c-0.2,0-0.3,0.1-0.4,0.3c0.4-0.2,0.7,0.1,1,0.2c-0.1,0-0.2,0-0.3,0.1c0.3-0.1,0.4,0.1,0.5,0.2s0.1,0.3,0.3,0.3l-0.3,0.1
			c0.1,0.6,0.5-0.3,0.7,0.1c-0.1,0-0.2,0.1-0.3,0.2c0.3,0,0.6,0.1,0.8,0.2c0.2,0.2,0.4,0.4,0.5,0.5l-0.1,0.1
			c0.1,0.2,0.3,0.3,0.4,0.5s0.3,0.4,0.5,0.5c0,0.2-0.6,0.3-0.3,0.6c0.3-0.2,0.4,0,0.5,0.1s0.3,0.2,0.5-0.1c0,0.2,0.1,0.5,0.1,0.7
			c0.1,0.2,0.1,0.4,0.3,0.5c-0.3-0.1-0.6,0.4-0.8,0.2c0,0-0.1,0.1-0.1,0.2c-0.1,0.1-0.1,0.2-0.1,0.2c-0.2,0,0-0.2-0.3-0.1
			c0.1,0.1,0.4,0.5,0.4,0.6c0.4,0.2,1.2,0.3,1.3,0.7c-0.2-0.2-0.5,0.1-0.7,0.1c0.1,0,0.3,0.1,0.5,0.2c0.3,0.1,0.6,0.3,0.6,0.3
			c0,0.2-0.5,0.1-0.3,0.3c0.2,0,0.3,0.1,0.4,0.1c0,0,0,0.2,0,0.4v0.1l0,0l0,0l0,0l0,0l0,0l0,0c0,0,0,0,0,0.1
			c-0.1,0.1-0.2,0.1-0.3,0.1c-0.2,0.1-0.1-0.3-0.3-0.1c0,0.3,0.2,0.3,0.2,0.6h-0.1c-0.1,0.2,0.2,0.6,0.6,0.4c0-0.1-0.4,0-0.2-0.2
			c0.3,0.1,0.4,0.5,0.4,0.8c-0.1-0.1-0.2-0.1-0.4-0.2C120.3,30.3,120.4,30.8,120.6,31.3C120.7,31.3,120.7,31.3,120.6,31.3z
			 M120.8,30.3c-0.1-0.2,0.2-0.1,0.3-0.1C121.1,30.3,120.8,30.1,120.8,30.3z"/>
		<path class="st0" d="M63.3,29.4v-0.1C63.3,29.3,63.3,29.3,63.3,29.4z"/>
		<path class="st0" d="M82.9,69.6C82.7,69.4,82.6,69.3,82.9,69.6L82.9,69.6z"/>
		<path class="st0" d="M119.5,35.9c0,0.1,0,0.1,0,0.2l0,0C119.6,36,119.6,36,119.5,35.9L119.5,35.9z"/>
		<path class="st0" d="M82.8,69L82.8,69L82.8,69C82.8,69.1,82.8,69.1,82.8,69z"/>
		<path class="st0" d="M82.5,68.3C82.6,68.3,82.6,68.3,82.5,68.3C82.6,68.3,82.6,68.3,82.5,68.3L82.5,68.3z"/>
	</g>
</g>
<g>
	<g>
		<path class="st0" d="M202.6,36.9h-11.5v33.4h-9.5V36.9h-11.5v-7.5h32.6v7.5H202.6z"/>
		<path class="st0" d="M214.6,43.7c1-0.9,2.2-1.6,3.4-2.2c1.2-0.6,2.7-0.8,4.4-0.8c1.6,0,3,0.3,4.2,0.8c1.2,0.6,2.3,1.3,3.1,2.3
			s1.5,2.2,1.9,3.5c0.4,1.4,0.6,2.8,0.6,4.4v18.5h-8.7V51.8c0-1.4-0.3-2.5-1-3.3s-1.6-1.2-2.9-1.2c-1,0-1.9,0.2-2.7,0.6
			s-1.6,1-2.4,1.6v20.8h-8.7V28.2h8.7L214.6,43.7L214.6,43.7z"/>
		<path class="st0" d="M245.1,57.3c0.3,2.4,1,4.2,2.2,5.3s2.7,1.6,4.6,1.6c1,0,1.9-0.1,2.6-0.4c0.7-0.2,1.4-0.5,2-0.8
			c0.6-0.3,1.1-0.6,1.6-0.8s1-0.4,1.5-0.4c0.7,0,1.2,0.3,1.6,0.8l2.5,3.1c-0.9,1-1.9,1.9-2.9,2.5s-2.1,1.2-3.2,1.5
			c-1.1,0.4-2.2,0.6-3.3,0.8c-1.1,0.1-2.1,0.2-3.1,0.2c-2,0-4-0.3-5.8-1s-3.4-1.7-4.7-3s-2.4-2.9-3.2-4.9c-0.8-1.9-1.2-4.2-1.2-6.8
			c0-1.9,0.3-3.8,1-5.5s1.6-3.3,2.9-4.6c1.2-1.3,2.8-2.4,4.5-3.1s3.8-1.2,6-1.2c1.9,0,3.7,0.3,5.3,0.9c1.6,0.6,3,1.5,4.1,2.6
			s2.1,2.5,2.7,4.2s1,3.5,1,5.6c0,0.7,0,1.2-0.1,1.6c-0.1,0.4-0.2,0.7-0.3,1c-0.2,0.2-0.4,0.4-0.6,0.5s-0.6,0.1-1,0.1h-16.7V57.3z
			 M256.1,52.3c0-0.7-0.1-1.4-0.3-2c-0.2-0.7-0.5-1.2-0.9-1.8s-0.9-0.9-1.6-1.3c-0.7-0.3-1.5-0.5-2.4-0.5c-1.6,0-2.9,0.5-3.9,1.4
			c-0.9,0.9-1.6,2.3-1.9,4.1L256.1,52.3L256.1,52.3z"/>
		<path class="st0" d="M302,49.1h14.6v17.3c-2.1,1.5-4.3,2.7-6.7,3.3c-2.4,0.7-4.9,1-7.4,1c-3.4,0-6.4-0.5-9.2-1.6
			c-2.8-1.1-5.1-2.5-7.1-4.4s-3.5-4.1-4.6-6.6s-1.6-5.3-1.6-8.3c0-3.1,0.5-5.9,1.5-8.4c1-2.6,2.5-4.8,4.3-6.6
			c1.9-1.9,4.2-3.3,6.8-4.3s5.7-1.5,9-1.5c1.7,0,3.3,0.1,4.8,0.4s2.9,0.7,4.1,1.2c1.3,0.5,2.4,1.1,3.5,1.7c1.1,0.7,2,1.4,2.8,2.2
			l-2.8,4.2c-0.4,0.7-1,1.1-1.7,1.2c-0.7,0.2-1.4,0-2.2-0.5c-0.8-0.5-1.5-0.8-2.1-1.2c-0.7-0.3-1.3-0.6-2-0.8s-1.4-0.4-2.2-0.5
			c-0.8-0.1-1.6-0.1-2.6-0.1c-1.8,0-3.4,0.3-4.8,0.9c-1.4,0.6-2.6,1.5-3.6,2.7c-1,1.1-1.8,2.5-2.3,4.1s-0.8,3.4-0.8,5.4
			c0,2.2,0.3,4.1,0.9,5.8s1.4,3.1,2.5,4.3s2.4,2,3.9,2.7c1.5,0.6,3.2,0.9,5.1,0.9c1.1,0,2.2-0.1,3.1-0.3s1.8-0.5,2.7-0.9V56h-4
			c-0.6,0-1.1-0.2-1.4-0.5s-0.5-0.7-0.5-1.2L302,49.1L302,49.1z"/>
		<path class="st0" d="M329.7,45.7c0.9-1.6,1.9-2.8,3.1-3.7s2.5-1.3,4-1.3c1.3,0,2.4,0.3,3.2,0.9l-0.6,6.4c-0.1,0.4-0.2,0.7-0.5,0.8
			c-0.2,0.2-0.5,0.2-0.9,0.2c-0.2,0-0.3,0-0.6,0c-0.2,0-0.5,0-0.8-0.1c-0.3,0-0.5-0.1-0.8-0.1s-0.5,0-0.7,0c-1.3,0-2.3,0.3-3.1,1
			c-0.8,0.7-1.4,1.6-1.9,2.8v17.7h-8.7V41.2h5.2c0.4,0,0.8,0,1.1,0.1s0.5,0.2,0.7,0.4s0.3,0.4,0.5,0.6c0.1,0.3,0.2,0.6,0.3,1
			L329.7,45.7z"/>
		<path class="st0" d="M349.7,57.3c0.3,2.4,1,4.2,2.2,5.3s2.7,1.6,4.6,1.6c1,0,1.9-0.1,2.6-0.4c0.7-0.2,1.4-0.5,2-0.8
			s1.1-0.6,1.6-0.8s1-0.4,1.5-0.4c0.7,0,1.2,0.3,1.6,0.8l2.5,3.1c-0.9,1-1.9,1.9-2.9,2.5s-2.1,1.2-3.2,1.5c-1.1,0.4-2.2,0.6-3.3,0.8
			s-2.1,0.2-3.1,0.2c-2,0-4-0.3-5.8-1s-3.4-1.7-4.7-3c-1.3-1.3-2.4-2.9-3.2-4.9c-0.8-1.9-1.2-4.2-1.2-6.8c0-1.9,0.3-3.8,1-5.5
			s1.6-3.3,2.9-4.6c1.2-1.3,2.8-2.4,4.5-3.1c1.8-0.8,3.8-1.2,6-1.2c1.9,0,3.7,0.3,5.3,0.9c1.6,0.6,3,1.5,4.1,2.6
			c1.2,1.1,2.1,2.5,2.7,4.2s1,3.5,1,5.6c0,0.7,0,1.2-0.1,1.6c-0.1,0.4-0.2,0.7-0.3,1c-0.2,0.2-0.4,0.4-0.6,0.5s-0.6,0.1-1,0.1h-16.7
			V57.3z M360.6,52.3c0-0.7-0.1-1.4-0.3-2s-0.5-1.2-0.9-1.8s-0.9-0.9-1.6-1.3c-0.7-0.3-1.5-0.5-2.4-0.5c-1.6,0-2.9,0.5-3.9,1.4
			c-0.9,0.9-1.6,2.3-1.9,4.1L360.6,52.3L360.6,52.3z"/>
		<path class="st0" d="M380,57.3c0.3,2.4,1,4.2,2.2,5.3s2.7,1.6,4.6,1.6c1,0,1.9-0.1,2.6-0.4c0.7-0.2,1.4-0.5,2-0.8s1.1-0.6,1.6-0.8
			s1-0.4,1.5-0.4c0.7,0,1.2,0.3,1.6,0.8l2.5,3.1c-0.9,1-1.9,1.9-2.9,2.5s-2.1,1.2-3.2,1.5c-1.1,0.4-2.2,0.6-3.3,0.8
			s-2.1,0.2-3.1,0.2c-2,0-4-0.3-5.8-1s-3.4-1.7-4.7-3c-1.3-1.3-2.4-2.9-3.2-4.9c-0.8-1.9-1.2-4.2-1.2-6.8c0-1.9,0.3-3.8,1-5.5
			s1.6-3.3,2.9-4.6c1.2-1.3,2.8-2.4,4.5-3.1c1.8-0.8,3.8-1.2,6-1.2c1.9,0,3.7,0.3,5.3,0.9c1.6,0.6,3,1.5,4.1,2.6
			c1.2,1.1,2.1,2.5,2.7,4.2s1,3.5,1,5.6c0,0.7,0,1.2-0.1,1.6c-0.1,0.4-0.2,0.7-0.3,1c-0.2,0.2-0.4,0.4-0.6,0.5
			c-0.3,0.1-0.6,0.1-1,0.1H380V57.3z M391,52.3c0-0.7-0.1-1.4-0.3-2c-0.2-0.7-0.5-1.2-0.9-1.8c-0.4-0.5-0.9-0.9-1.6-1.3
			c-0.7-0.3-1.5-0.5-2.4-0.5c-1.7,0-2.9,0.5-3.9,1.4c-0.9,0.9-1.6,2.3-1.9,4.1L391,52.3L391,52.3z"/>
		<path class="st0" d="M411.2,44.3c0.6-0.5,1.1-1,1.7-1.5c0.6-0.4,1.2-0.8,1.9-1.1c0.7-0.3,1.4-0.6,2.2-0.7c0.8-0.2,1.7-0.3,2.6-0.3
			c1.6,0,3,0.3,4.2,0.8c1.2,0.6,2.3,1.3,3.1,2.3s1.5,2.2,1.9,3.5c0.4,1.4,0.6,2.8,0.6,4.4v18.5h-8.7V51.8c0-1.4-0.3-2.5-1-3.3
			s-1.6-1.2-2.9-1.2c-1,0-1.9,0.2-2.7,0.6s-1.6,1-2.4,1.6v20.8H403V41.2h5.4c1.1,0,1.8,0.5,2.1,1.5L411.2,44.3z"/>
		<path class="st0" d="M200.8,120c0.2,0,0.5,0,0.7,0.1s0.4,0.2,0.6,0.4l3.8,4c-1.6,2.2-3.7,3.8-6.2,4.9c-2.5,1.1-5.4,1.6-8.8,1.6
			c-3.1,0-5.9-0.5-8.4-1.6s-4.6-2.5-6.3-4.4s-3-4.1-4-6.6c-0.9-2.6-1.4-5.3-1.4-8.3c0-3.1,0.5-5.9,1.5-8.4c1-2.6,2.4-4.8,4.2-6.6
			c1.8-1.9,4-3.3,6.5-4.3s5.3-1.5,8.3-1.5c1.5,0,3,0.1,4.3,0.4c1.4,0.3,2.6,0.6,3.8,1.1s2.3,1.1,3.3,1.7c1,0.7,1.9,1.4,2.6,2.2
			l-3.2,4.3c-0.2,0.3-0.5,0.5-0.7,0.7s-0.7,0.3-1.2,0.3c-0.3,0-0.7-0.1-1-0.2c-0.3-0.2-0.6-0.3-1-0.5c-0.3-0.2-0.7-0.5-1.1-0.7
			c-0.4-0.3-0.9-0.5-1.4-0.7c-0.6-0.2-1.2-0.4-1.9-0.5c-0.7-0.2-1.6-0.2-2.6-0.2c-1.6,0-3,0.3-4.3,0.9s-2.4,1.4-3.4,2.5
			c-0.9,1.1-1.7,2.5-2.2,4.1s-0.8,3.5-0.8,5.6s0.3,4,0.9,5.6c0.6,1.6,1.4,3,2.3,4.1s2.1,2,3.4,2.5c1.3,0.6,2.7,0.9,4.2,0.9
			c0.9,0,1.6,0,2.4-0.1c0.7-0.1,1.4-0.2,2-0.4c0.6-0.2,1.2-0.5,1.7-0.8s1.1-0.7,1.7-1.3c0.2-0.2,0.5-0.3,0.7-0.5
			C200.2,120,200.5,120,200.8,120z"/>
		<path class="st0" d="M217.7,104c1-0.9,2.2-1.6,3.4-2.2s2.7-0.8,4.4-0.8c1.6,0,3,0.3,4.2,0.8c1.2,0.6,2.3,1.3,3.1,2.3
			s1.5,2.2,1.9,3.5c0.4,1.4,0.6,2.8,0.6,4.4v18.5h-8.7V112c0-1.4-0.3-2.5-1-3.3s-1.6-1.2-2.9-1.2c-1,0-1.9,0.2-2.7,0.6
			s-1.6,1-2.4,1.6v20.8H209v-42h8.7V104z"/>
		<path class="st0" d="M240.4,105.5c1.8-1.6,3.7-2.7,5.9-3.5c2.1-0.8,4.4-1.1,6.9-1.1c1.8,0,3.4,0.3,4.8,0.9s2.6,1.4,3.6,2.4
			s1.7,2.2,2.3,3.6c0.5,1.4,0.8,2.9,0.8,4.6v18.2h-4c-0.8,0-1.4-0.1-1.9-0.3c-0.4-0.2-0.8-0.7-1.1-1.4l-0.6-1.6
			c-0.7,0.6-1.4,1.2-2.1,1.6c-0.7,0.5-1.4,0.9-2.1,1.2c-0.7,0.3-1.5,0.6-2.3,0.7c-0.8,0.2-1.7,0.2-2.7,0.2c-1.3,0-2.5-0.2-3.6-0.5
			s-2-0.9-2.8-1.5c-0.8-0.7-1.3-1.5-1.8-2.5s-0.6-2.2-0.6-3.5c0-1,0.3-2.1,0.8-3.2s1.4-2.1,2.7-3s3-1.6,5.2-2.2s5-0.9,8.3-1v-1.2
			c0-1.7-0.4-2.9-1.1-3.7c-0.7-0.8-1.7-1.1-3-1.1c-1,0-1.9,0.1-2.5,0.3c-0.7,0.2-1.2,0.5-1.8,0.8c-0.5,0.3-1,0.5-1.5,0.8
			c-0.5,0.2-1.1,0.3-1.7,0.3c-0.6,0-1.1-0.1-1.5-0.5c-0.4-0.3-0.8-0.7-1-1.1L240.4,105.5z M256.1,118.7c-1.7,0.1-3.2,0.2-4.3,0.5
			s-2,0.5-2.7,0.8s-1.1,0.7-1.4,1.2c-0.3,0.4-0.4,0.9-0.4,1.4c0,1,0.3,1.7,0.8,2.1s1.3,0.6,2.4,0.6c1.1,0,2.1-0.2,3-0.6
			c0.8-0.4,1.7-1,2.6-1.9V118.7z"/>
		<path class="st0" d="M280,93.4c0,0.7-0.1,1.3-0.4,2c-0.3,0.6-0.7,1.1-1.2,1.6s-1.1,0.8-1.7,1.1c-0.6,0.3-1.3,0.4-2.1,0.4
			c-0.7,0-1.4-0.1-2-0.4s-1.2-0.6-1.6-1.1c-0.5-0.5-0.9-1-1.1-1.6c-0.3-0.6-0.4-1.3-0.4-2s0.1-1.4,0.4-2s0.6-1.2,1.1-1.6
			c0.5-0.5,1-0.8,1.6-1.1c0.6-0.3,1.3-0.4,2-0.4s1.4,0.1,2.1,0.4c0.6,0.3,1.2,0.6,1.7,1.1s0.9,1,1.2,1.6
			C279.9,92.1,280,92.7,280,93.4z M279.1,101.4v29.2h-8.7v-29.2C270.4,101.4,279.1,101.4,279.1,101.4z"/>
		<path class="st0" d="M293.4,105.9c0.9-1.6,1.9-2.8,3.1-3.7c1.2-0.9,2.5-1.3,4-1.3c1.3,0,2.4,0.3,3.2,0.9l-0.6,6.4
			c-0.1,0.4-0.2,0.7-0.5,0.8s-0.5,0.2-0.9,0.2c-0.2,0-0.3,0-0.6,0c-0.2,0-0.5,0-0.8-0.1c-0.3,0-0.5-0.1-0.8-0.1s-0.5,0-0.7,0
			c-1.3,0-2.3,0.3-3.1,1c-0.8,0.7-1.4,1.6-1.9,2.8v17.7h-8.7v-29.2h5.2c0.4,0,0.8,0,1.1,0.1c0.3,0.1,0.5,0.2,0.7,0.4
			c0.2,0.2,0.3,0.4,0.4,0.6s0.2,0.6,0.3,1L293.4,105.9z"/>
		<path class="st0" d="M331.7,90.8c4.7,0,8.2,1,10.6,3.1c2.4,2,3.6,5,3.6,8.7c0,1.7-0.3,3.3-1,4.8s-1.6,2.7-2.8,3.8
			s-2.7,1.9-4.4,2.5c-1.7,0.6-3.7,0.9-5.9,0.9h-7.4v16h-2.9V90.8H331.7z M331.7,112.2c1.7,0,3.3-0.2,4.7-0.7s2.6-1.2,3.5-2
			s1.7-1.9,2.2-3.1s0.8-2.5,0.8-3.8c0-3.1-0.9-5.4-2.8-7.1s-4.7-2.5-8.4-2.5h-7.4v19.2H331.7z"/>
		<path class="st0" d="M354.6,109.4c0.4-1.1,0.9-2.2,1.5-3.1s1.2-1.6,1.9-2.3c0.7-0.6,1.5-1.1,2.4-1.4s1.9-0.5,3-0.5
			c0.6,0,1.2,0.1,1.7,0.2c0.6,0.1,1.1,0.3,1.5,0.5l-0.2,1.9c-0.1,0.3-0.3,0.5-0.5,0.5s-0.6-0.1-1-0.2c-0.5-0.1-1.1-0.2-1.8-0.2
			c-1.1,0-2,0.2-2.9,0.5c-0.8,0.3-1.6,0.8-2.2,1.5c-0.7,0.7-1.2,1.5-1.7,2.4c-0.5,1-1,2.1-1.4,3.3v18.1h-2.7v-28h1.4
			c0.3,0,0.5,0.1,0.7,0.2c0.1,0.1,0.2,0.4,0.3,0.7L354.6,109.4z"/>
		<path class="st0" d="M381.4,102.2c2,0,3.8,0.3,5.4,1s2.9,1.7,4,2.9s1.9,2.8,2.5,4.5c0.6,1.8,0.9,3.8,0.9,5.9
			c0,2.2-0.3,4.2-0.9,5.9c-0.6,1.8-1.4,3.3-2.5,4.5c-1.1,1.3-2.4,2.2-4,2.9s-3.4,1-5.4,1s-3.8-0.3-5.4-1s-2.9-1.6-4-2.9
			c-1.1-1.3-1.9-2.8-2.5-4.5c-0.6-1.8-0.9-3.7-0.9-5.9c0-2.2,0.3-4.2,0.9-5.9c0.6-1.8,1.4-3.3,2.5-4.5s2.4-2.2,4-2.9
			C377.6,102.5,379.4,102.2,381.4,102.2z M381.4,128.8c1.7,0,3.1-0.3,4.4-0.9c1.2-0.6,2.3-1.4,3.1-2.5c0.8-1.1,1.5-2.4,1.9-3.9
			s0.6-3.2,0.6-5.1s-0.2-3.5-0.6-5.1c-0.4-1.5-1-2.8-1.9-3.9s-1.9-1.9-3.1-2.5s-2.7-0.9-4.4-0.9c-1.7,0-3.1,0.3-4.4,0.9
			c-1.2,0.6-2.3,1.4-3.1,2.5c-0.8,1.1-1.5,2.4-1.9,3.9s-0.6,3.2-0.6,5.1s0.2,3.6,0.6,5.1s1,2.8,1.9,3.9c0.8,1.1,1.9,1.9,3.1,2.5
			C378.3,128.6,379.8,128.8,381.4,128.8z"/>
		<path class="st0" d="M404.7,102.6v31.6c0,1-0.1,1.9-0.4,2.7s-0.7,1.5-1.3,2.2c-0.6,0.6-1.2,1.1-2.1,1.4c-0.8,0.3-1.8,0.5-2.9,0.5
			c-0.5,0-1,0-1.5-0.1s-0.9-0.2-1.3-0.4l0.1-1.4c0.1-0.2,0.1-0.3,0.2-0.3s0.2,0,0.4,0s0.4,0.1,0.6,0.1s0.6,0.1,0.9,0.1
			c1.5,0,2.6-0.4,3.4-1.2s1.1-2,1.1-3.5v-31.6h2.8V102.6z M405.9,93c0,0.3-0.1,0.7-0.2,0.9c-0.1,0.3-0.3,0.5-0.6,0.8
			s-0.5,0.4-0.8,0.5s-0.6,0.2-1,0.2c-0.3,0-0.7-0.1-1-0.2s-0.6-0.3-0.8-0.5c-0.2-0.2-0.4-0.5-0.5-0.8s-0.2-0.6-0.2-0.9
			s0.1-0.7,0.2-1s0.3-0.6,0.5-0.8c0.2-0.2,0.5-0.4,0.8-0.5s0.6-0.2,1-0.2c0.3,0,0.7,0.1,1,0.2s0.6,0.3,0.8,0.5
			c0.2,0.2,0.4,0.5,0.6,0.8S405.9,92.6,405.9,93z"/>
		<path class="st0" d="M415.2,115.5v0.5c0,2.1,0.2,3.9,0.7,5.5s1.2,2.9,2.1,4s2,1.9,3.3,2.4c1.3,0.5,2.7,0.8,4.3,0.8
			c1.4,0,2.6-0.2,3.7-0.5c1-0.3,1.9-0.7,2.6-1c0.7-0.4,1.3-0.7,1.7-1c0.4-0.3,0.7-0.5,0.9-0.5c0.2,0,0.4,0.1,0.6,0.3l0.7,0.9
			c-0.5,0.6-1,1.1-1.8,1.6c-0.7,0.5-1.6,0.9-2.5,1.3c-0.9,0.3-1.9,0.6-2.9,0.8s-2.1,0.3-3.1,0.3c-1.9,0-3.7-0.3-5.2-1
			s-2.9-1.6-4-2.9c-1.1-1.3-2-2.8-2.6-4.7s-0.9-4-0.9-6.3c0-2,0.3-3.9,0.9-5.6s1.4-3.2,2.5-4.4c1.1-1.2,2.4-2.2,4-2.9s3.3-1,5.3-1
			c1.6,0,3,0.3,4.4,0.8c1.3,0.5,2.5,1.3,3.5,2.4c1,1,1.8,2.3,2.3,3.8c0.6,1.5,0.9,3.3,0.9,5.2c0,0.4-0.1,0.7-0.2,0.8
			c-0.1,0.2-0.3,0.2-0.6,0.2h-20.6V115.5z M433.9,113.8c0-1.5-0.2-2.8-0.6-4s-1-2.2-1.8-3s-1.7-1.5-2.7-1.9
			c-1.1-0.4-2.2-0.7-3.5-0.7c-1.4,0-2.7,0.2-3.9,0.7s-2.1,1.1-3,1.9c-0.8,0.8-1.5,1.9-2,3c-0.5,1.2-0.8,2.5-1,4H433.9z"/>
		<path class="st0" d="M462.4,106.3c-0.1,0.1-0.2,0.2-0.3,0.2c-0.1,0.1-0.2,0.1-0.4,0.1c-0.2,0-0.4-0.1-0.8-0.4
			c-0.3-0.3-0.8-0.5-1.3-0.8s-1.2-0.6-2-0.8c-0.8-0.3-1.8-0.4-3-0.4c-1.6,0-3,0.3-4.3,0.9c-1.2,0.6-2.3,1.4-3.2,2.5
			c-0.9,1.1-1.5,2.4-2,3.9c-0.4,1.5-0.7,3.2-0.7,5.1c0,2,0.2,3.7,0.7,5.2s1.1,2.8,2,3.8c0.8,1,1.9,1.8,3.1,2.4
			c1.2,0.5,2.5,0.8,4,0.8c1.3,0,2.5-0.2,3.4-0.5s1.7-0.7,2.2-1c0.6-0.4,1.1-0.7,1.4-1s0.6-0.5,0.8-0.5c0.2,0,0.4,0.1,0.6,0.3
			l0.7,0.9c-0.4,0.6-1,1.1-1.6,1.6s-1.4,0.9-2.2,1.3c-0.8,0.4-1.7,0.6-2.7,0.8s-2,0.3-3,0.3c-1.8,0-3.4-0.3-4.9-1
			c-1.5-0.6-2.7-1.6-3.8-2.8c-1.1-1.2-1.9-2.7-2.5-4.5s-0.9-3.8-0.9-6.1c0-2.1,0.3-4.1,0.8-5.8s1.4-3.3,2.5-4.6c1.1-1.3,2.4-2.3,4-3
			s3.4-1.1,5.4-1.1c1.8,0,3.4,0.3,4.8,0.9s2.6,1.4,3.7,2.4L462.4,106.3z"/>
		<path class="st0" d="M477.8,131c-1.9,0-3.4-0.5-4.4-1.6c-1.1-1-1.6-2.7-1.6-4.9v-19.1h-4c-0.2,0-0.4-0.1-0.5-0.2s-0.2-0.3-0.2-0.5
			v-1l4.8-0.3l0.7-10c0-0.2,0.1-0.3,0.2-0.5c0.1-0.1,0.3-0.2,0.5-0.2h1.3v10.7h8.8v2h-8.8v19c0,0.8,0.1,1.4,0.3,2
			c0.2,0.6,0.5,1,0.8,1.4s0.8,0.6,1.2,0.8c0.5,0.2,1,0.3,1.5,0.3c0.7,0,1.3-0.1,1.7-0.3c0.5-0.2,0.9-0.4,1.3-0.6s0.6-0.5,0.9-0.6
			c0.2-0.2,0.4-0.3,0.5-0.3c0.2,0,0.3,0.1,0.5,0.3l0.7,1.2c-0.7,0.8-1.6,1.4-2.7,1.9C480.1,130.8,478.9,131,477.8,131z"/>
	</g>
</g>
</svg>
