<svg xmlns="http://www.w3.org/2000/svg" viewBox="0 0 465.992 123.049">
  <defs>
    <style>
      .cls-1 {
        fill: #fff;
      }

      .cls-2, .cls-3, .cls-4, .cls-5 {
        fill: none;
        stroke: #fff;
      }

      .cls-2, .cls-4, .cls-5 {
        stroke-miterlimit: 10;
      }

      .cls-2 {
        stroke-width: 1.029px;
      }

      .cls-3 {
        stroke-width: 1.055px;
      }

      .cls-4 {
        stroke-width: 1.023px;
      }

      .cls-5 {
        stroke-width: 0.987px;
      }
    </style>
  </defs>
  <g id="Group_9" data-name="Group 9" transform="translate(0 0.004)">
    <path id="Path_1" data-name="Path 1" class="cls-1" d="M13.919,60A14.172,14.172,0,0,0,0,74.413,14.379,14.379,0,0,0,9.06,87.92v40.192h3.789a2.751,2.751,0,0,0-1.647,2.141c0,1.894,3.13,3.377,6.918,3.377s6.918-1.482,6.918-3.377a1.871,1.871,0,0,0-.741-1.482v-.659h3.377V76.554a17.338,17.338,0,0,0,.165-2.059A14.087,14.087,0,0,0,13.919,60Z" transform="translate(0 -10.585)"/>
    <rect id="Rectangle_14" data-name="Rectangle 14" class="cls-1" width="55.099" height="29.485" transform="translate(32.203 87.136)"/>
    <path id="Path_2" data-name="Path 2" class="cls-1" d="M38.2,82.78c-3.212,6.671.165,15.813.165,15.813h55.1s3.706-10.542.247-15.648C81.772,81.133,57.887,79.321,38.2,82.78Z" transform="translate(-6.495 -14.257)"/>
    <path id="Path_3" data-name="Path 3" class="cls-1" d="M124.919,60C117.259,60,111,66.506,111,74.413a16.049,16.049,0,0,0,.165,2.059v51.64h3.377v.412a2.137,2.137,0,0,0-.988,1.73c0,1.894,3.13,3.377,6.918,3.377,3.871,0,6.918-1.482,6.918-3.377a2.793,2.793,0,0,0-1.4-2.059v-.082h3.871V88A14.462,14.462,0,0,0,138.92,74.5C138.838,66.424,132.578,60,124.919,60Z" transform="translate(-19.581 -10.585)"/>
    <g id="Group_5" data-name="Group 5" transform="translate(134.411 49.251)">
      <path id="Path_4" data-name="Path 4" class="cls-1" d="M188.155,81.214c0-3.377-.082-3.871-1.812-4.2a8.471,8.471,0,0,0-1.482-.082.354.354,0,0,1-.329-.329c0-.329.165-.329.659-.329,1.977,0,4.777.082,5.024.082.165,0,2.883-.082,4.2-.082.494,0,.659.082.659.329a.354.354,0,0,1-.329.329,5.467,5.467,0,0,0-1.071.082c-1.153.165-1.483.824-1.565,2.306-.082,1.318-.082,2.553-.082,4.283v4.612c0,1.894-.082,1.977-.576,2.224a21.694,21.694,0,0,1-9.06,1.812c-3.294,0-9.307-.412-14.084-4.447A15.81,15.81,0,0,1,163.2,76.025a15.587,15.587,0,0,1,7.165-13.589A21.738,21.738,0,0,1,181.731,59.8a39.69,39.69,0,0,1,6.589.659,22.111,22.111,0,0,0,3.459.412c.412,0,.494.165.494.412,0,.577-.247,1.73-.247,5.848,0,.659-.165.906-.494.906-.247,0-.329-.247-.329-.659a7.328,7.328,0,0,0-.988-2.718c-1.071-1.565-4.283-3.212-9.883-3.212a13.414,13.414,0,0,0-8.895,2.636c-2.471,1.894-4.2,5.6-4.2,10.377a16.765,16.765,0,0,0,4.53,11.448,15.322,15.322,0,0,0,10.954,4.283,11.8,11.8,0,0,0,4.612-.741c.494-.329.906-.494.906-1.235v-7Z" transform="translate(-163.2 -59.8)"/>
      <path id="Path_5" data-name="Path 5" class="cls-1" d="M213.024,72.642c0-6.424,0-7.577-.082-8.895-.082-1.4-.329-2.059-1.73-2.306a8.469,8.469,0,0,0-1.482-.082.354.354,0,0,1-.329-.329c0-.247.165-.329.659-.329,1.977,0,4.777.082,5.024.082.412,0,4.036-.082,5.353-.082,2.718,0,5.765.247,7.989,1.812a7.214,7.214,0,0,1,2.965,5.6c0,3.047-1.235,6.012-5.271,9.389,3.459,4.365,6.424,8.071,8.895,10.707,2.306,2.306,3.706,2.718,4.777,2.883a6.78,6.78,0,0,0,1.482.165.377.377,0,0,1,.412.329c0,.247-.247.329-.988.329h-2.635c-2.388,0-3.459-.247-4.53-.824-1.812-.988-3.377-2.965-5.848-6.095-1.812-2.224-3.706-4.942-4.612-6.012a.748.748,0,0,0-.577-.247l-5.436-.082a.3.3,0,0,0-.329.329v.988c0,3.953,0,7.165.165,8.895.165,1.235.412,1.977,1.729,2.224a17.711,17.711,0,0,0,1.894.165c.329,0,.329.165.329.329s-.165.329-.659.329c-2.306,0-5.024-.165-5.271-.165-.082,0-2.883.165-4.2.165-.412,0-.659-.082-.659-.329a.3.3,0,0,1,.329-.329,7.208,7.208,0,0,0,1.318-.165c.824-.165.906-.988,1.153-2.224a82.547,82.547,0,0,0,.247-8.895v-7.33ZM216.73,76.1a.452.452,0,0,0,.329.494,14.621,14.621,0,0,0,4.695.659,5.756,5.756,0,0,0,3.212-.741c1.482-.988,2.553-3.13,2.553-6.342,0-5.106-2.8-8.071-7.412-8.071a20.155,20.155,0,0,0-3.047.247.556.556,0,0,0-.329.494Z" transform="translate(-171.35 -59.959)"/>
      <path id="Path_6" data-name="Path 6" class="cls-1" d="M252.624,72.572c0-6.424,0-7.577-.082-8.895-.082-1.4-.329-2.059-1.73-2.306a8.471,8.471,0,0,0-1.482-.082.354.354,0,0,1-.329-.329c0-.247.165-.329.659-.329,1.977,0,4.695.082,4.942.082.329,0,9.224.082,10.213,0,.824-.082,1.565-.165,1.977-.247a1.526,1.526,0,0,1,.577-.165c.165,0,.165.165.165.412a17.5,17.5,0,0,0-.33,1.977c-.082.412-.165,2.224-.247,2.718-.082.165-.165.412-.412.412s-.329-.165-.329-.494a5.544,5.544,0,0,0-.247-1.483c-.329-.659-.741-.988-3.047-1.235-.741-.082-5.683-.165-6.177-.165-.165,0-.247.165-.247.412v11.2c0,.329,0,.412.247.412.494,0,6.177,0,7.165-.082a3.231,3.231,0,0,0,2.059-.577c.329-.329.494-.494.659-.494s.247.082.247.329a19.14,19.14,0,0,0-.329,2.306c-.082.824-.165,2.388-.165,2.636,0,.329-.082.741-.412.741a.377.377,0,0,1-.329-.412,4.572,4.572,0,0,0-.165-1.4c-.165-.577-.494-1.071-2.224-1.235-1.153-.165-5.765-.165-6.424-.165a.3.3,0,0,0-.329.329v3.377c0,1.4-.082,6.177,0,7,.082,2.8.906,3.294,5.106,3.294a15.128,15.128,0,0,0,4.283-.412,3.151,3.151,0,0,0,1.977-2.883c.082-.494.165-.659.412-.659s.329.329.329.659a30.449,30.449,0,0,1-.577,3.953c-.329,1.071-.741,1.071-2.388,1.071-3.212,0-5.683-.082-7.412-.165-1.812-.082-2.883-.082-3.541-.082-.082,0-.906,0-1.812.082-.824.082-1.812.082-2.471.082-.412,0-.659-.082-.659-.329a.3.3,0,0,1,.329-.329c.412,0,.906-.165,1.318-.165.824-.165.906-.988,1.153-2.224a82.572,82.572,0,0,0,.247-8.895V72.572Z" transform="translate(-178.335 -59.888)"/>
      <path id="Path_7" data-name="Path 7" class="cls-1" d="M285.124,72.572c0-6.424,0-7.577-.082-8.895-.082-1.4-.329-2.059-1.73-2.306a8.47,8.47,0,0,0-1.482-.082.354.354,0,0,1-.329-.329c0-.247.165-.329.659-.329,1.977,0,4.695.082,4.942.082.329,0,9.224.082,10.213,0,.824-.082,1.565-.165,1.977-.247a1.527,1.527,0,0,1,.577-.165c.165,0,.165.165.165.412a17.5,17.5,0,0,0-.329,1.977c-.082.412-.165,2.224-.247,2.718-.082.165-.165.412-.412.412s-.329-.165-.329-.494a5.537,5.537,0,0,0-.247-1.483c-.329-.659-.741-.988-3.047-1.235-.741-.082-5.683-.165-6.177-.165-.165,0-.247.165-.247.412v11.2c0,.329,0,.412.247.412.494,0,6.177,0,7.165-.082a3.232,3.232,0,0,0,2.059-.577c.329-.329.494-.494.659-.494s.247.082.247.329a19.168,19.168,0,0,0-.329,2.306c-.082.824-.165,2.388-.165,2.636,0,.329-.082.741-.412.741a.377.377,0,0,1-.329-.412,4.57,4.57,0,0,0-.165-1.4c-.165-.577-.494-1.071-2.224-1.235-1.153-.165-5.765-.165-6.424-.165a.3.3,0,0,0-.329.329v3.377c0,1.4-.082,6.177,0,7,.082,2.8.906,3.294,5.106,3.294a15.129,15.129,0,0,0,4.283-.412,3.152,3.152,0,0,0,1.977-2.883c.082-.494.165-.659.412-.659s.329.329.329.659a30.457,30.457,0,0,1-.576,3.953c-.329,1.071-.741,1.071-2.388,1.071-3.212,0-5.683-.082-7.412-.165-1.812-.082-2.883-.082-3.541-.082-.082,0-.906,0-1.812.082-.824.082-1.812.082-2.471.082-.412,0-.659-.082-.659-.329a.3.3,0,0,1,.329-.329c.412,0,.906-.165,1.318-.165.824-.165.906-.988,1.153-2.224a82.562,82.562,0,0,0,.247-8.895V72.572Z" transform="translate(-184.068 -59.888)"/>
      <path id="Path_8" data-name="Path 8" class="cls-1" d="M319.33,86.108c.082,3.377.494,4.447,1.647,4.694a12.149,12.149,0,0,0,2.141.247.354.354,0,0,1,.329.329c0,.247-.329.329-.741.329-2.388,0-4.118-.165-4.53-.165s-2.224.165-4.118.165c-.412,0-.659-.082-.659-.329a.354.354,0,0,1,.329-.329,7.86,7.86,0,0,0,1.73-.247c1.071-.329,1.235-1.4,1.235-5.106V62.059c0-1.647.247-2.059.576-2.059.494,0,1.235.824,1.647,1.235.659.659,6.918,7.248,13.507,14.084,4.2,4.365,8.813,9.307,10.13,10.624l-.412-20.672c-.082-2.636-.329-3.624-1.565-3.871a10.6,10.6,0,0,0-2.059-.165c-.329,0-.329-.247-.329-.412,0-.247.329-.329.824-.329,1.977,0,3.953.082,4.447.082s1.894-.082,3.624-.082c.412,0,.741.082.741.329a.463.463,0,0,1-.494.412,5.619,5.619,0,0,0-.988.082c-1.4.329-1.482,1.153-1.482,3.624l-.082,24.214c0,2.718-.082,2.965-.329,2.965-.412,0-.906-.329-3.294-2.553-.412-.412-6.589-6.424-11.119-11.2-4.942-5.189-9.8-10.213-11.036-11.7Z" transform="translate(-189.695 -59.835)"/>
      <path id="Path_9" data-name="Path 9" class="cls-1" d="M380.089,87.9c-4.2-3.624-5.189-8.318-5.189-12.272a16.252,16.252,0,0,1,4.777-11.283C382.23,61.877,386.1,59.9,392.69,59.9a42.343,42.343,0,0,1,6.177.494,29.574,29.574,0,0,0,4.365.659c.412,0,.494.165.494.412,0,.329-.082.824-.165,2.306-.082,1.4-.082,3.624-.082,4.2-.082.659-.247.906-.494.906-.329,0-.329-.329-.329-.906a5.231,5.231,0,0,0-1.812-4.118c-1.482-1.235-4.612-2.306-8.4-2.306-5.518,0-8.071,1.482-9.636,2.883-3.13,2.883-3.871,6.589-3.871,10.789a15.031,15.031,0,0,0,15.4,14.989c3.212,0,5.353-.247,7-1.977a7.8,7.8,0,0,0,1.647-3.459c.082-.412.165-.577.412-.577.165,0,.412.329.412.577a45.1,45.1,0,0,1-.988,5.271c-.247.741-.33.906-1.071,1.235a25.918,25.918,0,0,1-7.742.906C387.831,92.267,383.465,90.785,380.089,87.9Z" transform="translate(-200.544 -59.818)"/>
      <path id="Path_10" data-name="Path 10" class="cls-1" d="M447.867,79.89c0,3.953.082,7.248.247,8.895.165,1.235.247,1.977,1.565,2.224.576.082,1.565.165,1.894.165s.412.165.412.329-.247.329-.741.329c-2.306,0-5.024-.165-5.271-.165-.165,0-2.965.165-4.2.165-.494,0-.659-.082-.659-.329a.3.3,0,0,1,.329-.329,5.6,5.6,0,0,0,1.235-.165c.906-.165.988-.988,1.153-2.224.165-1.73.165-4.777.165-8.813V75.854a.218.218,0,0,0-.247-.247h-17.79a.218.218,0,0,0-.247.247v4.118c0,3.953,0,7.165.165,8.813.165,1.235.329,1.977,1.565,2.224.659.082,1.565.165,1.977.165a.3.3,0,0,1,.33.329c0,.165-.165.329-.659.329-2.388,0-5.106-.165-5.271-.165-.247,0-2.965.165-4.283.165-.412,0-.659-.082-.659-.329a.3.3,0,0,1,.33-.329,7.208,7.208,0,0,0,1.318-.165c.823-.165.906-.988,1.153-2.224a82.573,82.573,0,0,0,.247-8.895V72.642c0-6.424,0-7.577-.082-8.895-.082-1.4-.329-2.059-1.729-2.306a8.469,8.469,0,0,0-1.483-.082.354.354,0,0,1-.329-.329c0-.247.165-.329.659-.329,1.977,0,4.694.082,4.942.082.165,0,2.883-.082,4.2-.082.494,0,.659.082.659.329a.354.354,0,0,1-.33.329,5.465,5.465,0,0,0-1.071.082c-1.153.247-1.4.824-1.483,2.306-.082,1.318-.082,2.553-.082,8.977v.906c0,.247.082.247.247.247h17.79c.165,0,.247,0,.247-.247v-.906c0-6.424-.082-7.659-.082-8.977-.082-1.4-.33-2.059-1.73-2.306a8.466,8.466,0,0,0-1.482-.082.354.354,0,0,1-.329-.329c0-.247.165-.329.659-.329,1.894,0,4.695.082,4.859.082.247,0,2.965-.082,4.2-.082.494,0,.741.082.741.329a.377.377,0,0,1-.412.329,5.907,5.907,0,0,0-1.071.082c-1.153.247-1.4.824-1.483,2.306-.082,1.318-.082,2.471-.082,8.895Z" transform="translate(-208.2 -59.959)"/>
      <path id="Path_11" data-name="Path 11" class="cls-1" d="M477.1,61.365c.494-1.4.741-1.565.988-1.565.412,0,.577.577.988,1.482.741,1.73,7.659,18.778,10.213,25.037,1.565,3.706,2.718,4.2,3.624,4.53a7.262,7.262,0,0,0,1.73.247c.247,0,.494.082.494.329s-.494.329-.988.329c-.659,0-3.789,0-6.754-.082-.824-.082-1.482-.082-1.482-.329,0-.165.082-.165.329-.329.247-.082.659-.412.412-1.153l-3.871-9.471a.381.381,0,0,0-.412-.247h-9.883a.42.42,0,0,0-.412.329l-2.388,6.589a8.016,8.016,0,0,0-.659,2.8c0,.824.741,1.153,1.482,1.153h.412c.329,0,.412.165.412.329,0,.247-.247.329-.659.329-.988,0-3.377-.165-3.871-.165-.412,0-2.553.165-4.283.165-.494,0-.824-.082-.824-.329a.377.377,0,0,1,.412-.329c.329,0,.906-.082,1.235-.082,1.977-.247,2.8-1.73,3.624-3.789ZM481.878,78.5c.165,0,.165-.082.165-.329l-4.2-11.283q-.371-.988-.741,0l-3.953,11.283c-.082.165,0,.329.165.329Z" transform="translate(-215.856 -59.8)"/>
      <path id="Path_12" data-name="Path 12" class="cls-1" d="M512.518,79.89c0,3.953,0,7.248.165,8.895.165,1.235.329,1.977,1.565,2.224.659.082,1.565.165,1.977.165a.3.3,0,0,1,.33.329c0,.165-.165.329-.659.329-2.388,0-5.106-.165-5.353-.165s-2.883.165-4.2.165c-.412,0-.659-.082-.659-.329a.3.3,0,0,1,.329-.329,7.213,7.213,0,0,0,1.318-.165c.824-.165.988-.988,1.153-2.224.165-1.73.247-4.942.247-8.895V72.642c0-6.424,0-7.577-.082-8.895-.082-1.4-.412-2.059-1.4-2.224a9.5,9.5,0,0,0-1.318-.165.354.354,0,0,1-.329-.329c0-.247.165-.329.659-.329,1.4,0,4.118.082,4.283.082s2.965-.082,4.283-.082c.494,0,.659.082.659.329a.354.354,0,0,1-.329.329,5.467,5.467,0,0,0-1.071.082c-1.153.247-1.4.824-1.482,2.306-.082,1.318-.082,2.471-.082,8.895V79.89Z" transform="translate(-223.6 -59.959)"/>
      <path id="Path_13" data-name="Path 13" class="cls-1" d="M530.224,72.642c0-6.424,0-7.577-.082-8.895-.082-1.4-.329-2.059-1.729-2.306a8.469,8.469,0,0,0-1.482-.082.354.354,0,0,1-.329-.329c0-.247.165-.329.659-.329,1.977,0,4.777.082,5.024.082.412,0,4.036-.082,5.353-.082,2.718,0,5.765.247,7.989,1.812a7.214,7.214,0,0,1,2.965,5.6c0,3.047-1.235,6.012-5.271,9.389,3.459,4.365,6.424,8.071,8.895,10.707,2.306,2.306,3.706,2.718,4.777,2.883a6.781,6.781,0,0,0,1.483.165.377.377,0,0,1,.412.329c0,.247-.247.329-.988.329h-2.635c-2.389,0-3.459-.247-4.53-.824-1.812-.988-3.377-2.965-5.847-6.095-1.812-2.224-3.706-4.942-4.612-6.012a.748.748,0,0,0-.577-.247l-5.436-.082a.3.3,0,0,0-.329.329v.988c0,3.953,0,7.165.165,8.895.165,1.235.412,1.977,1.73,2.224a17.706,17.706,0,0,0,1.894.165c.329,0,.329.165.329.329s-.165.329-.659.329c-2.306,0-5.024-.165-5.271-.165-.082,0-2.883.165-4.2.165-.412,0-.659-.082-.659-.329a.3.3,0,0,1,.329-.329,7.21,7.21,0,0,0,1.318-.165c.824-.165.906-.988,1.153-2.224a82.573,82.573,0,0,0,.247-8.895v-7.33ZM533.93,76.1a.452.452,0,0,0,.329.494,14.621,14.621,0,0,0,4.694.659,5.756,5.756,0,0,0,3.212-.741c1.482-.988,2.553-3.13,2.553-6.342,0-5.106-2.8-8.071-7.412-8.071a20.157,20.157,0,0,0-3.047.247.556.556,0,0,0-.329.494Z" transform="translate(-227.304 -59.959)"/>
    </g>
    <g id="Group_6" data-name="Group 6" transform="translate(244.526 96.196)">
      <path id="Path_14" data-name="Path 14" class="cls-1" d="M298.959,123.706c0-3.459,0-4.118-.082-4.859s-.165-1.153-.988-1.235c-.165,0-.577-.082-.824-.082a.177.177,0,0,1-.165-.165c0-.165.082-.165.329-.165,1.071,0,2.471.082,2.718.082.494,0,2.224-.082,3.294-.082,2.965,0,4.036.906,4.447,1.235a3.986,3.986,0,0,1,1.153,2.718c0,3.212-2.388,5.353-6.012,5.353h-.659a.263.263,0,0,1-.247-.247c0-.165.165-.247.577-.247,2.471,0,4.283-1.565,4.283-3.624a4.443,4.443,0,0,0-1.318-3.377,3.877,3.877,0,0,0-3.13-1.071,5.729,5.729,0,0,0-1.318.165c-.165,0-.165.165-.165.412v9.142c0,2.141,0,3.953.082,4.859.082.659.247,1.071.906,1.153a4.727,4.727,0,0,0,.988.082c.165,0,.165.082.165.165s-.082.165-.329.165c-1.235,0-2.8-.082-2.883-.082s-1.565.082-2.306.082c-.247,0-.329-.082-.329-.165a.177.177,0,0,1,.165-.165c.247,0,.494-.082.741-.082.412-.082.494-.494.577-1.153a36.823,36.823,0,0,0,.165-4.859v-3.953Z" transform="translate(-296.9 -116.871)"/>
      <path id="Path_15" data-name="Path 15" class="cls-1" d="M317.259,123.706c0-3.459,0-4.118-.082-4.859s-.165-1.153-.988-1.235c-.165,0-.577-.082-.824-.082a.177.177,0,0,1-.165-.165c0-.165.082-.165.329-.165,1.071,0,2.636.082,2.718.082.247,0,2.224-.082,2.883-.082a7.507,7.507,0,0,1,4.283.988,3.9,3.9,0,0,1,1.647,3.047c0,1.647-.659,3.294-2.883,5.106,1.894,2.388,3.541,4.365,4.859,5.765a4.423,4.423,0,0,0,2.553,1.565,3.782,3.782,0,0,0,.824.082c.165,0,.247.082.247.165,0,.165-.165.165-.577.165H330.6a5.551,5.551,0,0,1-2.471-.412c-.988-.494-1.812-1.647-3.13-3.294-.988-1.235-1.977-2.635-2.471-3.294a.428.428,0,0,0-.329-.165l-2.965-.082a.177.177,0,0,0-.165.165v.494c0,2.141,0,3.871.082,4.859.082.659.247,1.071.906,1.153a4.726,4.726,0,0,0,.988.082c.165,0,.165.082.165.165s-.082.165-.329.165c-1.235,0-2.718-.082-2.883-.082,0,0-1.565.082-2.306.082-.247,0-.329-.082-.329-.165a.177.177,0,0,1,.165-.165c.247,0,.494-.082.741-.082.412-.082.494-.494.577-1.153a36.835,36.835,0,0,0,.165-4.859v-3.789Zm1.977,1.894a.428.428,0,0,0,.165.329,8.667,8.667,0,0,0,2.553.329,2.7,2.7,0,0,0,1.73-.412c.824-.494,1.4-1.73,1.4-3.459,0-2.8-1.565-4.365-4.036-4.365a7.211,7.211,0,0,0-1.647.165c-.082.082-.165.165-.165.247Z" transform="translate(-300.128 -116.871)"/>
      <path id="Path_16" data-name="Path 16" class="cls-1" d="M345.624,116.8c5.189,0,9.142,3.212,9.142,8.4a8.959,8.959,0,0,1-9.307,9.142,8.6,8.6,0,0,1-9.06-8.813A8.91,8.91,0,0,1,345.624,116.8Zm.494,16.637c2.059,0,6.259-1.071,6.259-7.577,0-5.353-3.294-8.236-6.918-8.236-3.871,0-6.671,2.388-6.671,7.33C338.788,130.142,342,133.437,346.119,133.437Z" transform="translate(-303.868 -116.8)"/>
      <path id="Path_17" data-name="Path 17" class="cls-1" d="M366.336,129.06c0,3.624-.082,5.024-.741,6.589a8.767,8.767,0,0,1-3.377,3.459c-.33.247-.741.412-.988.576h-.165c-.082,0-.165,0-.165-.165s.082-.247.329-.329a7.131,7.131,0,0,0,.824-.577c1.482-1.483,2.224-2.636,2.224-8.4v-6.506c0-3.459,0-4.118-.082-4.859s-.165-1.153-.988-1.235c-.165,0-.576-.082-.824-.082a.177.177,0,0,1-.165-.165c0-.165.082-.165.329-.165,1.071,0,2.553.082,2.718.082.082,0,1.565-.082,2.306-.082.247,0,.329.082.329.165a.177.177,0,0,1-.165.165,1.609,1.609,0,0,0-.577.082c-.659.165-.741.412-.824,1.235V129.06Z" transform="translate(-308.19 -116.871)"/>
      <path id="Path_18" data-name="Path 18" class="cls-1" d="M376.259,123.671c0-3.459,0-4.118-.082-4.859s-.165-1.153-.988-1.235c-.165,0-.577-.082-.823-.082a.177.177,0,0,1-.165-.165c0-.165.082-.165.329-.165,1.071,0,2.553.082,2.718.082h5.518a3.225,3.225,0,0,0,1.071-.165c.082,0,.247-.082.329-.082s.082.082.082.247a4.628,4.628,0,0,0-.165,1.071,9.065,9.065,0,0,1-.165,1.483.263.263,0,0,1-.247.247c-.165,0-.165-.082-.165-.329a1.791,1.791,0,0,0-.165-.824c-.165-.329-.412-.494-1.647-.659-.412-.082-3.047-.082-3.377-.082-.082,0-.165.082-.165.247v6.095c0,.165,0,.247.165.247.329,0,3.377,0,3.871-.082.577-.082.906-.082,1.153-.329.165-.165.247-.329.329-.329a.177.177,0,0,1,.165.165,6.009,6.009,0,0,0-.165,1.235,10.566,10.566,0,0,0-.082,1.482c0,.165-.082.412-.247.412-.082,0-.165-.082-.165-.247a2.54,2.54,0,0,0-.082-.741c-.082-.329-.329-.576-1.153-.659-.659-.082-3.13-.082-3.542-.082-.165,0-.165.082-.165.165v5.683c.082,1.482.494,1.812,2.8,1.812a7.344,7.344,0,0,0,2.306-.247,1.8,1.8,0,0,0,1.071-1.565c.082-.247.082-.329.247-.329s.165.165.165.329a13.713,13.713,0,0,1-.329,2.141c-.165.576-.412.576-1.318.576-1.73,0-3.047-.082-4.036-.082-.988-.082-1.565-.082-1.894-.082h-.988c-.412,0-.988.082-1.318.082-.247,0-.329-.082-.329-.165a.177.177,0,0,1,.165-.165c.247,0,.494-.082.741-.082.412-.082.494-.494.577-1.153a36.816,36.816,0,0,0,.165-4.859v-3.953Z" transform="translate(-310.536 -116.835)"/>
      <path id="Path_19" data-name="Path 19" class="cls-1" d="M394,131.954a8.335,8.335,0,0,1-2.8-6.671,8.829,8.829,0,0,1,2.635-6.095c1.4-1.318,3.542-2.388,7.083-2.388a26.071,26.071,0,0,1,3.377.247,13.754,13.754,0,0,0,2.388.329c.247,0,.329.082.329.247a9.817,9.817,0,0,0-.082,1.235,18,18,0,0,1-.082,2.306c0,.329-.165.494-.247.494-.165,0-.165-.165-.165-.494a2.708,2.708,0,0,0-.988-2.224,7.636,7.636,0,0,0-4.53-1.235c-2.965,0-4.365.824-5.189,1.565-1.73,1.565-2.059,3.624-2.059,5.848a8.155,8.155,0,0,0,8.318,8.154c1.729,0,2.883-.165,3.789-1.071a4.4,4.4,0,0,0,.906-1.894c.082-.247.082-.329.247-.329a.368.368,0,0,1,.247.329,21.764,21.764,0,0,1-.577,2.883c-.165.412-.165.494-.576.659a15.465,15.465,0,0,1-4.2.494C398.118,134.343,395.812,133.519,394,131.954Z" transform="translate(-313.535 -116.8)"/>
      <path id="Path_20" data-name="Path 20" class="cls-1" d="M421.165,127.624c0,2.141,0,3.953.082,4.859.082.659.165,1.071.906,1.153a5.067,5.067,0,0,0,1.071.082c.165,0,.165.082.165.165s-.082.165-.329.165c-1.236,0-2.718-.082-2.883-.082-.082,0-1.73.082-2.389.082-.247,0-.329-.082-.329-.165a.177.177,0,0,1,.165-.165c.247,0,.494-.082.659-.082.494-.082.576-.577.659-1.235.082-.906.082-2.718.082-4.859v-9.389l-3.377.082c-1.482,0-1.977.165-2.306.741-.247.412-.329.577-.329.741q-.124.247-.247.247a.177.177,0,0,1-.165-.165,20.406,20.406,0,0,1,.494-2.388c0-.165.165-.412.247-.412.165,0,.412.165.988.247a16.753,16.753,0,0,0,1.812.082h8.73c.741,0,1.318-.082,1.647-.082a2.649,2.649,0,0,1,.659-.082c.082,0,.082.165.082.247,0,.659-.082,2.306-.082,2.553,0,.165-.082.329-.247.329-.082,0-.165-.082-.165-.412v-.247c-.082-.659-.577-1.153-2.8-1.235l-2.883-.082v9.307Z" transform="translate(-317.31 -116.835)"/>
    </g>
    <g id="Group_7" data-name="Group 7" transform="translate(273.27 19.107)">
      <path id="Path_21" data-name="Path 21" class="cls-1" d="M340.365,33.842c0,2.141,0,3.953.082,4.859.082.659.165,1.071.906,1.153a5.065,5.065,0,0,0,1.071.082c.165,0,.165.082.165.165s-.082.165-.329.165c-1.236,0-2.718-.082-2.883-.082-.082,0-1.73.082-2.388.082-.247,0-.329-.082-.329-.165a.177.177,0,0,1,.165-.165c.247,0,.494-.082.659-.082.494-.082.577-.577.659-1.235.082-.906.082-2.718.082-4.859V24.453l-3.377.082c-1.482,0-1.977.165-2.306.741-.247.412-.329.577-.329.741q-.124.247-.247.247a.177.177,0,0,1-.165-.165,20.393,20.393,0,0,1,.494-2.388c0-.165.165-.412.247-.412.165,0,.412.165.988.247a16.754,16.754,0,0,0,1.812.082h8.73c.741,0,1.318-.082,1.647-.082a2.648,2.648,0,0,1,.659-.082c.082,0,.082.165.082.247,0,.659-.082,2.306-.082,2.553,0,.165-.082.329-.247.329-.082,0-.165-.082-.165-.412v-.247c-.082-.659-.577-1.153-2.8-1.235l-2.883-.082v9.224Z" transform="translate(-331.8 -23.218)"/>
      <path id="Path_22" data-name="Path 22" class="cls-1" d="M369.325,33.842a36.843,36.843,0,0,0,.165,4.859c.082.659.165,1.071.824,1.153a4.726,4.726,0,0,0,.988.082c.165,0,.247.082.247.165s-.165.165-.412.165c-1.235,0-2.718-.082-2.883-.082-.082,0-1.647.082-2.306.082-.247,0-.329-.082-.329-.165a.177.177,0,0,1,.165-.165c.247,0,.494-.082.659-.082.494-.082.576-.577.659-1.235.082-.906.082-2.636.082-4.777V31.618a.177.177,0,0,0-.165-.165h-9.636c-.083,0-.165,0-.165.165v2.224c0,2.141,0,3.871.082,4.777.083.659.165,1.071.824,1.153a5.066,5.066,0,0,0,1.071.082c.165,0,.165.082.165.165s-.082.165-.329.165c-1.318,0-2.8-.082-2.883-.082-.165,0-1.647.082-2.306.082-.247,0-.329-.082-.329-.165a.177.177,0,0,1,.165-.165c.247,0,.494-.082.741-.082.412-.082.494-.494.576-1.153a36.8,36.8,0,0,0,.165-4.859V29.806c0-3.459,0-4.118-.082-4.859s-.165-1.153-.989-1.235c-.165,0-.577-.082-.824-.082a.177.177,0,0,1-.165-.165c0-.165.082-.165.329-.165,1.071,0,2.553.082,2.635.082s1.565-.082,2.306-.082c.247,0,.329.082.329.165a.177.177,0,0,1-.165.165,1.608,1.608,0,0,0-.577.082c-.659.165-.741.412-.824,1.235v5.518c0,.165.082.165.165.165h9.719c.082,0,.165,0,.165-.165v-.494c0-3.459,0-4.2-.082-4.859-.082-.741-.165-1.153-.906-1.235-.165,0-.576-.082-.824-.082a.177.177,0,0,1-.165-.165c0-.165.082-.165.329-.165.988,0,2.553.082,2.636.082.165,0,1.647-.082,2.306-.082.247,0,.412.082.412.165s-.082.165-.247.165a1.608,1.608,0,0,0-.576.082c-.577.165-.741.412-.824,1.235-.082.741-.082,1.318-.082,4.859v3.871Z" transform="translate(-335.557 -23.218)"/>
      <path id="Path_23" data-name="Path 23" class="cls-1" d="M381.559,29.871c0-3.459,0-4.118-.082-4.859s-.165-1.153-.988-1.235c-.165,0-.576-.082-.824-.082a.177.177,0,0,1-.165-.165c0-.165.082-.165.329-.165,1.071,0,2.553.082,2.718.082h5.518a3.227,3.227,0,0,0,1.071-.165c.082,0,.247-.082.329-.082s.082.082.082.247a4.631,4.631,0,0,0-.165,1.071A9.071,9.071,0,0,1,389.218,26a.263.263,0,0,1-.247.247c-.165,0-.165-.082-.165-.329a1.791,1.791,0,0,0-.165-.824c-.165-.329-.412-.494-1.647-.659-.412-.082-3.047-.082-3.377-.082-.082,0-.165.082-.165.247v6.095c0,.165,0,.247.165.247.329,0,3.377,0,3.871-.082.576-.082.906-.082,1.153-.329.165-.165.247-.329.329-.329a.177.177,0,0,1,.165.165,6.008,6.008,0,0,0-.165,1.235,10.567,10.567,0,0,0-.082,1.482c0,.165-.082.412-.247.412-.082,0-.165-.082-.165-.247a2.538,2.538,0,0,0-.082-.741c-.082-.329-.329-.577-1.153-.659-.659-.082-3.13-.082-3.541-.082-.165,0-.165.082-.165.165v5.683c.082,1.482.494,1.812,2.8,1.812a7.344,7.344,0,0,0,2.306-.247,1.8,1.8,0,0,0,1.071-1.565c.082-.247.082-.329.247-.329s.165.165.165.329a13.694,13.694,0,0,1-.329,2.141c-.165.577-.412.577-1.318.577-1.73,0-3.047-.082-4.036-.082-.988-.082-1.565-.082-1.894-.082h-.988c-.412,0-.988.082-1.318.082-.247,0-.329-.082-.329-.165a.177.177,0,0,1,.165-.165c.247,0,.494-.082.741-.082.412-.082.494-.494.577-1.153a36.836,36.836,0,0,0,.165-4.859V29.871Z" transform="translate(-340.214 -23.2)"/>
    </g>
    <line id="Line_1" data-name="Line 1" class="cls-2" x2="96.855" transform="translate(137.294 103.279)"/>
    <path id="Path_87" data-name="Path 87" class="cls-3" d="M0,0H102.7" transform="translate(360.983 103.279)"/>
    <line id="Line_3" data-name="Line 3" class="cls-4" x2="121.563" transform="translate(137.294 25.86)"/>
    <line id="Line_4" data-name="Line 4" class="cls-5" x2="126.752" transform="translate(337.923 25.86)"/>
    <path id="Path_24" data-name="Path 24" class="cls-1" d="M61.9,37.582v.082l.412-.165Z" transform="translate(-10.919 -6.616)"/>
    <path id="Path_25" data-name="Path 25" class="cls-1" d="M77.082,65.3c-.082,0-.082.082-.082.247C77.412,65.547,76.918,65.547,77.082,65.3Z" transform="translate(-13.583 -11.52)"/>
    <path id="Path_26" data-name="Path 26" class="cls-1" d="M97.8,51.2Z" transform="translate(-17.252 -9.032)"/>
    <path id="Path_27" data-name="Path 27" class="cls-1" d="M99.5,49.482h0c.082,0,.082,0,.082-.082Z" transform="translate(-17.552 -8.715)"/>
    <path id="Path_28" data-name="Path 28" class="cls-1" d="M107.9,38.282h0v0Z" transform="translate(-19.034 -6.739)"/>
    <path id="Path_29" data-name="Path 29" class="cls-1" d="M78.3,65.7v0Z" transform="translate(-13.812 -11.59)"/>
    <path id="Path_30" data-name="Path 30" class="cls-1" d="M89.5,62.5Z" transform="translate(-15.788 -11.026)"/>
    <path id="Path_31" data-name="Path 31" class="cls-1" d="M92,61.5Z" transform="translate(-16.229 -10.849)"/>
    <path id="Path_32" data-name="Path 32" class="cls-1" d="M84.4,64.1Z" transform="translate(-14.888 -11.308)"/>
    <path id="Path_33" data-name="Path 33" class="cls-1" d="M84.812,64.447c.082.082.082.329.165.247,0-.247-.329-.494-.577-.494h0a.3.3,0,0,1,.082.247C84.647,64.447,84.812,64.612,84.812,64.447Z" transform="translate(-14.888 -11.326)"/>
    <path id="Path_34" data-name="Path 34" class="cls-1" d="M84.5,64.665c.082-.082.082-.082.082-.165C84.5,64.5,84.5,64.5,84.5,64.665Z" transform="translate(-14.906 -11.379)"/>
    <path id="Path_35" data-name="Path 35" class="cls-1" d="M77.5,65.1a.993.993,0,0,0,.412.412C77.829,65.182,77.582,65.182,77.5,65.1Z" transform="translate(-13.671 -11.484)"/>
    <path id="Path_36" data-name="Path 36" class="cls-1" d="M84.265,64.282,84.1,64.2c0,.082.082.165,0,.247C84.265,64.529,84.265,64.365,84.265,64.282Z" transform="translate(-14.835 -11.326)"/>
    <path id="Path_37" data-name="Path 37" class="cls-1" d="M85.3,64.194c.165-.082.329-.329.247-.494Z" transform="translate(-15.047 -11.237)"/>
    <path id="Path_38" data-name="Path 38" class="cls-1" d="M87.4,63.8a.3.3,0,0,0,.082.247C87.565,63.965,87.565,63.882,87.4,63.8Z" transform="translate(-15.417 -11.255)"/>
    <path id="Path_39" data-name="Path 39" class="cls-1" d="M87.5,63.3c0,.082.082.082,0,0Z" transform="translate(-15.435 -11.167)"/>
    <path id="Path_40" data-name="Path 40" class="cls-1" d="M87.2,63.293c.082.247.165.082.247.082C87.365,63.293,87.282,63.21,87.2,63.293Z" transform="translate(-15.382 -11.16)"/>
    <path id="Path_41" data-name="Path 41" class="cls-1" d="M90.5,62.27c.082.247.165-.165.247-.082C90.582,62.023,90.5,62.27,90.5,62.27Z" transform="translate(-15.964 -10.961)"/>
    <path id="Path_42" data-name="Path 42" class="cls-1" d="M91.782,61.2a.081.081,0,0,1-.082.082l.165.165A.407.407,0,0,0,91.782,61.2Z" transform="translate(-16.176 -10.796)"/>
    <path id="Path_43" data-name="Path 43" class="cls-1" d="M111.165,41.065V40.9H111Z" transform="translate(-19.581 -7.215)"/>
    <path id="Path_44" data-name="Path 44" class="cls-1" d="M83.184,56.1h0C83.267,56.182,83.267,56.1,83.184,56.1Z" transform="translate(-14.661 -9.897)"/>
    <path id="Path_45" data-name="Path 45" class="cls-1" d="M81.1,56.8Z" transform="translate(-14.306 -10.02)"/>
    <path id="Path_46" data-name="Path 46" class="cls-1" d="M81.065,56.782A.288.288,0,0,1,80.9,56.7c.082.082.329.082.412.082h0c-.082,0-.082-.082-.165-.082C81.065,56.782,80.982,56.782,81.065,56.782Z" transform="translate(-14.271 -10.003)"/>
    <path id="Path_47" data-name="Path 47" class="cls-1" d="M78.292,65.1Z" transform="translate(-13.804 -11.484)"/>
    <path id="Path_48" data-name="Path 48" class="cls-1" d="M82.7,56.1Z" transform="translate(-14.588 -9.897)"/>
    <path id="Path_49" data-name="Path 49" class="cls-1" d="M80.6,57.7Z" transform="translate(-14.218 -10.179)"/>
    <path id="Path_50" data-name="Path 50" class="cls-1" d="M81.4,56.9Z" transform="translate(-14.359 -10.038)"/>
    <path id="Path_51" data-name="Path 51" class="cls-1" d="M78.7,64.4Z" transform="translate(-13.883 -11.361)"/>
    <path id="Path_52" data-name="Path 52" class="cls-1" d="M78.4,65.7Z" transform="translate(-13.83 -11.59)"/>
    <path id="Path_53" data-name="Path 53" class="cls-1" d="M82.287,61.5Z" transform="translate(-14.505 -10.849)"/>
    <path id="Path_54" data-name="Path 54" class="cls-1" d="M83,56.4Z" transform="translate(-14.641 -9.95)"/>
    <path id="Path_55" data-name="Path 55" class="cls-1" d="M83.229,56.182c-.082,0-.247-.082-.329-.082C82.982,56.182,83.065,56.182,83.229,56.182Z" transform="translate(-14.624 -9.897)"/>
    <path id="Path_56" data-name="Path 56" class="cls-1" d="M81.292,56.8c.082.082.165.082,0,0Z" transform="translate(-14.334 -10.02)"/>
    <path id="Path_57" data-name="Path 57" class="cls-1" d="M81,56.9l.165.165Z" transform="translate(-14.288 -10.038)"/>
    <path id="Path_58" data-name="Path 58" class="cls-1" d="M80.565,57.182c-.082,0-.082-.082-.165-.082C80.482,57.182,80.482,57.182,80.565,57.182Z" transform="translate(-14.183 -10.073)"/>
    <path id="Path_59" data-name="Path 59" class="cls-1" d="M80.8,57.3Z" transform="translate(-14.253 -10.108)"/>
    <path id="Path_60" data-name="Path 60" class="cls-1" d="M80.8,57.292h.082C80.713,57.21,80.8,57.292,80.8,57.292Z" transform="translate(-14.249 -10.101)"/>
    <path id="Path_61" data-name="Path 61" class="cls-1" d="M80.295,57.792c.082.082.082,0,0,0C80.213,57.71,80.377,57.792,80.295,57.792Z" transform="translate(-14.16 -10.189)"/>
    <path id="Path_62" data-name="Path 62" class="cls-1" d="M80.365,58.1h0Z" transform="translate(-14.147 -10.25)"/>
    <path id="Path_63" data-name="Path 63" class="cls-1" d="M79,63.1l.082.082h0Z" transform="translate(-13.936 -11.132)"/>
    <path id="Path_64" data-name="Path 64" class="cls-1" d="M78.1,65.195s.165.082.082,0C78.182,65.277,78.1,65.113,78.1,65.195Z" transform="translate(-13.777 -11.497)"/>
    <path id="Path_65" data-name="Path 65" class="cls-1" d="M78.9,66.865h0l.082-.165Z" transform="translate(-13.918 -11.767)"/>
    <g id="Group_8" data-name="Group 8" transform="translate(16.962 -0.004)">
      <path id="Path_66" data-name="Path 66" class="cls-1" d="M82.965,27.465h0c.082,0,.165-.082.082,0,.082,0,.082,0,.082-.082l.082.082-.165-.165h0c-.082,0-.165.082-.247.082l.082.082C82.882,27.547,82.965,27.465,82.965,27.465Z" transform="translate(-31.568 -4.813)"/>
      <path id="Path_67" data-name="Path 67" class="cls-1" d="M82.7,27.5Z" transform="translate(-31.55 -4.848)"/>
      <path id="Path_68" data-name="Path 68" class="cls-1" d="M84.2,29.5Z" transform="translate(-31.815 -5.201)"/>
      <path id="Path_69" data-name="Path 69" class="cls-1" d="M84.3,29.4v.082h0V29.4Z" transform="translate(-31.833 -5.183)"/>
      <path id="Path_70" data-name="Path 70" class="cls-1" d="M60.182,27.392c-.082-.082-.082,0-.082,0h.082Z" transform="translate(-27.564 -4.822)"/>
      <path id="Path_71" data-name="Path 71" class="cls-1" d="M81.1,26.5Z" transform="translate(-31.268 -4.672)"/>
      <path id="Path_72" data-name="Path 72" class="cls-1" d="M83.1,27.6h0c0,.082.165.165,0,0Z" transform="translate(-31.621 -4.866)"/>
      <path id="Path_73" data-name="Path 73" class="cls-1" d="M83,27.7Z" transform="translate(-31.603 -4.883)"/>
      <path id="Path_74" data-name="Path 74" class="cls-1" d="M83.987,24.2Z" transform="translate(-31.766 -4.266)"/>
      <path id="Path_75" data-name="Path 75" class="cls-1" d="M60.082,27.565c0-.082,0-.082-.082-.165h0c.082.082.082.082.082.165Z" transform="translate(-27.546 -4.83)"/>
      <path id="Path_76" data-name="Path 76" class="cls-1" d="M113.6,34.4c.082.082.082.082.082,0H113.6Z" transform="translate(-37.001 -6.065)"/>
      <path id="Path_77" data-name="Path 77" class="cls-1" d="M82.082,30.9a.081.081,0,0,1-.082.082h.082Z" transform="translate(-31.427 -5.448)"/>
      <path id="Path_78" data-name="Path 78" class="cls-1" d="M113.687,33.782V33.7C113.6,33.7,113.6,33.782,113.687,33.782Z" transform="translate(-37.006 -5.942)"/>
      <path id="Path_79" data-name="Path 79" class="cls-1" d="M78.782,65.782A.081.081,0,0,0,78.7,65.7l.082.082Z" transform="translate(-30.845 -11.586)"/>
      <path id="Path_80" data-name="Path 80" class="cls-1" d="M81.9,62.3Z" transform="translate(-31.409 -10.987)"/>
      <path id="Path_81" data-name="Path 81" class="cls-1" d="M107.818,12.93c-6.177-7.165-47.027-23.884-85.654-2.224-3.624,18.119.165,35.579.165,35.579,13.589,6.095,12.436,14.084,13.507,19.19,26.108-4.283,54.852,0,54.852,0C91.758,49,104.277,47.109,104.277,47.109S111.524,17.295,107.818,12.93Zm-11.53,5.353-.329.165.329-.165Zm-23.473-.247h-.247Q72.692,17.789,72.815,18.036Zm-1.153-2.718c-.082.082.329.165.082.247C71.662,15.483,71.5,15.483,71.662,15.318ZM52.8,26.684c0-.082.247,0,.165-.082C53.131,26.6,52.8,26.6,52.8,26.684Zm15.237-4.036.247-.247c0-.165-.165.082-.247.082-.082.082.082,0-.082.082-.082,0,0-.165-.165,0l.247-.247h-.082c.165-.165.412-.165.577-.494H68.45c.165-.165.247-.082.247-.247-.082,0-.329.247-.412.329-.082,0-.412.329-.494.247.082-.082.082,0,.165-.082.082-.165-.165,0-.082-.082,0,.082-.247.165-.247.247.082-.082.165-.082.165-.165-.082.082-.247.082-.247.165-.247.165,0-.082-.165,0,.165-.165.412-.247.412-.412-.165.165-.247.082-.412.329,0-.082.165-.165.247-.247s-.329.165-.082-.082l-.165.082c0-.082.082-.082.165-.165,0,0-.247.082-.082-.082,0,0-.082-.082-.247.082-.082.082.165-.082,0,.165.165-.165-.082,0-.165,0l.082-.082h-.165a.081.081,0,0,0,.082-.082v.165c-.082,0,.247-.247.165-.247l.165-.082s.082-.082,0-.082c-.165.082-.247.165-.412.247-.082,0,.082-.165,0-.082l.165-.082c.082,0,.165-.165.165-.247-.082,0-.247.165-.329.247,0,0,0-.082.165-.165-.082,0-.082.082-.247.165.082-.082.165-.247.247-.329l.247-.165h0c.165-.082.082-.165.329-.247,0-.082-.082,0-.165,0-.247.329-.412.247-.659.494-.165,0,.577-.577.082-.329,0,.082-.165.165-.165.165-.082,0-.247.165-.165.082.165-.082.247-.247.412-.329-.082.082,0,.082,0,.082l.247-.247c-.082,0-.082-.082-.247.082-.165.082.082,0-.082.165-.082,0,.082-.247-.165,0,.082,0-.082.165-.165.247h-.082l.082-.082c0-.165-.165.165-.247,0L66.556,21c.165-.165,0,.165.247-.082,0-.082-.165.082-.165-.082h.082s.329-.329.082-.247c-.082,0-.082.082-.165.165-.082-.082-.247,0-.247,0,.165-.165-.082-.082.165-.247-.082.082,0,.247.247.082.165-.247,0,.082.247-.082-.082-.082.165-.247.329-.412H67.3c-.165.082-.082.165-.247.247,0-.082-.165-.082-.329,0,.082-.082.165-.165.247-.165-.082,0-.165-.165-.165-.247-.165.247-.165,0-.247.082l.247-.247c-.165,0,.165-.082.082-.165-.165,0-.247.082-.329,0,.082-.247-.165-.165-.247-.247.082-.082.247-.247.247-.329,0,0-.165.247-.165.082h.082c-.082,0,0-.247-.247,0l.247-.165h-.082c.082-.082.082-.165.165-.165.082-.165-.082-.082-.165-.082l-.329.247c-.165,0-.082-.165-.165-.165l.165-.082h-.082c.082-.082.165-.165.082-.165l.329-.165c-.082.082-.165.082-.247.247-.082.082,0,.165.082.082h-.082c.165-.165.165-.082.329-.165h.165c-.082,0-.082.082-.165.165.165-.165.247-.165.247-.082-.165.165.165,0,.165.082a1.8,1.8,0,0,0-.412.247c-.082.082.082,0,0,.165.165-.082.329-.247.412-.247l-.082.082c.082,0,.247-.165.247-.082a.428.428,0,0,0,.165.329H67.05c.247-.165.165.082.329,0,0,.165.247.082.165.329a1.327,1.327,0,0,1,.577.329l-.165.082c.165-.082-.082.082,0,.082.082-.165.165-.082.329-.165-.082.165.165.165.329.165l-.082.082c.247-.082.165.082.165.247,0,.082-.165.165-.082.165a.9.9,0,0,1,.412-.082.154.154,0,0,1,0,.247c.412-.082.412.247.741.329l-.082.165c.412-.082.412.412.659.412l-.247.165c0,.082.165.082.329-.082,0,.082,0,.082.082.082,0-.165-.082-.329-.082-.494l.247-.082c-.577,0-.329-.494-.659-.659.165-.412-.494-.741-.082-1.071a4.989,4.989,0,0,1-.906-1.73h.412c-.329,0,.165-.165.082-.247-.247.247-.412,0-.659,0,.165-.412-.329-.659-.659-.741l.247-.165c-.577,0-.329-.494-.412-.824.082-.082.247-.247.165-.329-.412.082-.494-.082-.824-.082-.082-.082-.082-.165-.165-.329,0-.165-.082-.247-.082-.412a4.015,4.015,0,0,1-.577-.247c-.165-.082-.247-.247-.412-.329a1.709,1.709,0,0,0-.824-.494l.165-.247a1.346,1.346,0,0,1-.577,0c-.165,0-.247-.165-.412-.165-.082,0-.082-.082-.165-.082a.288.288,0,0,1-.165-.082c-.165,0-.247-.082-.329,0L64,12.436c-.165-.165-.329.082-.329.412-.082-.082-.165,0-.247,0s-.165,0-.165-.165c-.165-.082-.165.247-.247.329a.623.623,0,0,0-.329-.082c-.082,0-.082,0-.165.082a.081.081,0,0,0-.082.082v.082h-.082a.081.081,0,0,0,.082-.082c0-.082-.082-.247-.165-.247-.082.165-.494,0-.165.577-.165-.165-.329,0-.494.165-.165.082-.329.247-.577.165a.5.5,0,0,1,.082.329c-.082,0-.165.082-.247.082h0s.165-.082.082-.082h-.082c-.082,0-.082,0-.165.082-.082,0-.165.082-.247.165l-.082.082v.082c-.082-.082-.082-.247-.165-.247,0,.082.165.165.082.329,0,.082,0,.082-.082.165l-.082.082a.081.081,0,0,0-.082.082c-.082.082-.247.082-.329.165a.624.624,0,0,0-.329.165c-.082.082-.247.082-.247.247-.082.165-.165.412-.247.577-.082.082-.082.165-.165.247s-.082.165-.165.247a6.806,6.806,0,0,0-.577,1.071l-.329-.329c.165.247,0,.329-.165.412s-.247.247,0,.494c-.165,0-.165.247-.329.082.082.165,0,.247-.082.412a.362.362,0,0,0-.082.412h0c0,.082.082.082,0,.082a.081.081,0,0,0-.082-.082c-.329.247-.082.659-.412.906l-.165-.165c-.247.082.412.412-.165.412,0,.082.247.082.247.082-.412.741-.082,1.647,0,2.471-.412.577-.988,0-.577.494h.082c.165.165-.659.247-.329.412.329-.082.165.082.412.082-.247.329-.577.412-.329.741H55.52c.577.329.247.741.906.988A16,16,0,0,0,57,28.249c.165.412.247.824.412,1.318.165.412.247.824.412,1.235.082.247.082.494.165.741l.082.329.082.165.082.165.247.577c.082.165.165.412.247.577l.494,1.235a6.171,6.171,0,0,1,.412,1.318c-.247.577-.247.659.165.988-.082,0-.082,0-.165.082.412-.165.165.247.577.165.165.329.329.577.494.906.165.247.412.577.577.824-.082-.082-.412.082-.329.165h.329l-.082.082c.082.082.329,0,.412-.165a5.287,5.287,0,0,1,.824,1.071c.082.165.247.412.329.577s.247.412.329.577a2.064,2.064,0,0,0,.329.577c.082.165.247.412.329.577a5.287,5.287,0,0,0,.824,1.071,2.5,2.5,0,0,0,1.071.988,5,5,0,0,0,2.471,3.13s-.824.659-1.4.494a1.225,1.225,0,0,1-1.235-.577c-.329-.329-.577-.741-1.071-.824-.082,0,.412-.329.165-.412a1.349,1.349,0,0,1-1.235-.824,3.947,3.947,0,0,1-.577-1.647l.165-.082c0-.247-.577-.082-.659-.247.082-.082.165,0,.247-.165-.247.165-.329-.165-.577-.082,0-.165.247-.247.247-.412l-.659.082c-.824.247-.412-.659-.988-.741.082,0,.165,0,.165-.082-.824-.247-1.235-1.071-1.812-1.565a1.1,1.1,0,0,0,.412-.247c-.329.165-.494,0-.659-.165.247-.247-.494-.165-.412-.412h.082c-.412,0,.082-.329-.412-.247l.165-.247c-.494.165.082-.329-.165-.329l-.165-.082c-.165-.082,0-.247-.082-.329h.082c-.247-.247-.082-.494-.412-.329.247-.247.247.165.577-.165a3.646,3.646,0,0,1-.988-1.235c-.247-.494-.412-.906-.659-1.4a1.137,1.137,0,0,1,.247-.329c-.165-.082-.247-.329-.494-.329l.165-.165c.082-.247-.494,0-.412-.247a.743.743,0,0,0,.412-.082,1.051,1.051,0,0,1-.577-.412c.082,0,.165.082.247,0-.412-.082-.082-.412-.329-.494h.247c.165-.412-.494.082-.412-.247H55.6c-.494-.082-.494-.577-.659-.741h.082c-.082-.165-.082-.247-.165-.412a1.1,1.1,0,0,0-.247-.412c.082-.165.577-.082.412-.329-.412.165-.329-.412-.741-.165,0-.247.082-.659-.082-.824.165.082.494-.247.577,0l.247-.165c.165,0,0,.165.165.082a.939.939,0,0,1-.247-.494c-.329-.165-.906-.247-.988-.494.165.082.412-.082.577-.082a1.392,1.392,0,0,1-.412-.165l-.494-.165c0-.082.329-.082.247-.247a.5.5,0,0,1-.329-.082c.082-.082-.165-.412.247-.494.165-.082.082.165.247,0,0-.165-.165-.165-.247-.412h.082c.082-.165-.247-.329-.494-.165,0,.082.247-.082.165.082-.247-.082-.329-.247-.412-.494.082.082.165.082.329.082a2.668,2.668,0,0,1-.659-.741h0a.83.83,0,0,1,.247.082c.247-.412-.412-.741-.082-1.071h-.247c0-.165.329-.165.247-.329.165,0-.082-.165-.082-.247-.082-.082,0-.082.082,0a1.283,1.283,0,0,1-.082-1.235.58.58,0,0,1-.412-.329l.247.082a.081.081,0,0,0,.082-.082h0c0-.082,0-.082.082-.165h0c-.082-.165-.165-.247,0-.412-.082.082.412.165.412,0,0-.247-.165-.082-.165-.329l-.082-.165c-.247,0,0-.247-.247-.165.165-.082-.082-.412.329-.329l.329.082c0-.082-.329-.247-.494-.329h.165c-.577-.082.082-.247-.329-.494.247-.247.082-.577.494-.659-.165-.247-.329-.412-.165-.577,0,.082.082.082.165.165.165-.082.082-.165,0-.329.082.082.412-.165.577-.247-.082-.247-.412-.247-.577-.329.577,0-.165-.577.329-.659.082.082.165.329.329.247.577,0-.247-.412.082-.659l-.494-.082c.329,0-.082-.494.329-.329-.082-.165.247-.247-.165-.412a1.132,1.132,0,0,0,.412-.659c.082-.247.247-.412.659-.412,0-.082.082-.247-.082-.247-.247,0,.082.247-.082.165a.177.177,0,0,0-.165-.165c.165-.082.247-.165.494.082.412-.165-.494-.659-.165-.906q.247.124.247,0l-.165-.329c.247-.165.412.082.741.247,0-.165.165-.247,0-.494l.412.082c-.329-.082-.082-.165-.082-.329v.082c.412.082.412-.165.412-.247-.165-.082-.329,0-.412,0-.082-.165,0-.247-.082-.412.247.247.329-.082.412-.082.165-.082-.082-.329-.082-.329.082.082.165-.165.247.082,0,.082-.165,0-.165.165.165,0,.329.165.329-.082,0-.165-.494-.412-.165-.412,0,.082.082.165.165.329l.247-.082-.165-.165a.081.081,0,0,1,.082.082c-.165-.247.165-.329,0-.577.082-.082.329,0,.412-.082h0c.247,0,.247-.165.247-.412v.082a.3.3,0,0,0,.165-.412c.329,0,.659.824.659.412.165-.082-.082-.577-.247-.659.082,0,.165-.082.247-.082l.082-.082.082-.082h.082a.4.4,0,0,1,.577-.082c0-.165-.082-.165,0-.247a3.338,3.338,0,0,0,.741-.412c.165-.082.247-.082.412-.165a.617.617,0,0,1,.412.082c-.082.165.082.247.165.412.082-.247.247.165.165-.247-.082-.247-.082-.329-.329-.412a1.23,1.23,0,0,1,.577-.247c.247,0,.412,0,.494.082a.154.154,0,0,1,0-.247c.082.412.329.412.494.247V9.388l.165.247c.082-.082.082-.494.247-.329a.3.3,0,0,0,.082.247l.165-.165c.082-.082.165-.082.165-.165a.374.374,0,0,1,.412,0,.288.288,0,0,1,.082.165.288.288,0,0,0,.082.165c.082,0,.329-.247.165-.329.412.247.659.329.659.659a.935.935,0,0,1,.659-.247H65.4a.5.5,0,0,1,.329.082,2.544,2.544,0,0,1,1.153.577l-.082.165c.082.247.247-.165.329,0-.165.082-.082.412-.329.494.082.329.494-.082.659,0,.165-.165-.247,0,0-.165.082-.082.165.412.494.165,0,.165-.247.329-.412.412h.247a.452.452,0,0,1-.494.329c-.247.082-.412.165-.494.412l.165.082c-.165.412-.577.082-.412.412.247-.082.659-.329.659-.577.329.165.741-.577.988-.247-.082.247-.247-.165-.412.082-.082.329.329.165.412.329a.39.39,0,0,1,.494-.329c0,.247-.329.165-.165.329.165-.082.494,0,.412-.247.412-.247.082.329.494.165-.247.247-.741.247-.741.659.247-.247.577,0,.824-.412,0,.165-.165.329-.412.412-.082.247.741,0,.247.412l.329-.165c-.082.082-.082.247-.165.412.082.082.659.082.165.412.082,0,.247.247.412,0,.082-.247-.329-.082,0-.412-.247.329.165.247.412.247l-.165.082c.082,0,.165.165.329.082-.082,0-.247.082-.247.165l.329-.082c.247.165-.412.329-.165.494L70.344,14c.082,0-.165.247,0,.329.247-.082.577-.165.824-.247.165.082-.165.165,0,.165h-.329c-.082,0-.329.329-.247.494.165.082.577.082.577-.165.082.082,0,.329-.247.329.165.165.247-.165.494-.082a7.426,7.426,0,0,1-.412.741h-.494l.082.082c-.412,0-.247.165-.577.247,0,.082.165.165.247.165.412-.494.906-.082,1.318-.412.247.247-1.153.741-.165.741.082-.082.412-.082.412-.165a.081.081,0,0,1-.082-.082.081.081,0,0,1,.082.082c.165.082.494-.082.412.165-.247-.082-.412.412-.824.247.165-.082.082-.165,0-.247-.165.165-.494.165-.412.412.082.082.165.247.412.165.329-.082-.082-.165.247-.247.165.247-.247.412.329.329-.082-.165.165-.329.412-.412l.165.165h-.247c0,.329.412-.082.494.247l-.329.247c-.329.082,0-.494-.577-.247.082.165.329.165.247.412-.082,0-.082-.082-.165-.082,0,.082-.741.412-.165.494.247.082.247,0,.412-.082.165.247.412.329.494.494-.412.082.082.329-.412.247.247-.165,0-.659-.412-.577-.412.247,0-.247-.494-.165.082.247-.412.412-.659.577,0,.082.165.082.247.082.329-.082.247-.165.577-.247,0,.329.247.494.577.577a.388.388,0,0,1-.494.082,2.193,2.193,0,0,1,.247.988c.329-.247.247.165.412.165a1.171,1.171,0,0,1-.494.165c.247.165-.247.082-.247.247a1.3,1.3,0,0,1,.577.577l.247-.741h-.082c-.082,0,.082-.082.082-.082h.082a.288.288,0,0,1,.082-.165h-.247a.547.547,0,0,1,.412-.329,3.4,3.4,0,0,1,.577-.906c.329,0,.329,0,.329-.165l.082.082c-.247-.082,0-.082-.165-.247.165-.165.165-.412.247-.577,0,.082.165.165.165.082l-.082-.082h.082a.177.177,0,0,0-.165-.165c.082-.577.741-.906.988-1.4.165-.082.165-.247.165-.412.494-.247.906-.494.906-.988,0,0,.494.329.576.577.412.494-.247.494-.082.906,0,0-.247-.165-.247-.082.247.412-.165.659-.577.741l-.082-.082c-.082,0,.165.247.082.247s-.082-.082-.165-.082c.165.082,0,.165.082.247-.082,0-.165-.082-.247-.082l.165.082c.412.329-.165.165,0,.412l-.082-.082c.165.329,0,.494,0,.824-.082,0-.165-.082-.247-.165.165.082.165.165.165.247-.165-.082.165.165,0,.165h0c.165.165-.165,0,.082.165l-.165-.082c.247.165-.165,0-.082.082h.082c.082.082-.082,0-.082.082h0c0,.082-.165.082.082.165-.165-.082,0-.082-.329-.165a1.091,1.091,0,0,1-.247.906H74.3c0,.082,0,.082.082.165h-.165c-.082,0,.165.165.082.165l-.165-.165c.165.165.082.165.082.247l-.082-.082c.165.165-.082.082,0,.165l-.082-.082c-.165,0,.247.165.082.165a.288.288,0,0,0-.165-.082c.165.165.082.247.082.329h-.082c0,.082-.082.165-.082.247-.082,0-.329-.165-.329-.082.247.165,0,.165.329.247-.082.082-.247.082-.165.165a1.173,1.173,0,0,0-.329-.165h-.165c-.082-.082.082,0-.082-.082,0,0,.082.165,0,.165.082.165.412.329.329.412-.082-.082-.247-.082-.247-.165l.412.329s-.165-.082-.165,0c.082,0,.082.082.165.082,0,0,0,.165-.247,0-.082,0,0-.082-.165-.082,0,.082.082.082,0,.165h0c-.082,0,.082.165.165.165h0s-.165-.082-.082-.082a.081.081,0,0,1,.082.082.255.255,0,0,1,.082.165.288.288,0,0,0-.165-.082,1.1,1.1,0,0,1,.247.412h0c-.082,0-.082-.082-.165-.082-.165,0,.082.247-.165.329,0,0,.165.082.082.082-.082.082-.165-.082-.165,0-.082-.082,0,.082,0,.165h0c0,.165,0,.494-.165.494.082.082.165.329.082.329L72.98,23.8H72.9c0,.082,0,.165-.082.165,0,0-.082-.247-.165-.247v.329c.082.165-.082.082.082.165-.082-.082,0,.247-.165-.082l-.082-.247a1.708,1.708,0,0,0,.165.494l-.082-.082c.165.412-.082.082,0,.412-.082-.082-.165.247-.247,0,0,.165,0,.412-.082.412v-.165c-.082-.082,0,.082,0,.165,0-.082-.082-.165-.165-.329,0,.247.082.494.082.659-.082-.247-.082-.082-.082.082s0,.329-.082.082c0-.082,0-.329-.082-.412-.082-.247-.082-.082-.082.082v.329l.082.412c0-.082,0,0-.082.082l-.082-.247c0,.165-.082-.247-.082.165a.88.88,0,0,0-.247-.412c-.082-.082-.165-.165-.165-.577,0,.082-.082-.082-.082.165s.082-.082.082.082v.165c0-.165-.082-.165,0-.494-.082-.329-.082.577-.247.247v-.082h-.082v-.082h0v-.329h0v-.165s-.082-.082-.165.082V24.3c0,.247-.082.082-.082.165h0c0-.082,0-.082-.082-.082v.329c0,.082-.082,0-.082.082.082-.247,0-.247-.082-.247,0-.082-.082.165-.082.082s-.082-.082,0-.165c0,0,0,.165.082.082,0-.082.082-.247,0-.165s-.082.412-.165.165a.288.288,0,0,0,.082-.165v-.165l-.082.165V24.3c-.082.165-.082-.082-.247.082-.082,0,0-.165-.082-.247h0c0-.165-.082-.165-.165-.082h0a.114.114,0,0,0-.165,0c0-.165.329-.577.165-.412-.082-.082-.247.165-.329.247a.177.177,0,0,0-.165-.165c-.082-.082-.165-.082-.082-.247-.082,0-.082.082-.165.082-.082-.165-.329-.082-.165-.412a.177.177,0,0,0,.165-.165c-.165.082.082-.165-.082,0-.082.082-.165.165-.165.247-.082,0-.165-.082-.165-.247,0,.082-.082.082-.165.082.165-.165.165-.247.082-.165l-.082.082.082-.082c-.082,0-.247.165-.165.082l.082-.082c-.082.082-.329.165-.247,0l.165-.165s-.165.082-.165.165c0-.165,0-.247.165-.329,0,.412-.165.247-.329.082H68.2C68.2,22.484,68.038,22.731,68.038,22.648Zm-.906-1.071a.081.081,0,0,1-.082.082l.082-.082Zm-.412-.165h0C66.8,21.413,66.638,21.5,66.721,21.413Zm-.577-1.235h0c.082,0,.082-.082.165-.082h0c0,.082-.165.247-.247.329l.165-.165C66.062,20.342,66.144,20.178,66.144,20.178Zm0-.165a.081.081,0,0,0,.082-.082c.082,0,0,.082-.082.082C66.226,20.013,66.144,20.1,66.144,20.013Zm.329.247a.3.3,0,0,1-.247.082Zm-.247.659a.081.081,0,0,0,.082-.082A.081.081,0,0,1,66.226,20.919Zm.329-.247v.082C66.474,20.754,66.391,20.754,66.556,20.672Zm-.247-2.553c-.082.082-.082.165-.247.247Zm-.165,0c.082-.082.165-.082.082,0C66.144,18.036,66.144,18.283,66.144,18.119ZM53.79,17.46l.165.082-.082.082Zm17.378-2.965L71,14.659a.081.081,0,0,0-.082-.082C70.921,14.412,71.086,14.412,71.168,14.495Zm.988,3.541c0-.082,0-.165.082-.165C72.239,17.954,72.4,18.036,72.156,18.036Zm.494,1.565-.494-.329C72.4,19.272,72.568,19.519,72.651,19.6ZM73.968,21.5h0l-.165-.082Zm0,1.565s-.082-.082-.082,0C73.8,22.978,73.968,23.06,73.968,23.06Zm-1.894,3.212v0ZM98.1,24.46h0a1.185,1.185,0,0,0-.247-.165c-.165.165-.082.412,0,.659a.488.488,0,0,1-.082.577c.082,0,.247.082.247,0-.082.247-.412.165-.247.329-.165,0,0,.165.082.329.082.082,0,.082-.082,0a1.221,1.221,0,0,1,.082.577,1.391,1.391,0,0,1-.247.824c.082,0,.329.412.329.494L97.523,28a.081.081,0,0,0-.082.082v.082c0,.082,0,.082-.082.165h0c0,.165.082.329-.165.412.082-.082-.329-.247-.329-.082-.082.329.082.165.082.412l.082.165c.247.082-.082.247.165.247-.165,0,0,.494-.412.329l-.329-.165c0,.165.329.329.412.494H96.7c.494.247-.165.247.165.577-.247.165-.247.659-.659.659.082.247.165.494,0,.659,0-.082,0-.165-.082-.165-.247.082-.082.165-.082.329-.082-.082-.412.165-.659.165.082.247.329.329.494.412-.329,0-.247.165-.247.329s0,.329-.247.329c0-.082-.082-.412-.329-.329-.577-.082.165.494-.247.659l.412.165c-.329,0,0,.577-.412.247.082.165-.329.247.082.412-.577.247-.494,1.153-1.318.988,0,.082-.165.165.082.329.247,0-.082-.247.082-.165a.288.288,0,0,0,.082.165c-.165.082-.247.165-.494-.165-.412.165.412.741,0,.988-.165-.082-.247-.165-.247,0l.082.412c-.247.165-.412-.082-.659-.247-.082.165-.165.329,0,.494l-.412-.082c.329.082.082.247.082.329v-.082c-.082-.082-.165.165-.165.247a.362.362,0,0,0,.412-.082c.082.165,0,.247,0,.412-.247-.247-.329.082-.412.165-.165.082.165.329.082.329-.165-.082-.165.165-.247-.082,0-.082.165,0,.165-.165-.165,0-.329-.165-.329.082,0,.165.494.329.165.412,0-.082-.082-.165-.165-.329l-.247.082.247.165a.081.081,0,0,1-.082-.082c.165.247-.165.329.082.659-.082.082-.329.082-.412.165h0c-.247,0-.247.247-.165.494l-.082-.082a.362.362,0,0,0-.082.412c-.329,0-.824-.659-.741-.247-.165.165.165.577.329.659-.412.165-.329.824-.906.741a.3.3,0,0,1,.082.247,2.22,2.22,0,0,0-.577.659.665.665,0,0,1-.741.329c0-.165-.165-.165-.329-.329.082.247-.329-.082,0,.247.165.165.247.247.412.247-.165.329-.494.741-.824.659.165,0,.165.165.165.247-.247-.329-.494-.165-.494,0l.165.165-.247-.082c0,.082.329.412,0,.412-.082-.082-.165-.165-.247-.165v.412c0,.082,0,.165-.082.165h-.082l-.412-.165a.223.223,0,0,0,.165.329c-.412.082-.577.247-.906.082a2.023,2.023,0,0,1-.412,1.235c-.165.165-.247.329-.412.412a1.723,1.723,0,0,1-.494.329l-.082-.165c-.247,0,.082.329-.082.329-.082-.165-.329-.247-.329-.494-.329,0-.082.494-.165.659.082.247,0-.247.165.082,0,.082-.412.082-.247.412-.165-.082-.247-.329-.329-.494v.247c-.412-.247-.082-.906-.494-1.235l-.082.165c-.329-.247.082-.577-.329-.494a1.258,1.258,0,0,0,.329.824c-.247.247.329.824,0,.988-.165-.082.247-.247,0-.412-.329-.165-.247.329-.412.329.247,0,.329.412.247.494-.247,0-.082-.329-.329-.247.082.165-.082.494.247.494.165.494-.329,0-.247.412-.247-.247-.165-.824-.494-.824.247.247-.082.577.329.906-.165,0-.329-.247-.329-.412-.247-.082,0,.741-.412.165l.082.329c-.082-.082-.247-.082-.412-.247-.165.082-.165.659-.412.165,0,.082-.329.247,0,.412.329.082.082-.329.412,0-.329-.247-.247.165-.247.412l-.082-.165c0,.082-.165.165-.165.329,0-.082-.082-.247-.165-.247l.082.329c-.165.247-.329-.412-.494-.247l.082-.329c0,.082-.247-.165-.329,0,.082.247.165.577.247.824-.082.165-.165-.165-.247,0v-.329c0-.082-.329-.329-.494-.247-.082.165-.082.577.165.577-.082.082-.329,0-.329-.247-.165.165.165.247.082.494a7.424,7.424,0,0,1-.741-.412V49.58l-.412.659c0-.412-.247-.165-.329-.577-.082,0-.165.165-.165.329.577.412.082.906.412,1.318-.247.329-.824-1.071-.824-.082.082.082.165.329.247.412-.082.165.165.494-.165.412.082-.329-.494-.412-.329-.824.082.165.247.082.247,0-.165-.165-.247-.494-.494-.412a.465.465,0,0,0-.165.494c.165.247.165-.165.247.165-.247.247-.494-.165-.329.412.165-.165.329.165.412.329l-.165.247-.082-.247c-.412,0,.082.412-.247.494l-.329-.329c-.082-.329.494-.082.165-.577-.247.082-.165.412-.412.329,0-.082.082-.082.082-.165-.082,0-.494-.659-.577-.082-.082.247.082.247.165.412-.247.247-.247.494-.494.577-.165-.412-.412.165-.329-.329a.415.415,0,0,0,.577-.494c-.329-.412.247-.082.082-.577-.247.082-.494-.329-.659-.577-.082,0-.082.165-.082.247.082.329.165.247.329.494a.662.662,0,0,0-.494.741c-.165-.082-.247-.412-.165-.494a2.553,2.553,0,0,1-1.071.494c.412.329-.082.329-.082.494-.082-.165-.247-.247-.247-.412-.082.329-.082-.247-.329-.165a2.741,2.741,0,0,1-.494.824c-.494-.165-.741.412-1.071.577-.247-.082-.329-.577-.577-.494h0c-.082.082.329.329,0,.247v-.082c0,.082-.082.082-.247.082v.412h-.247c-.165-.082-.247-.082-.165,0,.082,0,.082.082.165.082s.082.082.165.082a1.723,1.723,0,0,1,.494.329c0,.329,0,.329.082.247a.081.081,0,0,1-.082.082c.082-.247.082,0,.165-.165.082.082.247.082.412.165,0,0-.165.165-.082.165l.082-.165v.082A.288.288,0,0,0,71,54.6c.494,0,.659.577,1.071.659.082.165.247.082.329.082.165.412.329.741.741.659,0,0-.247.577-.412.659-.412.494-.329-.165-.659.082l.082-.247c-.329.329-.494,0-.577-.412L71.662,56c0-.082-.165.165-.165.082s.082-.082.082-.165c-.082.165-.082.082-.165.165,0-.082.082-.165.082-.247L71.58,56c-.247.412-.165-.082-.329.082L71.333,56c-.247.165-.412.082-.659.082,0-.082.082-.165.082-.247q-.124.247-.247.247c.082-.247-.165.165-.165,0V56c-.165.165,0-.165-.165.082L70.344,56c-.165.247,0-.165-.082-.082V56c-.082.082,0-.082-.082-.082h0c-.082,0-.082-.165-.165.082a1.207,1.207,0,0,0,.165-.329c-.329.165-.494,0-.741-.165a.3.3,0,0,1,.082-.247h0v.165l-.165.165h0c.082.082-.082-.082-.247-.329h0c-.082.082-.165,0-.247,0V55.18c-.082,0-.082-.082-.165-.082,0-.082.165-.247.082-.247-.165.247-.165,0-.329.329,0-.082,0-.247-.165-.165l.247-.247.082-.082h0a.081.081,0,0,0-.082-.082h-.165c-.082,0-.247-.082-.165-.329,0,.082.082.082.165.165a.081.081,0,0,1,.082.082v-.082a.081.081,0,0,0-.082-.082h0a.081.081,0,0,0-.082-.082h0a.081.081,0,0,1-.082-.082h0l-.082-.082h0c-.082,0-.082,0-.082.082l.082-.494h0v-.247a.081.081,0,0,1,.082.082c.082,0,.165.082.082,0,.082.082,0,0,0-.082h0c-.082-.082-.082-.247,0-.247h0c-.082,0-.247-.165-.165-.165l.165.082h.082c0-.082-.082-.082,0-.082h0a.081.081,0,0,1,.082-.082h0l-.165-.082c.165.082-.082-.082.165,0l.165.082s-.165-.165-.247-.165h.082c-.329-.165.082-.082-.165-.165.165,0,.082-.082.247-.082-.082-.082-.165-.165-.082-.165l.082.082c.082,0,0,0,0-.082h.329a.624.624,0,0,0-.329-.165c.329.082-.165-.165.165-.082a.83.83,0,0,0,.247.082c.329.082-.165-.165,0-.165l-.247-.082c.165,0-.082-.165.165,0-.082-.082.082,0-.165-.082.247,0,0-.247.412-.165a.081.081,0,0,0-.082-.082c-.165,0,.082.082,0,0l-.082-.082c.082,0,.082,0,.247.082.165,0-.412-.247-.247-.247.082.082.165.082.165,0l-.165-.082a1.391,1.391,0,0,1,.412.165.255.255,0,0,0-.082-.165l.247.082c-.165,0-.082-.082-.165-.082h0c.082,0,.082,0,0-.082h-.165c-.082-.082-.082-.082-.165-.082.165.082.165,0,.165,0,.082,0-.165-.082-.165-.082h.165c.082,0,.247.082.165,0s-.329-.082-.247-.165a.288.288,0,0,0,.165.082h.082l-.165-.082h.082c-.165-.082,0-.082-.165-.165h.165c.082,0,.082-.082,0-.082h0a.081.081,0,0,0-.082-.082c.165,0,.577.247.412.082a1.207,1.207,0,0,0-.329-.165c.165,0-.082-.165.165-.165-.082,0-.082,0-.165-.082.082-.082-.082-.247.247-.247a.3.3,0,0,0,.247.082c-.165-.082.165,0-.082-.082-.165-.082-.165-.082-.247-.082-.082-.082,0-.165.082-.165-.082,0-.082,0-.165-.082.247.082.247.082.165,0l-.165-.082h.165s-.247-.082-.165-.082.082,0,.165.082c-.082-.082-.247-.165-.165-.165l.247.082-.165-.082c.165,0,.165-.082.329,0-.412-.247-.329-.412-.247-.577l.082.082c.082,0-.165-.082-.082-.082a.5.5,0,0,0,.329.082c.165,0-.165-.165-.165-.165-.165-.082.082.082-.082,0-.082,0,.165,0-.082-.082.082,0,.247.082.329.082l-.082-.082c.247.082.412.247.659.329h0c.247.082.247.165.329.082-.082-.082-.412-.165-.494-.247,0-.082-.494-.165-.412-.247.165,0,0,.082.165.082s-.082-.082,0-.082a.624.624,0,0,1-.329-.165c.082,0,.165.082.247.082-.082-.082-.165-.165-.247-.082-.247-.082.082,0-.082-.165.165.082.412.247.494.165a2.743,2.743,0,0,0-.494-.247c.082,0,.165.082.329.082.082,0-.329-.165.082-.082L69.85,48.1H70.1s-.247-.165.082-.082c0,0,0-.082-.165-.082s.165.082-.165,0c.247.082,0-.082-.082-.082h.082a.081.081,0,0,0-.082-.082.288.288,0,0,1,.165.082l-.165-.082c-.082-.082.329.082.247,0l.082.082h.082a1.392,1.392,0,0,0-.412-.165c-.082-.082.165.082,0,0l.165.082c.082,0,.247.082.247,0a.624.624,0,0,0-.329-.165.637.637,0,0,1,.247.082c0-.082-.165-.082-.247-.165a.9.9,0,0,1,.412.082l.247.165h0c.165.082.165,0,.329.165a.081.081,0,0,0-.082-.082c-.329-.082-.412-.247-.741-.329-.082-.082.741.247.329,0a.83.83,0,0,1-.247-.082c-.082-.082-.247-.082-.165-.165.082.082.329.082.494.165h-.082a.852.852,0,0,1,.329.082s0-.082-.165-.165,0,.082-.165,0c0-.082.247,0-.082-.165,0,.082-.165,0-.329-.082l-.082-.082.082.082c.082,0-.165-.082-.165-.165l.247.082c.165.082-.082.082.247.165,0,0-.165-.082,0-.082l.082.082s.412.165.247,0c-.082-.082-.082-.082-.247-.082,0-.082-.165-.165-.165-.165.247.082.082-.082.247.082-.165,0-.165.082.082.165s-.082,0,.247.165c0-.082.329.082.494.082l-.082-.082a.5.5,0,0,0-.329-.082c.082,0,0-.165-.165-.247a.83.83,0,0,1,.247.082c0-.082,0-.165.082-.165-.247-.082-.082-.082-.247-.165.082,0,.165.082.247.082-.082-.082.165.082.165,0l-.247-.247c.247,0,.082-.165.082-.247.082,0,.329.082.412.082,0,0-.247-.082-.165-.082h.082c-.082,0,.165-.082-.165-.165l.247.082-.082-.082c.082,0,.165.082.247.082.165,0,0-.082,0-.082h-.165c-.082-.082.082-.082,0-.165l.165.082-.082-.082c.082.082.247.082.165,0l.329.165c-.082,0-.165-.082-.329-.165-.165,0-.082,0,0,.082l-.082-.082a1.207,1.207,0,0,1,.329.165h0l.082.082c-.082-.082-.165,0-.165-.082.165.082.247.165.165.165-.247,0,.082.165,0,.165a1.8,1.8,0,0,1-.412-.247H71.5a1.8,1.8,0,0,1,.412.247l-.165-.082a1.185,1.185,0,0,0,.247.165c-.082.082-.165.165-.165.247l-.165-.082c.329.165.082.165.165.247-.165,0,.082.247-.165.165a.525.525,0,0,1,0,.494L71.5,47.6c.165.082-.082,0-.082,0,.165,0,.165.082.329.165-.165,0-.082.165.082.247l-.165-.082c.247.165,0,.165-.082.247-.082,0-.165-.082-.165,0,.247.165.165.165.329.247,0,.082-.082.082-.165.082.247.247,0,.412.082.659l-.165-.082c.329.329-.082.412,0,.577l-.247-.082c-.082,0,0,.165.247.165-.082,0,.082.165-.165.082-.082,0,.082.082.165.165-.165.082-.165.082-.082.165a.288.288,0,0,1-.165-.082c.082.082-.082.082.247.165-.33.577,0,.824-.33.824.082,0,.082.082.165.082,0,.082-.165.082-.165.165l.494-.247.165.247c-.082-.577.494-.494.659-.824.494,0,.824-.659,1.235-.412A5.215,5.215,0,0,1,75.7,48.756l.082.412c0-.329.165.165.329,0-.329-.165,0-.412,0-.659.494.082.741-.412.906-.824l.165.247c.082-.577.577-.412.988-.577.082.082.247.247.412.165a1.66,1.66,0,0,1,.247-.906,1.479,1.479,0,0,1,.906-.247,3.084,3.084,0,0,1,.988-1.071,3.414,3.414,0,0,0,.988-.906l.247.165a2.347,2.347,0,0,1,.906-1.071c.165-.165.412-.247.577-.412a2.184,2.184,0,0,0,.412-.494l.247.412c.247,0,.329-.494,0-.659.082,0,.082-.082.165-.082l.082-.082h0v-.082c.082-.082.165-.247.412-.082.247-.082.082-.412.165-.577a.756.756,0,0,0,.494-.329,1.137,1.137,0,0,0,.247-.329c.082.082.165.247.247.165,0-.247.577-.329,0-.659.577-.082.577-.988,1.235-1.071-.165-.082-.082-.165-.165-.329.329-.329.824-.412.824-.906.082,0,.165.247.247.165,0-.082-.165-.165-.165-.329a1.8,1.8,0,0,1,.247-.412.822.822,0,0,1,.412-.329,2.242,2.242,0,0,0,.824-.659,5.245,5.245,0,0,1,.824-1.482,4.567,4.567,0,0,1,.494-.659A2.89,2.89,0,0,0,91.1,33.6l.082.082c-.247-.577.824-.494.412-1.071.165,0,.165-.247.412-.082-.165-.412.576-.494.494-.988.412-.247.247-.741.659-.988,0,.082,0,.165.165.247.329-.082-.329-.577.247-.412,0-.082-.247-.165-.247-.082A9.148,9.148,0,0,0,93.9,28.99a9.075,9.075,0,0,0,.165-1.482c.494-.577.988.247.659-.412.082,0-.247-.082-.082-.082-.082-.247.741-.165.494-.412-.329,0-.165-.165-.412-.165.329-.329.659-.412.412-.741l.165.082a.831.831,0,0,1-.247-.659.986.986,0,0,0-.412-.659V22.4h0v.082h0v-.659c0-.082,0-.082-.082-.247a7.3,7.3,0,0,0-1.153-2.059,6.052,6.052,0,0,0-1.73-1.812c-.329-.247-.741-.412-1.071-.659a5.032,5.032,0,0,0-1.153-.577.829.829,0,0,0-.329-.494c-.082-.082-.247,0-.494,0,0-.082.082-.082.082-.165-.082.412-.329,0-.412.412a3.494,3.494,0,0,0-1.812.165c.082-.082.082-.412,0-.329l-.082.247-.082-.082a.374.374,0,0,0,0,.412l-1.235.494-.247.082h0c-.082,0-.082,0-.165.082a1.392,1.392,0,0,0-.412.165l-.165-.165-.247.082-.412.247-.247.082-.247.165a1.446,1.446,0,0,0-.412.329c-.165.082-.247.247-.412.329s-.247.247-.412.412c-.247.082-.412.329-.576.494-.082.082-.165.247-.247.329s-.165.247-.247.329c-.329.165-.741.412-1.071.577a3.962,3.962,0,0,0-.906.741,5.416,5.416,0,0,0-1.4,1.894s-.741-.824-.494-1.482a1.635,1.635,0,0,1,.577-1.482l.247-.329a1.137,1.137,0,0,0,.247-.329,1.552,1.552,0,0,0,.329-.741c.082-.082.412.329.412.082a1.735,1.735,0,0,1,.906-1.482,4.78,4.78,0,0,1,1.73-.824l.082.165c.247-.082.082-.577.329-.741.082.082,0,.165.165.247-.165-.247.247-.412.165-.577.165,0,.247.247.412.247l-.082-.329c-.082-.412.082-.577.329-.659s.494-.082.577-.412c0,.082,0,.165.082.165a1.456,1.456,0,0,1,.577-.577h0a6.227,6.227,0,0,1,1.812-.906,1.045,1.045,0,0,0,.082.494.617.617,0,0,1,.494-.577c.082.165.165.082.329,0,.082-.082.247-.247.412-.165v.082c.165-.412.329.165.494-.247a.255.255,0,0,0,.082.165.288.288,0,0,0,.082.165c.082-.494.329.247.494,0v-.082c.165-.082.247.165.412.082v.082c.412-.082.577.247.577-.165.082.329-.412.082-.247.577a3.394,3.394,0,0,1,1.812.082,5.945,5.945,0,0,1,1.647.741.368.368,0,0,1,0,.412c.165,0,.412.165.659.082,0,0-.082.247,0,.247.082.247.494-.247.576.082-.165,0-.247.082-.329.247.329-.165.577.082.741.165a.3.3,0,0,0-.247.082c.247-.082.329.082.329.165.082.082.082.247.247.247l-.247.082c.082.494.412-.247.494.082-.082,0-.165.082-.247.165a1.19,1.19,0,0,1,.576.165,1.446,1.446,0,0,0,.412.329l-.082.082c.082.082.165.247.329.412a.677.677,0,0,0,.412.412c0,.165-.494.247-.247.494.165-.165.329,0,.412.082s.165.165.412-.082c0,.165.082.329.082.577a.453.453,0,0,0,.247.412c-.247-.082-.494.329-.577.082a.288.288,0,0,0-.082.165.255.255,0,0,0-.082.165c-.165,0,0-.165-.165-.082.082.082.329.329.329.494.329.082.906.165,1.071.577-.165-.082-.412.082-.494.082a1.391,1.391,0,0,1,.412.165,2.433,2.433,0,0,1,.494.247c0,.165-.329.082-.247.247.082,0,.165.082.329.082v.329h0a.3.3,0,0,1-.247.082c-.165.082-.082-.165-.247-.082,0,.247.165.247.165.494h-.082c-.082.165.165.412.412.329,0-.082-.247,0-.165-.165.247.082.329.412.329.659-.082-.082-.165-.082-.329-.082A4.946,4.946,0,0,1,98.1,24.46Zm.165-.741c-.082-.165.165-.082.165-.082C98.429,23.719,98.182,23.554,98.264,23.719Z" transform="translate(-20.595 0.004)"/>
      <path id="Path_82" data-name="Path 82" class="cls-1" d="M60.2,27.882v0Z" transform="translate(-27.581 -4.901)"/>
      <path id="Path_83" data-name="Path 83" class="cls-1" d="M78.78,66.167c-.082-.165-.165-.247,0,0Z" transform="translate(-30.842 -11.641)"/>
      <path id="Path_84" data-name="Path 84" class="cls-1" d="M113.7,34.1v.165h0V34.1Z" transform="translate(-37.019 -6.012)"/>
      <path id="Path_85" data-name="Path 85" class="cls-1" d="M78.7,65.7Z" transform="translate(-30.845 -11.586)"/>
      <path id="Path_86" data-name="Path 86" class="cls-1" d="M78.5,65Z" transform="translate(-30.809 -11.463)"/>
    </g>
  </g>
</svg>
