<?xml version="1.0" encoding="iso-8859-1"?>
<!-- Generator: Adobe Illustrator 19.0.0, SVG Export Plug-In . SVG Version: 6.00 Build 0)  -->
<svg version="1.1" id="Capa_1" xmlns="http://www.w3.org/2000/svg" xmlns:xlink="http://www.w3.org/1999/xlink" x="0px" y="0px"
	 viewBox="0 0 512 512" style="enable-background:new 0 0 512 512;" xml:space="preserve">
<g>
	<g>
		<path d="M116,451.984h-6.833V174c0-5.522-4.478-10-10-10c-5.522,0-10,4.478-10,10v277.984H80c-27.57,0-50,22.43-50,50
			c0,5.522,4.478,10,10,10h116c5.522,0,10-4.478,10-10C166,474.414,143.57,451.984,116,451.984z M51.714,491.984
			c4.127-11.641,15.249-20,28.286-20h36c13.037,0,24.159,8.359,28.286,20H51.714z"/>
	</g>
</g>
<g>
	<g>
		<path d="M197.666,129.455l-47.333-123c-1.486-3.86-5.196-6.408-9.333-6.408H57.333c-4.137,0-7.847,2.548-9.333,6.408l-47.333,123
			c-1.184,3.075-0.775,6.536,1.09,9.253c1.864,2.716,4.948,4.339,8.243,4.339h25v44.804c0,5.522,4.478,10,10,10s10-4.478,10-10
			v-44.804h133.333c3.295,0,6.379-1.623,8.243-4.339C198.441,135.991,198.849,132.53,197.666,129.455z M24.564,123.047l39.635-103
			h69.935l39.636,103H24.564z"/>
	</g>
</g>
<g>
	<g>
		<path d="M52.069,215.93C50.21,214.069,47.63,213,45,213c-2.641,0-5.21,1.069-7.07,2.93C36.07,217.791,35,220.37,35,223
			s1.069,5.21,2.93,7.069C39.79,231.93,42.37,233,45,233s5.21-1.07,7.069-2.931C53.93,228.21,55,225.63,55,223
			S53.93,217.79,52.069,215.93z"/>
	</g>
</g>
<g>
	<g>
		<path d="M475.496,286.398v-11.173c0-25.81-20.998-46.808-46.809-46.808H361c-5.522,0-10,4.478-10,10c0,5.522,4.478,10,10,10
			h67.688c14.782,0,26.809,12.025,26.809,26.808v11.173c-19.853,4.369-34.982,21.454-36.386,42.251
			c-2.909-0.977-6.019-1.515-9.253-1.515H232.143c-3.234,0-6.344,0.538-9.253,1.515c-1.403-20.797-16.533-37.882-36.386-42.251
			v-11.173c0-14.782,12.026-26.808,26.809-26.808H279c5.522,0,10-4.478,10-10c0-5.522-4.478-10-10-10h-65.688
			c-25.811,0-46.809,20.998-46.809,46.808v11.173c-20.851,4.589-36.504,23.2-36.504,45.409v106.166c0,5.522,4.478,10,10,10h362
			c5.522,0,10-4.478,10-10V331.808C512,309.598,496.347,290.987,475.496,286.398z M203.009,356.269v20.865v50.84H150v-96.166
			c0-14.614,11.89-26.504,26.504-26.504c14.615,0,26.505,11.89,26.505,26.504V356.269z M418.991,427.974H223.009v-40.84h195.982
			V427.974z M418.992,367.134H223.009v-10.865c0-5.037,4.098-9.135,9.134-9.135h177.715c5.036,0,9.134,4.098,9.134,9.135V367.134z
			 M492,427.974h-53.009v-50.84v-20.865v-24.461c0-14.614,11.89-26.504,26.505-26.504c14.614,0,26.504,11.89,26.504,26.504V427.974z
			"/>
	</g>
</g>
<g>
	<g>
		<path d="M328.069,231.35c-1.859-1.87-4.439-2.93-7.069-2.93s-5.21,1.06-7.07,2.93c-1.86,1.86-2.93,4.431-2.93,7.07
			c0,2.63,1.069,5.21,2.93,7.07c1.86,1.859,4.44,2.93,7.07,2.93s5.21-1.07,7.069-2.93c1.86-1.86,2.931-4.44,2.931-7.07
			C331,235.78,329.93,233.21,328.069,231.35z"/>
	</g>
</g>
<g>
	<g>
		<path d="M482,0.016H276c-16.542,0-30,13.458-30,30v106c0,16.542,13.458,30,30,30h206c16.542,0,30-13.458,30-30v-106
			C512,13.474,498.542,0.016,482,0.016z M492,136.016c0,5.513-4.486,10-10,10h-66.013c-0.279-0.371-0.578-0.733-0.916-1.071
			l-86.75-86.75c-3.906-3.904-10.236-3.904-14.143,0l-28.992,28.992c-3.905,3.905-3.905,10.237,0,14.143
			c3.906,3.904,10.236,3.904,14.143,0l21.921-21.921l66.607,66.607H276c-5.514,0-10-4.486-10-10v-106c0-5.514,4.486-10,10-10h206
			c5.514,0,10,4.486,10,10v51.857l-40.429-40.429c-3.906-3.904-10.236-3.904-14.143,0L400.56,78.312
			c-3.905,3.905-3.905,10.237,0,14.143c3.906,3.904,10.236,3.904,14.143,0L444.5,62.658l45.429,45.429
			c0.632,0.632,1.333,1.151,2.071,1.578V136.016z"/>
	</g>
</g>

</svg>
