<svg xmlns="http://www.w3.org/2000/svg" viewBox="0 0 227.063 227.063">
  <defs>
    <style>
      .cls-1 {
        fill: none;
      }

      .cls-2 {
        fill: #8cc342;
      }

      .cls-3, .cls-4 {
        stroke: none;
      }

      .cls-4 {
        fill: #16a79e;
      }
    </style>
  </defs>
  <g id="Group_46" data-name="Group 46" transform="translate(-503 -2469)">
    <g id="Path_95" data-name="Path 95" class="cls-1" transform="translate(503 2469)">
      <path class="cls-3" d="M113.531,0A113.531,113.531,0,1,1,0,113.531,113.531,113.531,0,0,1,113.531,0Z"/>
      <path class="cls-4" d="M 113.53125 224.0625 C 121.0326232910156 224.0625 128.5283813476562 223.3069763183594 135.8103179931641 221.8168487548828 C 142.9056854248047 220.3649444580078 149.8848724365234 218.1984710693359 156.5540618896484 215.3776245117188 C 163.1028442382812 212.6077117919922 169.4194030761719 209.1791839599609 175.3282165527344 205.1872863769531 C 181.1816864013672 201.2327575683594 186.6861267089844 196.691162109375 191.6886291503906 191.6886291503906 C 196.691162109375 186.6861267089844 201.2327575683594 181.1816864013672 205.1872863769531 175.3282165527344 C 209.1791839599609 169.4194030761719 212.6077117919922 163.1028442382812 215.3776245117188 156.5540618896484 C 218.1984710693359 149.8848724365234 220.3649444580078 142.9056854248047 221.8168487548828 135.8103179931641 C 223.3069763183594 128.5283813476562 224.0625 121.0326232910156 224.0625 113.53125 C 224.0625 106.0298767089844 223.3069763183594 98.53412628173828 221.8168487548828 91.25218963623047 C 220.3649444580078 84.15681457519531 218.1984710693359 77.17762756347656 215.3776245117188 70.50843811035156 C 212.6077117919922 63.95965576171875 209.1791839599609 57.64309310913086 205.1872863769531 51.73427963256836 C 201.2327575683594 45.88081359863281 196.691162109375 40.37637329101562 191.6886291503906 35.37387466430664 C 186.6861267089844 30.3713436126709 181.1816864013672 25.82975006103516 175.3282165527344 21.87521934509277 C 169.4194030761719 17.8833122253418 163.1028442382812 14.4547815322876 156.5540618896484 11.68487453460693 C 149.8848724365234 8.864030838012695 142.9056854248047 6.697562694549561 135.8103179931641 5.24565601348877 C 128.5283813476562 3.755531311035156 121.0326232910156 3 113.53125 3 C 106.0298767089844 3 98.53412628173828 3.755531311035156 91.25218963623047 5.24565601348877 C 84.15681457519531 6.697562694549561 77.17762756347656 8.864030838012695 70.50843811035156 11.68487453460693 C 63.95965576171875 14.4547815322876 57.64309310913086 17.8833122253418 51.73427963256836 21.87521934509277 C 45.88081359863281 25.82975006103516 40.37637329101562 30.3713436126709 35.37387466430664 35.37387466430664 C 30.3713436126709 40.37637329101562 25.82975006103516 45.88081359863281 21.87521934509277 51.73427963256836 C 17.8833122253418 57.64309310913086 14.4547815322876 63.95965576171875 11.68487453460693 70.50843811035156 C 8.864030838012695 77.17762756347656 6.697562694549561 84.15681457519531 5.24565601348877 91.25218963623047 C 3.755531311035156 98.53412628173828 3 106.0298767089844 3 113.53125 C 3 121.0326232910156 3.755531311035156 128.5283813476562 5.24565601348877 135.8103179931641 C 6.697562694549561 142.9056854248047 8.864030838012695 149.8848724365234 11.68487453460693 156.5540618896484 C 14.4547815322876 163.1028442382812 17.8833122253418 169.4194030761719 21.87521934509277 175.3282165527344 C 25.82975006103516 181.1816864013672 30.3713436126709 186.6861267089844 35.37387466430664 191.6886291503906 C 40.37637329101562 196.691162109375 45.88081359863281 201.2327575683594 51.73427963256836 205.1872863769531 C 57.64309310913086 209.1791839599609 63.95965576171875 212.6077117919922 70.50843811035156 215.3776245117188 C 77.17762756347656 218.1984710693359 84.15681457519531 220.3649444580078 91.25218963623047 221.8168487548828 C 98.53412628173828 223.3069763183594 106.0298767089844 224.0625 113.53125 224.0625 M 113.53125 227.0625 C 50.82968902587891 227.0625 0 176.2328186035156 0 113.53125 C 0 50.82968902587891 50.82968902587891 0 113.53125 0 C 176.2328186035156 0 227.0625 50.82968902587891 227.0625 113.53125 C 227.0625 176.2328186035156 176.2328186035156 227.0625 113.53125 227.0625 Z"/>
    </g>
    <path id="Path_105" data-name="Path 105" class="cls-2" d="M102.459,21.57h-3.6V8.988A8.985,8.985,0,0,0,89.876,0H61.116a8.992,8.992,0,0,0-7.19,3.64A8.992,8.992,0,0,0,46.735,0H17.975A8.985,8.985,0,0,0,8.988,8.988V21.57h-3.6A5.38,5.38,0,0,0,0,26.963V66.508a1.8,1.8,0,0,0,1.8,1.8H14.38V75.5a1.8,1.8,0,0,0,1.8,1.8h7.19a1.8,1.8,0,0,0,1.8-1.8v-7.19H82.686v8.988a1.8,1.8,0,0,0,1.8,1.8h7.19a1.8,1.8,0,0,0,1.8-1.8V68.306h12.583a1.8,1.8,0,0,0,1.8-1.8V26.963A5.38,5.38,0,0,0,102.459,21.57ZM55.723,8.988A5.38,5.38,0,0,1,61.116,3.6h28.76a5.38,5.38,0,0,1,5.393,5.393V21.57a5.38,5.38,0,0,0-5.393,5.393V35.95H55.723Zm-43.14,0A5.38,5.38,0,0,1,17.975,3.6h28.76a5.38,5.38,0,0,1,5.393,5.393V35.95H17.975V26.963a5.38,5.38,0,0,0-5.393-5.393Zm1.8,55.723H3.6V26.963a1.8,1.8,0,0,1,1.8-1.8h7.19a1.8,1.8,0,0,1,1.8,1.8v9.3c-.067.022-.112.045-.18.067-.09.045-.2.09-.292.135-.2.09-.382.2-.584.315-.09.045-.18.112-.27.157-.2.157-.4.315-.607.494-.045.045-.09.067-.112.112a6.05,6.05,0,0,0-.607.719c-.045.067-.09.157-.135.225l-.337.607c-.045.09-.09.2-.135.292a3.139,3.139,0,0,0-.2.652c-.022.09-.045.2-.067.292a4.906,4.906,0,0,0-.09.989v7.19a7.028,7.028,0,0,0,.09.989c.022.09.045.2.067.292a3.623,3.623,0,0,0,.2.652c.045.09.09.2.135.292a4.092,4.092,0,0,0,.337.607c.045.067.09.157.135.225a6.049,6.049,0,0,0,.607.719c.045.045.09.067.112.112a4.463,4.463,0,0,0,.607.494,1.676,1.676,0,0,0,.27.157,4.826,4.826,0,0,0,.584.315c.09.045.18.09.292.135.067.022.112.067.18.09Zm0-16.178v-7.19a1.8,1.8,0,0,1,1.8-1.8h35.95V50.331H16.178A1.8,1.8,0,0,1,14.38,48.533ZM21.57,73.7h-3.6V68.306h3.6Zm68.306,1.8h-3.6v-7.19h3.6Zm0-10.785h-71.9V53.926h71.9Zm1.8-14.38H55.723V39.545h35.95a1.8,1.8,0,0,1,1.8,1.8v7.19A1.8,1.8,0,0,1,91.673,50.331Zm1.8,14.38v-11.1c.067-.022.112-.045.18-.067.09-.045.2-.09.292-.135.2-.09.382-.2.584-.315.09-.045.18-.112.27-.157.2-.157.4-.315.607-.494.045-.045.09-.067.112-.112a6.051,6.051,0,0,0,.607-.719c.045-.067.09-.157.135-.225l.337-.607c.045-.09.09-.2.135-.292a3.139,3.139,0,0,0,.2-.652c.022-.09.045-.2.067-.292a4.906,4.906,0,0,0,.09-.989v-7.19a7.028,7.028,0,0,0-.09-.989c-.022-.09-.045-.2-.067-.292a3.624,3.624,0,0,0-.2-.652c-.045-.112-.09-.2-.135-.292a4.092,4.092,0,0,0-.337-.607c-.045-.067-.09-.157-.135-.225a6.05,6.05,0,0,0-.607-.719c-.045-.045-.09-.067-.112-.112a4.463,4.463,0,0,0-.607-.494,1.676,1.676,0,0,0-.27-.157,4.827,4.827,0,0,0-.584-.315c-.09-.045-.2-.09-.292-.135-.067-.022-.112-.045-.18-.067V26.963a1.8,1.8,0,0,1,1.8-1.8h7.19a1.8,1.8,0,0,1,1.8,1.8V64.711Z" transform="translate(562.074 2548.455)"/>
  </g>
</svg>
