<?xml version="1.0" encoding="iso-8859-1"?>
<!-- Generator: Adobe Illustrator 18.0.0, SVG Export Plug-In . SVG Version: 6.00 Build 0)  -->
<!DOCTYPE svg PUBLIC "-//W3C//DTD SVG 1.1//EN" "http://www.w3.org/Graphics/SVG/1.1/DTD/svg11.dtd">
<svg version="1.1" id="Capa_1" xmlns="http://www.w3.org/2000/svg" xmlns:xlink="http://www.w3.org/1999/xlink" x="0px" y="0px"
	 viewBox="0 0 297 297" style="enable-background:new 0 0 297 297;" xml:space="preserve">
<g>
	<path d="M175.646,94.483c-10.696,0-20.353,4.561-27.145,11.849c-6.792-7.288-16.449-11.849-27.147-11.849
		c-20.515,0-37.205,16.77-37.205,37.383c0,33.754,53.222,65.746,59.29,69.283c1.564,0.912,3.313,1.367,5.063,1.367
		s3.498-0.455,5.064-1.367c6.067-3.538,59.283-35.53,59.283-69.283C212.85,111.253,196.16,94.483,175.646,94.483z M148.516,180.672
		c-17.097-10.996-44.257-32.973-44.257-48.806c0-9.525,7.67-17.275,17.097-17.275c9.426,0,17.094,7.75,17.094,17.275
		c0,5.552,4.501,10.054,10.054,10.054c5.552,0,10.054-4.502,10.054-10.054c0-9.525,7.666-17.275,17.09-17.275
		c9.426,0,17.095,7.75,17.095,17.275C192.741,147.266,167.424,168.619,148.516,180.672z"/>
	<path d="M286.946,63.392H10.054C4.502,63.392,0,67.893,0,73.445v150.11c0,5.552,4.502,10.053,10.054,10.053h276.893
		c5.552,0,10.054-4.501,10.054-10.053V73.445C297,67.893,292.498,63.392,286.946,63.392z M67.11,213.501l-47.003-49.747v-30.508
		L67.11,83.499H229.89l47.003,49.747v30.508l-47.003,49.747H67.11z M276.893,103.967l-19.34-20.468h19.34V103.967z M39.447,83.499
		l-19.34,20.468V83.499H39.447z M20.107,193.033l19.34,20.468h-19.34V193.033z M257.553,213.501l19.34-20.468v20.468H257.553z"/>
</g>
<g>
</g>
<g>
</g>
<g>
</g>
<g>
</g>
<g>
</g>
<g>
</g>
<g>
</g>
<g>
</g>
<g>
</g>
<g>
</g>
<g>
</g>
<g>
</g>
<g>
</g>
<g>
</g>
<g>
</g>
</svg>
