<svg xmlns="http://www.w3.org/2000/svg" viewBox="0 0 227.063 227.063">
  <defs>
    <style>
      .cls-1, .cls-4 {
        fill: none;
      }

      .cls-1 {
        stroke: #16a79e;
        stroke-width: 3px;
      }

      .cls-2 {
        fill: #8cc342;
      }

      .cls-3 {
        stroke: none;
      }
    </style>
  </defs>
  <g id="Group_47" data-name="Group 47" transform="translate(-847 -2469)">
    <g id="Ellipse_3" data-name="Ellipse 3" class="cls-1" transform="translate(847 2469)">
      <circle class="cls-3" cx="113.531" cy="113.531" r="113.531"/>
      <circle class="cls-4" cx="113.531" cy="113.531" r="112.031"/>
    </g>
    <path id="Path_106" data-name="Path 106" class="cls-2" d="M114.621.9a1.931,1.931,0,0,0-1.639-.9H1.835A1.931,1.931,0,0,0,.2.9a1.9,1.9,0,0,0-.09,1.864l3.863,7.681A1.92,1.92,0,0,0,5.675,11.5h5.749v5.749a1.907,1.907,0,0,0,1.909,1.909h36.4v10.87c-3.526,1.347-5.749,3.661-5.749,6.378s2.223,5.008,5.749,6.378V44a28.435,28.435,0,0,1-2.223,11.431,19.223,19.223,0,0,0-1.595,7.815,18.587,18.587,0,0,0,2.538,9.59H45.921a9.6,9.6,0,0,0-9.59,9.59v9.59a9.686,9.686,0,0,1-9.657,9.59,11.521,11.521,0,0,0-11.431,11.5,1.907,1.907,0,0,0,1.909,1.909H32.333a7.624,7.624,0,0,0,6.446-3.863,3.786,3.786,0,0,1,3.391-1.864,10.9,10.9,0,0,0,7.771-3.144,12.11,12.11,0,0,0,3.571-7.5,7.678,7.678,0,0,0,7.771,0,12.172,12.172,0,0,0,3.571,7.5,10.787,10.787,0,0,0,7.771,3.144,3.9,3.9,0,0,1,3.391,1.864,7.52,7.52,0,0,0,6.446,3.863H97.642a1.907,1.907,0,0,0,1.909-1.909A11.521,11.521,0,0,0,88.12,101.6a9.672,9.672,0,0,1-9.657-9.59v-9.59a9.6,9.6,0,0,0-9.59-9.59H66.335a18.745,18.745,0,0,0,2.538-9.59,19.6,19.6,0,0,0-1.595-7.816A28.058,28.058,0,0,1,65.055,44V42.783C68.581,41.436,70.8,39.122,70.8,36.4s-2.223-5.008-5.749-6.378V19.157h36.4a1.907,1.907,0,0,0,1.909-1.909V11.5h5.749a1.9,1.9,0,0,0,1.707-1.056l3.84-7.658A1.835,1.835,0,0,0,114.621.9ZM49.761,97.424a8.29,8.29,0,0,1-2.493,5.929A6.814,6.814,0,0,1,42.26,105.4a7.674,7.674,0,0,0-6.76,3.751,3.757,3.757,0,0,1-3.144,2H19.33A7.7,7.7,0,0,1,26.7,105.4,13.5,13.5,0,0,0,40.149,91.989V82.4A5.76,5.76,0,0,1,45.9,76.65h3.84V97.424Zm7.658-1.595a3.853,3.853,0,0,1-3.84-3.84V77.706a8.3,8.3,0,0,0,.943.382c.09.022.18.067.27.09l.2.067a8.819,8.819,0,0,0,4.829,0,.078.078,0,0,0,.045-.022l.4-.135a8.3,8.3,0,0,0,.943-.382V91.989A3.786,3.786,0,0,1,57.419,95.83ZM74.667,82.4v9.59A13.511,13.511,0,0,0,88.12,105.4a7.68,7.68,0,0,1,7.366,5.749H82.46a3.729,3.729,0,0,1-3.144-2,7.679,7.679,0,0,0-6.76-3.751,6.711,6.711,0,0,1-5.008-2.044,8.383,8.383,0,0,1-2.493-5.929V76.65h3.818A5.77,5.77,0,0,1,74.667,82.4ZM61.26,44.086a31.672,31.672,0,0,0,2.56,12.891,15.535,15.535,0,0,1,1.258,6.266c0,4.245-1.639,8.04-3.975,10.039h0a5.361,5.361,0,0,1-7.366,0h0c-2.358-2-3.975-5.794-3.975-10.039a15.545,15.545,0,0,1,1.28-6.266A31.748,31.748,0,0,0,53.6,44.086H61.26ZM67.009,36.4c0,1.572-3.728,3.84-9.59,3.84-5.839,0-9.59-2.268-9.59-3.84s3.728-3.84,9.59-3.84C63.258,32.587,67.009,34.855,67.009,36.4ZM61.26,28.747H53.6v-9.59H61.26ZM99.574,15.339H15.265V11.5H99.6v3.84Zm8.4-7.681H6.866L4.957,3.818H109.9Z" transform="translate(903.626 2530.545)"/>
  </g>
</svg>
