<svg id="Layer_1" data-name="Layer 1" xmlns="http://www.w3.org/2000/svg" viewBox="0 0 565.88 149.54"><title>tgcplogo</title><path d="M36.85,77.94c-9.35,0-16.93,7.85-16.93,17.55a17.52,17.52,0,0,0,11,16.43v48.81h4.57a3.31,3.31,0,0,0-2,2.64c0,2.27,3.77,4.12,8.42,4.12s8.43-1.85,8.43-4.12a2.6,2.6,0,0,0-.89-1.84v-.8h4V98a17.24,17.24,0,0,0,.19-2.51C53.77,85.79,46.2,77.94,36.85,77.94Z" transform="translate(-19.92 -17.95)" fill="#6bbf4e"/><rect x="39.07" y="105.77" width="66.91" height="35.75" fill="#6bbf4e"/><path d="M58.44,101.14c-3.88,8.09.23,19.22.23,19.22h66.91s4.5-12.83.3-19C111.34,99.13,82.37,96.94,58.44,101.14Z" transform="translate(-19.92 -17.95)" fill="#6bbf4e"/><path d="M147.81,77.94c-9.35,0-16.93,7.85-16.93,17.55a17.24,17.24,0,0,0,.19,2.51v62.73h4.06v.52a2.8,2.8,0,0,0-1.22,2.12c0,2.27,3.77,4.12,8.43,4.12s8.43-1.85,8.43-4.12a3.16,3.16,0,0,0-1.74-2.5v-.14h4.68V111.92a17.52,17.52,0,0,0,11-16.43C164.74,85.79,157.16,77.94,147.81,77.94Z" transform="translate(-19.92 -17.95)" fill="#6bbf4e"/><path d="M213.41,103.73c0-4.07-.11-4.66-2.24-5.07a16.24,16.24,0,0,0-1.77-.12.51.51,0,0,1-.41-.41c0-.36.24-.42.83-.42,2.36,0,5.83.12,6.13.12s3.48-.12,5.07-.12c.59,0,.82.06.82.42a.5.5,0,0,1-.41.41,5.73,5.73,0,0,0-1.3.12c-1.41.23-1.82,1-1.94,2.77-.06,1.59-.06,3.06-.06,5.19v5.6c0,2.3-.06,2.36-.71,2.71-3.3,1.71-8,2.24-11,2.24-4,0-11.32-.47-17.1-5.37a19.17,19.17,0,0,1-6.19-14.26c0-8,4.07-13.68,8.67-16.45s9.84-3.19,13.79-3.19a42.82,42.82,0,0,1,8,.83,23,23,0,0,0,4.19.53c.53,0,.65.23.65.47,0,.71-.3,2.06-.3,7.08,0,.82-.23,1.06-.59,1.06s-.35-.3-.35-.77A7.53,7.53,0,0,0,216,83.8c-1.3-1.89-5.25-3.89-12-3.89-3.13,0-6.9.23-10.85,3.24-3,2.3-5.13,6.78-5.13,12.62a20,20,0,0,0,5.48,13.85,18.52,18.52,0,0,0,13.27,5.25c1.83,0,4.25-.18,5.6-.94.65-.36,1.06-.59,1.06-1.54Z" transform="translate(-19.92 -17.95)" fill="#6bbf4e"/><path d="M233.75,93.11c0-7.78,0-9.19-.12-10.79s-.41-2.53-2.12-2.77a16.48,16.48,0,0,0-1.77-.11.5.5,0,0,1-.41-.42c0-.29.23-.41.82-.41,2.36,0,5.84.12,6.13.12.53,0,4.9-.12,6.49-.12,3.3,0,7,.3,9.67,2.18a8.8,8.8,0,0,1,3.6,6.84c0,3.72-1.54,7.31-6.37,11.44,4.24,5.31,7.84,9.85,10.85,13,2.77,2.83,4.48,3.3,5.77,3.48a9.47,9.47,0,0,0,1.83.18.45.45,0,0,1,.47.41c0,.29-.29.41-1.23.41h-3.25c-2.95,0-4.24-.29-5.54-1-2.24-1.18-4.13-3.6-7.07-7.37-2.19-2.71-4.49-6-5.61-7.31a.77.77,0,0,0-.7-.3l-6.61-.11c-.23,0-.35.11-.35.41V102c0,4.83,0,8.72.24,10.79.17,1.47.47,2.41,2.06,2.65a18.77,18.77,0,0,0,2.3.24.36.36,0,0,1,.41.41c0,.23-.23.41-.82.41-2.83,0-6.14-.18-6.37-.18-.06,0-3.54.18-5.13.18-.53,0-.83-.12-.83-.41a.4.4,0,0,1,.42-.41,7.29,7.29,0,0,0,1.59-.24c1-.24,1.12-1.18,1.35-2.65a100.7,100.7,0,0,0,.3-10.85Zm4.48,4.25a.76.76,0,0,0,.35.65,17.72,17.72,0,0,0,5.72.76,6.68,6.68,0,0,0,3.89-.88c1.77-1.18,3.13-3.83,3.13-7.66,0-6.25-3.42-9.85-9-9.85a23.71,23.71,0,0,0-3.72.29.66.66,0,0,0-.41.59Z" transform="translate(-19.92 -17.95)" fill="#6bbf4e"/><path d="M273.36,93.11c0-7.78,0-9.19-.11-10.79s-.42-2.53-2.13-2.77a16.29,16.29,0,0,0-1.76-.11.51.51,0,0,1-.42-.42c0-.29.24-.41.83-.41,2.36,0,5.72.12,6,.12s11.2.06,12.38,0c1-.06,1.95-.24,2.36-.3a3.26,3.26,0,0,1,.71-.23c.18,0,.24.23.24.47s-.3.94-.42,2.36c-.06.47-.17,2.71-.29,3.3-.06.24-.24.53-.47.53s-.42-.24-.42-.65a5.66,5.66,0,0,0-.29-1.77c-.35-.82-.89-1.18-3.72-1.53-.88-.12-6.89-.18-7.48-.18-.24,0-.3.18-.3.53V94.88c0,.36,0,.53.3.53.64,0,7.48,0,8.66-.11s2-.18,2.54-.71c.35-.36.59-.65.77-.65s.29.12.29.41-.29,1.12-.41,2.77c-.12,1-.24,2.89-.24,3.25s-.12.94-.47.94-.35-.18-.35-.47a4.38,4.38,0,0,0-.24-1.65c-.18-.71-.65-1.3-2.65-1.54-1.42-.17-7-.23-7.84-.23-.3,0-.36.18-.36.35V102c0,1.71-.06,7.55,0,8.55.12,3.36,1.06,4,6.19,4a17.3,17.3,0,0,0,5.19-.53c1.36-.59,2.06-1.48,2.36-3.48.12-.59.24-.77.53-.77s.35.41.35.77a42.35,42.35,0,0,1-.7,4.83c-.36,1.3-.89,1.3-2.89,1.3-3.89,0-6.9-.12-9-.18s-3.54-.12-4.31-.12c-.12,0-1.12,0-2.24.06s-2.18.12-3,.12c-.53,0-.82-.12-.82-.41a.4.4,0,0,1,.41-.41,14.54,14.54,0,0,0,1.59-.24c1-.18,1.12-1.18,1.36-2.65a104.16,104.16,0,0,0,.29-10.85Z" transform="translate(-19.92 -17.95)" fill="#6bbf4e"/><path d="M305.85,93.11c0-7.78,0-9.19-.12-10.79s-.41-2.53-2.12-2.77a16.65,16.65,0,0,0-1.77-.11.5.5,0,0,1-.41-.42c0-.29.23-.41.82-.41,2.36,0,5.72.12,6,.12s11.2.06,12.38,0c1-.06,1.94-.24,2.35-.3a3.45,3.45,0,0,1,.71-.23c.18,0,.24.23.24.47a22.71,22.71,0,0,0-.41,2.36c-.06.47-.18,2.71-.3,3.3-.06.24-.24.53-.47.53s-.41-.24-.41-.65a5.43,5.43,0,0,0-.3-1.77c-.35-.82-.88-1.18-3.71-1.53-.89-.12-6.9-.18-7.49-.18-.24,0-.3.18-.3.53V94.88c0,.36,0,.53.3.53.65,0,7.49,0,8.67-.11s2-.18,2.53-.71c.36-.36.59-.65.77-.65s.29.12.29.41-.29,1.12-.41,2.77c-.12,1-.24,2.89-.24,3.25s-.11.94-.47.94-.35-.18-.35-.47a4.38,4.38,0,0,0-.24-1.65c-.17-.71-.65-1.3-2.65-1.54-1.42-.17-7-.23-7.84-.23-.3,0-.36.18-.36.35V102c0,1.71-.05,7.55,0,8.55.12,3.36,1.07,4,6.2,4a17.24,17.24,0,0,0,5.18-.53c1.36-.59,2.07-1.48,2.36-3.48.12-.59.24-.77.53-.77s.36.41.36.77a42.73,42.73,0,0,1-.71,4.83c-.36,1.3-.89,1.3-2.89,1.3-3.89,0-6.9-.12-9-.18s-3.54-.12-4.3-.12c-.12,0-1.13,0-2.25.06s-2.18.12-3,.12c-.53,0-.83-.12-.83-.41a.4.4,0,0,1,.41-.41,14.72,14.72,0,0,0,1.6-.24c1-.18,1.12-1.18,1.35-2.65a100.7,100.7,0,0,0,.3-10.85Z" transform="translate(-19.92 -17.95)" fill="#6bbf4e"/><path d="M340.51,109.68c.12,4.13.59,5.37,2,5.72a12.08,12.08,0,0,0,2.59.3.39.39,0,0,1,.41.41c0,.29-.35.41-.94.41-2.95,0-5-.18-5.48-.18s-2.66.18-5,.18c-.53,0-.82-.06-.82-.41a.4.4,0,0,1,.41-.41,8,8,0,0,0,2.12-.3c1.3-.35,1.48-1.71,1.48-6.25V80.44c0-2,.29-2.54.71-2.54.59,0,1.47,1,2,1.54.83.82,8.37,8.84,16.39,17.09,5.13,5.31,10.67,11.26,12.27,12.92l-.53-25.12c-.06-3.24-.36-4.36-1.95-4.66a16,16,0,0,0-2.54-.23c-.35,0-.41-.3-.41-.48s.41-.35,1-.35c2.36,0,4.84.12,5.43.12s2.3-.12,4.42-.12c.53,0,.94.06.94.35a.58.58,0,0,1-.59.48,6.25,6.25,0,0,0-1.23.11c-1.71.36-1.83,1.36-1.83,4.37l-.12,29.36c0,3.3-.06,3.6-.41,3.6-.53,0-1.06-.42-3.95-3.07-.53-.47-8-7.84-13.5-13.56-6-6.31-11.86-12.44-13.45-14.21Z" transform="translate(-19.92 -17.95)" fill="#6bbf4e"/><path d="M401.16,111.8c-5.07-4.36-6.31-10.08-6.31-14.85a19.8,19.8,0,0,1,5.84-13.68c3.12-3,7.84-5.37,15.8-5.37a51.42,51.42,0,0,1,7.55.59,36.24,36.24,0,0,0,5.3.77c.53,0,.65.23.65.53s-.12,1-.23,2.83c-.06,1.65-.06,4.42-.12,5.13s-.3,1.06-.59,1.06-.41-.35-.41-1.06a6.54,6.54,0,0,0-2.18-5C424.63,81.2,420.85,80,416.25,80c-6.66,0-9.84,1.77-11.67,3.48-3.83,3.53-4.66,8-4.66,13.08a18.22,18.22,0,0,0,18.69,18.16c3.89,0,6.49-.29,8.55-2.35a9.47,9.47,0,0,0,2-4.19c.12-.53.17-.71.53-.71s.47.35.47.71a53,53,0,0,1-1.24,6.43c-.29.94-.41,1.12-1.3,1.47-2.12.83-6,1.12-9.37,1.12C410.48,117.17,405.23,115.34,401.16,111.8Z" transform="translate(-19.92 -17.95)" fill="#6bbf4e"/><path d="M474.15,102c0,4.83.06,8.78.29,10.85.18,1.47.3,2.41,1.89,2.65a20,20,0,0,0,2.3.24.42.42,0,0,1,.47.41c0,.23-.29.41-.88.41-2.83,0-6.14-.18-6.43-.18s-3.6.18-5.13.18c-.59,0-.83-.12-.83-.41a.4.4,0,0,1,.42-.41,6.77,6.77,0,0,0,1.53-.24c1.06-.24,1.24-1.24,1.42-2.71.23-2.07.23-5.84.23-10.67v-5c0-.23-.12-.29-.29-.29H447.5c-.18,0-.3.06-.3.29v5c0,4.83,0,8.66.24,10.73.18,1.47.35,2.41,1.89,2.65a20.52,20.52,0,0,0,2.35.24.4.4,0,0,1,.42.41c0,.23-.24.41-.83.41-2.89,0-6.19-.18-6.43-.18s-3.59.18-5.18.18c-.53,0-.83-.12-.83-.41a.4.4,0,0,1,.41-.41,7.47,7.47,0,0,0,1.6-.24c1-.24,1.12-1.18,1.35-2.65a100.7,100.7,0,0,0,.3-10.85V93.11c0-7.78,0-9.19-.12-10.79s-.41-2.53-2.12-2.77a16.65,16.65,0,0,0-1.77-.11.51.51,0,0,1-.42-.42c0-.29.24-.41.83-.41,2.36,0,5.66.12,5.95.12s3.54-.12,5.13-.12c.59,0,.83.12.83.41a.51.51,0,0,1-.41.42,6.19,6.19,0,0,0-1.3.11c-1.42.3-1.71,1-1.83,2.77-.06,1.6-.06,3.13-.06,10.91v1.06c0,.3.12.3.3.3h21.64c.17,0,.29,0,.29-.3V93.23c0-7.78-.06-9.31-.12-10.91s-.35-2.53-2.06-2.77a16.48,16.48,0,0,0-1.77-.11.45.45,0,0,1-.41-.42c0-.29.23-.41.82-.41,2.3,0,5.66.12,5.9.12s3.6-.12,5.13-.12c.59,0,.88.12.88.41a.5.5,0,0,1-.47.42,6.4,6.4,0,0,0-1.29.11c-1.36.3-1.66,1-1.77,2.77-.12,1.6-.12,3-.12,10.79Z" transform="translate(-19.92 -17.95)" fill="#6bbf4e"/><path d="M500.32,79.61c.65-1.65.88-1.94,1.24-1.94.53,0,.71.7,1.24,1.82.94,2.13,9.25,22.82,12.44,30.43,1.88,4.48,3.3,5.13,4.42,5.48a7,7,0,0,0,2.06.3c.3,0,.65.11.65.41s-.59.41-1.18.41c-.77,0-4.6,0-8.19-.12-1-.06-1.83-.06-1.83-.35s.12-.24.35-.35a.94.94,0,0,0,.47-1.36l-4.65-11.5c-.12-.23-.18-.29-.48-.29h-12a.54.54,0,0,0-.53.41l-2.95,8a10.46,10.46,0,0,0-.77,3.36c0,1,.89,1.36,1.77,1.36h.47c.41,0,.53.17.53.41s-.29.41-.76.41c-1.24,0-4.07-.18-4.66-.18s-3.13.18-5.25.18c-.65,0-1-.12-1-.41a.45.45,0,0,1,.47-.41,14.24,14.24,0,0,0,1.53-.12c2.36-.3,3.36-2.07,4.37-4.6Zm5.78,20.87c.23,0,.23-.11.17-.35l-5.12-13.74c-.3-.76-.59-.76-.89,0l-4.83,13.74c-.06.24,0,.35.17.35Z" transform="translate(-19.92 -17.95)" fill="#6bbf4e"/><path d="M533.92,102c0,4.83,0,8.78.24,10.85.17,1.47.35,2.41,1.88,2.65a20.88,20.88,0,0,0,2.36.24.4.4,0,0,1,.42.41c0,.23-.24.41-.83.41-2.89,0-6.25-.18-6.49-.18s-3.53.18-5.12.18c-.54,0-.83-.12-.83-.41a.4.4,0,0,1,.41-.41,7.29,7.29,0,0,0,1.59-.24c1-.24,1.18-1.18,1.36-2.65.24-2.07.3-6,.3-10.85V93.11c0-7.78,0-9.19-.12-10.79s-.53-2.47-1.65-2.71a9,9,0,0,0-1.6-.17.45.45,0,0,1-.41-.42c0-.29.24-.41.83-.41,1.71,0,5,.12,5.24.12s3.6-.12,5.19-.12c.59,0,.83.12.83.41a.51.51,0,0,1-.41.42,6.19,6.19,0,0,0-1.3.11c-1.42.3-1.71,1-1.83,2.77-.06,1.6-.06,3-.06,10.79Z" transform="translate(-19.92 -17.95)" fill="#6bbf4e"/><path d="M551,93.11c0-7.78,0-9.19-.12-10.79s-.41-2.53-2.12-2.77a16.48,16.48,0,0,0-1.77-.11.5.5,0,0,1-.41-.42c0-.29.23-.41.82-.41,2.36,0,5.84.12,6.13.12.54,0,4.9-.12,6.49-.12,3.3,0,7,.3,9.67,2.18a8.8,8.8,0,0,1,3.6,6.84c0,3.72-1.54,7.31-6.37,11.44,4.24,5.31,7.84,9.85,10.85,13,2.77,2.83,4.48,3.3,5.77,3.48a9.47,9.47,0,0,0,1.83.18.45.45,0,0,1,.47.41c0,.29-.29.41-1.23.41h-3.25c-2.94,0-4.24-.29-5.54-1-2.24-1.18-4.13-3.6-7.07-7.37-2.19-2.71-4.49-6-5.61-7.31a.77.77,0,0,0-.7-.3l-6.61-.11c-.23,0-.35.11-.35.41V102c0,4.83,0,8.72.24,10.79.17,1.47.47,2.41,2.06,2.65a18.77,18.77,0,0,0,2.3.24.36.36,0,0,1,.41.41c0,.23-.23.41-.82.41-2.83,0-6.14-.18-6.37-.18-.06,0-3.54.18-5.13.18-.53,0-.83-.12-.83-.41a.4.4,0,0,1,.42-.41,7.29,7.29,0,0,0,1.59-.24c1-.24,1.12-1.18,1.35-2.65A100.7,100.7,0,0,0,551,102Zm4.48,4.25a.76.76,0,0,0,.35.65,17.72,17.72,0,0,0,5.72.76,6.68,6.68,0,0,0,3.89-.88c1.77-1.18,3.13-3.83,3.13-7.66,0-6.25-3.42-9.85-9-9.85a23.71,23.71,0,0,0-3.72.29.66.66,0,0,0-.41.59Z" transform="translate(-19.92 -17.95)" fill="#6bbf4e"/><path d="M319.3,143c0-4.22,0-5-.07-5.85s-.22-1.38-1.15-1.51a9.51,9.51,0,0,0-1-.06.27.27,0,0,1-.22-.22c0-.17.12-.23.44-.23,1.28,0,3,.06,3.27.06.61,0,2.72-.06,4-.06,3.61,0,4.89,1.12,5.37,1.54a4.57,4.57,0,0,1,1.41,3.26c0,3.9-2.94,6.5-7.26,6.5a5.36,5.36,0,0,1-.8,0,.3.3,0,0,1-.29-.25c0-.23.16-.29.74-.29,3,0,5.21-1.92,5.21-4.38a5.54,5.54,0,0,0-1.6-4.13,4.8,4.8,0,0,0-3.81-1.31,9.76,9.76,0,0,0-1.56.19c-.16,0-.23.22-.23.51v11.07c0,2.63,0,4.77.13,5.89.1.8.26,1.31,1.12,1.44a11.09,11.09,0,0,0,1.25.13.21.21,0,0,1,.22.22c0,.13-.13.23-.45.23-1.53,0-3.39-.1-3.52-.1s-1.92.1-2.78.1c-.29,0-.45-.07-.45-.23a.22.22,0,0,1,.23-.22,4.37,4.37,0,0,0,.86-.13c.54-.13.61-.64.74-1.44a55.52,55.52,0,0,0,.16-5.89Z" transform="translate(-19.92 -17.95)" fill="#6d6e71"/><path d="M337.6,143c0-4.22,0-5-.06-5.85s-.23-1.38-1.16-1.51a9.49,9.49,0,0,0-.95-.06.28.28,0,0,1-.23-.22c0-.17.13-.23.45-.23,1.28,0,3.17.06,3.33.06s2.65-.06,3.52-.06a9.15,9.15,0,0,1,5.24,1.19,4.75,4.75,0,0,1,2,3.71c0,2-.84,4-3.46,6.2,2.3,2.88,4.26,5.35,5.89,7s2.43,1.8,3.13,1.89a5.07,5.07,0,0,0,1,.1.24.24,0,0,1,.25.22c0,.16-.16.23-.67.23h-1.76a5.63,5.63,0,0,1-3-.55c-1.21-.64-2.24-2-3.84-4-1.18-1.47-2.43-3.23-3-4a.45.45,0,0,0-.38-.16l-3.59-.06c-.12,0-.19.06-.19.22v.64c0,2.63,0,4.74.13,5.86.1.8.26,1.31,1.12,1.44a11.09,11.09,0,0,0,1.25.13.2.2,0,0,1,.22.22c0,.13-.13.23-.45.23-1.53,0-3.32-.1-3.45-.1s-1.92.1-2.79.1c-.28,0-.44-.07-.44-.23a.21.21,0,0,1,.22-.22,4.36,4.36,0,0,0,.87-.13c.54-.13.6-.64.73-1.44a55.52,55.52,0,0,0,.16-5.89Zm2.43,2.31a.42.42,0,0,0,.19.35,9.75,9.75,0,0,0,3.11.41,3.7,3.7,0,0,0,2.11-.47c1-.65,1.7-2.08,1.7-4.16,0-3.4-1.86-5.35-4.87-5.35a12.59,12.59,0,0,0-2,.16.36.36,0,0,0-.23.32Z" transform="translate(-19.92 -17.95)" fill="#6d6e71"/><path d="M367.52,134.77c6.34,0,11.13,3.87,11.13,10.2a10.9,10.9,0,0,1-11.29,11.11c-7.71,0-11-5.79-11-10.69A10.77,10.77,0,0,1,367.52,134.77Zm.64,20.19c2.53,0,7.62-1.35,7.62-9.22,0-6.53-4-10-8.42-10-4.7,0-8.1,3-8.1,8.86C359.26,151,363.07,155,368.16,155Z" transform="translate(-19.92 -17.95)" fill="#6d6e71"/><path d="M387.39,149.55c0,4.42-.1,6.11-.93,8-.6,1.38-1.85,2.66-4.12,4.16-.39.26-.87.55-1.16.71a1,1,0,0,1-.19,0c-.06,0-.19,0-.19-.16s.09-.29.35-.45a5.55,5.55,0,0,0,1-.74c1.83-1.82,2.69-3.23,2.69-10.24V143c0-4.22,0-5-.06-5.85s-.23-1.38-1.15-1.51c-.23,0-.71-.06-1-.06a.28.28,0,0,1-.23-.22c0-.17.13-.23.45-.23,1.28,0,3.1.06,3.26.06s1.89-.06,2.75-.06c.32,0,.45.06.45.23a.28.28,0,0,1-.22.22,3.41,3.41,0,0,0-.71.06c-.76.16-.92.55-1,1.51s0,1.63,0,5.85Z" transform="translate(-19.92 -17.95)" fill="#6d6e71"/><path d="M396.64,143c0-4.22,0-5-.06-5.85s-.23-1.38-1.16-1.51a9.51,9.51,0,0,0-1-.06.28.28,0,0,1-.22-.22c0-.17.13-.23.45-.23,1.28,0,3.1.06,3.26.06s6.08,0,6.72,0a10.81,10.81,0,0,0,1.28-.16,1.94,1.94,0,0,1,.39-.12c.09,0,.12.12.12.25s-.16.52-.22,1.28c0,.26-.1,1.48-.16,1.8,0,.12-.13.28-.26.28s-.22-.12-.22-.35a2.94,2.94,0,0,0-.16-1c-.19-.45-.48-.64-2-.83-.48-.06-3.74-.1-4.06-.1-.13,0-.16.1-.16.29V144c0,.19,0,.29.16.29.35,0,4.06,0,4.7-.06s1.09-.1,1.38-.39.32-.35.42-.35.16.07.16.23a14.89,14.89,0,0,0-.23,1.5c-.06.54-.13,1.57-.13,1.76s-.06.51-.25.51-.2-.09-.2-.26a2.54,2.54,0,0,0-.12-.89c-.1-.39-.36-.7-1.44-.83-.77-.1-3.78-.13-4.26-.13a.17.17,0,0,0-.19.19v2.27c0,.93,0,4.1,0,4.64.06,1.83.58,2.18,3.36,2.18a9.37,9.37,0,0,0,2.82-.29,2.07,2.07,0,0,0,1.27-1.89c.07-.32.13-.41.29-.41s.19.22.19.41a22.66,22.66,0,0,1-.38,2.63c-.19.7-.48.7-1.57.7-2.11,0-3.74-.06-4.89-.1s-1.92-.06-2.34-.06c-.06,0-.61,0-1.21,0s-1.19.07-1.64.07c-.28,0-.44-.07-.44-.23a.21.21,0,0,1,.22-.22,8.1,8.1,0,0,0,.86-.13c.55-.1.61-.64.74-1.44a55.52,55.52,0,0,0,.16-5.89Z" transform="translate(-19.92 -17.95)" fill="#6d6e71"/><path d="M414.49,153.17a10.22,10.22,0,0,1-3.42-8.07,10.72,10.72,0,0,1,3.17-7.42c1.69-1.63,4.25-2.91,8.57-2.91a26.93,26.93,0,0,1,4.1.32,19.94,19.94,0,0,0,2.88.41c.29,0,.35.13.35.29s-.06.55-.13,1.54,0,2.4-.06,2.78-.16.58-.32.58-.22-.19-.22-.58a3.54,3.54,0,0,0-1.19-2.72,9.17,9.17,0,0,0-5.53-1.5c-3.62,0-5.35,1-6.34,1.89-2.08,1.92-2.53,4.35-2.53,7.1A9.89,9.89,0,0,0,424,154.73c2.11,0,3.52-.16,4.64-1.28a5,5,0,0,0,1.08-2.27c.07-.29.1-.38.29-.38s.26.19.26.38a30.26,30.26,0,0,1-.67,3.49c-.16.51-.23.61-.71.8a16.56,16.56,0,0,1-5.09.61C419.55,156.08,416.7,155.09,414.49,153.17Z" transform="translate(-19.92 -17.95)" fill="#6d6e71"/><path d="M442.91,147.82c0,2.63,0,4.77.13,5.89.09.8.22,1.31,1.09,1.44a11.55,11.55,0,0,0,1.28.13.2.2,0,0,1,.22.22c0,.13-.13.23-.45.23-1.53,0-3.32-.1-3.48-.1s-2.08.1-2.92.1c-.32,0-.44-.07-.44-.23a.19.19,0,0,1,.22-.19,3.41,3.41,0,0,0,.83-.13c.58-.13.74-.67.83-1.47.13-1.12.13-3.26.13-5.89V136.4l-4.06.06c-1.76,0-2.43.23-2.85.87a4.81,4.81,0,0,0-.45.86c-.06.23-.16.26-.29.26a.22.22,0,0,1-.19-.23c0-.28.55-2.72.61-2.94s.19-.51.29-.51a10.45,10.45,0,0,0,1.25.32c.8.09,1.88.12,2.2.12h10.63a14.93,14.93,0,0,0,2-.12c.42-.07.67-.13.8-.13s.13.16.13.32c0,.83-.1,2.78-.1,3.1s-.12.36-.25.36-.19-.1-.22-.48l0-.29c-.09-.84-.7-1.44-3.39-1.51l-3.52-.06Z" transform="translate(-19.92 -17.95)" fill="#6d6e71"/><path d="M362.13,54.08c0,2.62,0,4.77.13,5.89.09.8.22,1.31,1.08,1.44a11.73,11.73,0,0,0,1.28.12.2.2,0,0,1,.23.23c0,.13-.13.22-.45.22-1.54,0-3.33-.09-3.49-.09S358.83,62,358,62c-.32,0-.45-.06-.45-.22s.07-.19.23-.19a4.08,4.08,0,0,0,.83-.13c.57-.13.73-.67.83-1.47.13-1.12.13-3.27.13-5.89V42.66l-4.07.06c-1.76,0-2.43.22-2.84.86a4.17,4.17,0,0,0-.45.87c-.07.22-.16.25-.29.25a.21.21,0,0,1-.19-.22c0-.29.54-2.72.61-2.94s.19-.52.28-.52a9.59,9.59,0,0,0,1.25.32c.8.1,1.89.13,2.21.13H366.7a13.17,13.17,0,0,0,2-.13c.41-.06.67-.12.8-.12s.13.16.13.32c0,.83-.1,2.78-.1,3.1s-.13.35-.26.35-.19-.09-.22-.48l0-.29c-.1-.83-.7-1.44-3.39-1.5l-3.52-.06Z" transform="translate(-19.92 -17.95)" fill="#6d6e71"/><path d="M392.69,54.08c0,2.62,0,4.77.16,5.89.09.8.16,1.31,1,1.44a11.49,11.49,0,0,0,1.25.12.23.23,0,0,1,.26.23c0,.13-.17.22-.49.22-1.53,0-3.32-.09-3.48-.09s-2,.09-2.79.09c-.32,0-.44-.06-.44-.22a.22.22,0,0,1,.22-.23,4.06,4.06,0,0,0,.83-.12c.58-.13.67-.68.77-1.47.13-1.13.13-3.17.13-5.8V51.42a.14.14,0,0,0-.16-.16H378.22a.14.14,0,0,0-.16.16v2.72c0,2.63,0,4.71.13,5.83.1.8.19,1.31,1,1.44a12.35,12.35,0,0,0,1.29.12.22.22,0,0,1,.22.23c0,.13-.13.22-.45.22-1.57,0-3.36-.09-3.49-.09S374.83,62,374,62c-.29,0-.45-.06-.45-.22a.22.22,0,0,1,.22-.23,4.34,4.34,0,0,0,.87-.12c.54-.13.61-.64.73-1.44a55.62,55.62,0,0,0,.16-5.89v-4.8c0-4.22,0-5-.06-5.86s-.22-1.37-1.15-1.5c-.23,0-.71-.06-1-.06a.28.28,0,0,1-.23-.23c0-.16.13-.22.45-.22,1.28,0,3.07.06,3.23.06s1.92-.06,2.79-.06c.32,0,.45.06.45.22a.28.28,0,0,1-.23.23,3.32,3.32,0,0,0-.7.06c-.77.16-.93.54-1,1.5s0,1.7,0,5.92v.58c0,.16.07.16.16.16H390c.09,0,.16,0,.16-.16v-.58c0-4.22,0-5.05-.07-5.92s-.19-1.37-1.12-1.5a9.51,9.51,0,0,0-1-.06.25.25,0,0,1-.22-.23c0-.16.13-.22.45-.22,1.25,0,3.07.06,3.2.06s1.95-.06,2.78-.06c.32,0,.48.06.48.22a.28.28,0,0,1-.26.23,3.47,3.47,0,0,0-.7.06c-.74.16-.9.54-1,1.5s-.06,1.64-.06,5.86Z" transform="translate(-19.92 -17.95)" fill="#6d6e71"/><path d="M402,49.28c0-4.22,0-5-.07-5.86s-.22-1.37-1.15-1.5a9.51,9.51,0,0,0-1-.06.28.28,0,0,1-.22-.23c0-.16.13-.22.45-.22,1.28,0,3.1.06,3.26.06s6.08,0,6.72,0,1.05-.13,1.28-.16.26-.13.38-.13.13.13.13.26a12.76,12.76,0,0,0-.22,1.28c0,.26-.1,1.47-.16,1.79,0,.13-.13.29-.26.29s-.22-.13-.22-.35a3.23,3.23,0,0,0-.16-1c-.19-.45-.48-.64-2-.83-.48-.07-3.74-.1-4.06-.1-.13,0-.16.1-.16.29v7.39c0,.19,0,.29.16.29.35,0,4.06,0,4.7-.07s1.09-.09,1.38-.38.32-.35.41-.35.16.06.16.22a14.24,14.24,0,0,0-.22,1.51c-.07.54-.13,1.56-.13,1.76s-.06.51-.26.51-.19-.1-.19-.26a2.54,2.54,0,0,0-.12-.89c-.1-.39-.36-.71-1.45-.84-.76-.09-3.77-.12-4.25-.12-.16,0-.19.09-.19.19v2.27c0,.93,0,4.09,0,4.64.06,1.82.57,2.18,3.36,2.18a9.27,9.27,0,0,0,2.81-.29A2.06,2.06,0,0,0,412,58.72c.07-.32.13-.42.29-.42s.19.23.19.42a22.24,22.24,0,0,1-.38,2.62c-.19.71-.48.71-1.57.71-2.11,0-3.74-.07-4.89-.1s-1.92-.06-2.34-.06c-.06,0-.61,0-1.22,0s-1.18.06-1.63.06c-.29,0-.45-.06-.45-.22a.23.23,0,0,1,.23-.23,8.46,8.46,0,0,0,.86-.12c.55-.1.61-.64.74-1.44a55.62,55.62,0,0,0,.16-5.89Z" transform="translate(-19.92 -17.95)" fill="#6d6e71"/><line x1="166.68" y1="125.43" x2="284.27" y2="125.43" fill="none" stroke="#6bbf4e" stroke-miterlimit="10" stroke-width="1.03"/><line x1="438.27" y1="125.43" x2="563.03" y2="125.43" fill="none" stroke="#6bbf4e" stroke-miterlimit="10" stroke-width="1.06"/><line x1="166.68" y1="31.45" x2="314.27" y2="31.45" fill="none" stroke="#6bbf4e" stroke-miterlimit="10" stroke-width="1.02"/><line x1="410.27" y1="31.45" x2="564.16" y2="31.45" fill="none" stroke="#6bbf4e" stroke-miterlimit="10" stroke-width="0.99"/><polygon points="61.92 37.64 61.93 37.68 62.36 37.54 61.92 37.64" fill="#6bbf4e"/><path d="M97.06,83.28c-.17-.07-.16.08-.1.26C97.42,83.52,96.82,83.54,97.06,83.28Z" transform="translate(-19.92 -17.95)" fill="#6bbf4e"/><path d="M117.74,69.2Z" transform="translate(-19.92 -17.95)" fill="#6bbf4e"/><path d="M119.39,67.42l0,.07.09-.14Z" transform="translate(-19.92 -17.95)" fill="#6bbf4e"/><path d="M127.83,56.27a0,0,0,0,1,0,0,.35.35,0,0,0,0-.14S127.8,56.19,127.83,56.27Z" transform="translate(-19.92 -17.95)" fill="#6bbf4e"/><path d="M98.19,83.66a.37.37,0,0,0,0,.12Z" transform="translate(-19.92 -17.95)" fill="#6bbf4e"/><path d="M109.46,80.43a.15.15,0,0,0-.1.09S109.42,80.5,109.46,80.43Z" transform="translate(-19.92 -17.95)" fill="#6bbf4e"/><path d="M112,79.5v0Z" transform="translate(-19.92 -17.95)" fill="#6bbf4e"/><path d="M104.31,82a.24.24,0,0,0,.07.09Z" transform="translate(-19.92 -17.95)" fill="#6bbf4e"/><path d="M104.84,82.44c.11.09.08.36.23.33a.76.76,0,0,0-.66-.61l0,0a.62.62,0,0,1,.11.32C104.62,82.47,104.83,82.69,104.84,82.44Z" transform="translate(-19.92 -17.95)" fill="#6bbf4e"/><path d="M104.42,82.65a.35.35,0,0,0,.07-.21C104.43,82.42,104.39,82.46,104.42,82.65Z" transform="translate(-19.92 -17.95)" fill="#6bbf4e"/><path d="M97.37,83a3.58,3.58,0,0,0,.49.55C97.84,83.19,97.56,83.2,97.37,83Z" transform="translate(-19.92 -17.95)" fill="#6bbf4e"/><path d="M104.24,82.27s-.19-.15-.16-.07.08.2,0,.26C104.22,82.54,104.18,82.32,104.24,82.27Z" transform="translate(-19.92 -17.95)" fill="#6bbf4e"/><path d="M105.25,82.23c.17-.11.39-.43.31-.64Z" transform="translate(-19.92 -17.95)" fill="#6bbf4e"/><path d="M107.31,81.73c0,.11,0,.19.06.29C107.53,81.94,107.51,81.84,107.31,81.73Z" transform="translate(-19.92 -17.95)" fill="#6bbf4e"/><path d="M107.45,81.3l.06,0A.07.07,0,0,0,107.45,81.3Z" transform="translate(-19.92 -17.95)" fill="#6bbf4e"/><path d="M107.17,81.23c.11.28.2.07.28.07C107.36,81.23,107.26,81.18,107.17,81.23Z" transform="translate(-19.92 -17.95)" fill="#6bbf4e"/><path d="M110.38,80.29c.1.31.15-.23.31-.12C110.51,80,110.44,80.24,110.38,80.29Z" transform="translate(-19.92 -17.95)" fill="#6bbf4e"/><path d="M111.69,79.18c0,.09-.06.06-.11.08l.17.22A.2.2,0,0,0,111.69,79.18Z" transform="translate(-19.92 -17.95)" fill="#6bbf4e"/><polygon points="111.18 41.08 111.17 40.87 111 40.95 111.18 41.08" fill="#6bbf4e"/><path d="M103.1,74c-.14,0,.05,0,.08.07S103.2,74.06,103.1,74Z" transform="translate(-19.92 -17.95)" fill="#6bbf4e"/><path d="M101,74.71a.28.28,0,0,0,.08.06S101.13,74.75,101,74.71Z" transform="translate(-19.92 -17.95)" fill="#6bbf4e"/><path d="M101,74.79c-.07,0-.19-.08-.22-.07a1.16,1.16,0,0,0,.49.12h0l-.19-.08C101.07,74.77,100.89,74.72,101,74.79Z" transform="translate(-19.92 -17.95)" fill="#6bbf4e"/><path d="M98.23,83.07v0S98.19,83,98.23,83.07Z" transform="translate(-19.92 -17.95)" fill="#6bbf4e"/><path d="M102.63,74.05l0,0Z" transform="translate(-19.92 -17.95)" fill="#6bbf4e"/><path d="M100.49,75.63s0,0,0,0S100.47,75.61,100.49,75.63Z" transform="translate(-19.92 -17.95)" fill="#6bbf4e"/><path d="M101.36,74.86h0Z" transform="translate(-19.92 -17.95)" fill="#6bbf4e"/><polygon points="78.68 64.38 78.68 64.39 78.69 64.39 78.68 64.38" fill="#6bbf4e"/><path d="M98.35,83.7h0l0,0,.13.12-.05,0Z" transform="translate(-19.92 -17.95)" fill="#6bbf4e"/><path d="M102.2,79.48l0,0a0,0,0,0,1,0,0Z" transform="translate(-19.92 -17.95)" fill="#6bbf4e"/><path d="M103,74.34l0,0S103,74.35,103,74.34Z" transform="translate(-19.92 -17.95)" fill="#6bbf4e"/><path d="M103.19,74.18c-.13-.05-.28-.08-.41-.12A1.44,1.44,0,0,0,103.19,74.18Z" transform="translate(-19.92 -17.95)" fill="#6bbf4e"/><path d="M101.27,74.79l.09,0a.61.61,0,0,1-.13-.07C101.15,74.72,101.26,74.78,101.27,74.79Z" transform="translate(-19.92 -17.95)" fill="#6bbf4e"/><path d="M101,74.87s.08.14.2.19Z" transform="translate(-19.92 -17.95)" fill="#6bbf4e"/><path d="M100.56,75.15a.52.52,0,0,0-.15-.07S100.45,75.13,100.56,75.15Z" transform="translate(-19.92 -17.95)" fill="#6bbf4e"/><path d="M100.72,75.27h0Z" transform="translate(-19.92 -17.95)" fill="#6bbf4e"/><path d="M100.72,75.27c.06,0,.11,0,.12,0C100.67,75.2,100.74,75.26,100.72,75.27Z" transform="translate(-19.92 -17.95)" fill="#6bbf4e"/><path d="M100.22,75.77c.14,0,0,0,0,0C100.09,75.64,100.32,75.79,100.22,75.77Z" transform="translate(-19.92 -17.95)" fill="#6bbf4e"/><path d="M100.36,76.06l-.16,0a.23.23,0,0,0,.15.07S100.35,76.07,100.36,76.06Z" transform="translate(-19.92 -17.95)" fill="#6bbf4e"/><polygon points="79.03 63.13 79.08 63.19 79.14 63.19 79.03 63.13" fill="#6bbf4e"/><path d="M98,83.12s.19.11.13,0S98,83.09,98,83.12Z" transform="translate(-19.92 -17.95)" fill="#6bbf4e"/><polygon points="78.87 66.91 78.88 66.91 79.03 66.69 78.87 66.91" fill="#6bbf4e"/><path d="M102.92,45.48l0,0,.06,0c.08,0,.14,0,.1.05s.14,0,.06-.06l.11.09a1,1,0,0,1-.2-.24v0a1,1,0,0,0-.29.12l.1.12Z" transform="translate(-19.92 -17.95)" fill="#6bbf4e"/><path d="M102.67,45.49h0Z" transform="translate(-19.92 -17.95)" fill="#6bbf4e"/><path d="M104.17,47.41c0,.08,0,.08.06.06h0Z" transform="translate(-19.92 -17.95)" fill="#6bbf4e"/><path d="M104.23,47.36a.17.17,0,0,0,0,.1h0a.22.22,0,0,0,0-.09Z" transform="translate(-19.92 -17.95)" fill="#6bbf4e"/><path d="M80.1,45.33c-.09-.06-.13,0-.13,0v0A.19.19,0,0,1,80.1,45.33Z" transform="translate(-19.92 -17.95)" fill="#6bbf4e"/><path d="M101,44.5s0,0,0,0a0,0,0,0,0,0,0A.17.17,0,0,0,101,44.5Z" transform="translate(-19.92 -17.95)" fill="#6bbf4e"/><path d="M103,45.58H103c.1.08.26.22.16.09A.47.47,0,0,1,103,45.58Z" transform="translate(-19.92 -17.95)" fill="#6bbf4e"/><path d="M103,45.68c.06.07.07.08,0-.06A.13.13,0,0,1,103,45.68Z" transform="translate(-19.92 -17.95)" fill="#6bbf4e"/><path d="M103.87,42.17s0,0-.06,0h0A.08.08,0,0,0,103.87,42.17Z" transform="translate(-19.92 -17.95)" fill="#6bbf4e"/><path d="M80,45.55a.43.43,0,0,0-.06-.18h0a.77.77,0,0,0,0,.17Z" transform="translate(-19.92 -17.95)" fill="#6bbf4e"/><path d="M133.49,52.3c.08.09.12.08.13,0v0A.14.14,0,0,1,133.49,52.3Z" transform="translate(-19.92 -17.95)" fill="#6bbf4e"/><path d="M102,48.88l-.06.11a.11.11,0,0,0,.09,0C102,48.94,102,48.89,102,48.88Z" transform="translate(-19.92 -17.95)" fill="#6bbf4e"/><path d="M133.59,51.79s0-.1,0-.15S133.56,51.73,133.59,51.79Z" transform="translate(-19.92 -17.95)" fill="#6bbf4e"/><path d="M98.68,83.8s-.05-.09-.05-.13l0,.08A.15.15,0,0,0,98.68,83.8Z" transform="translate(-19.92 -17.95)" fill="#6bbf4e"/><path d="M101.81,80.27s0,0,.07,0l0,0S101.83,80.25,101.81,80.27Z" transform="translate(-19.92 -17.95)" fill="#6bbf4e"/><path d="M146.43,33.7c-7.54-8.78-57.14-29-104-2.79-4.37,22,.18,43.21.18,43.21C59.06,81.55,57.7,91.26,59,97.4c31.68-5.17,66.59,0,66.59,0,1.29-20,16.49-22.3,16.49-22.3S150.94,38.94,146.43,33.7Zm-14,6.45-.41.21.38-.25Zm-28.55-.35c-.1.05-.18,0-.29,0C103.76,39.65,103.87,39.65,103.91,39.8Zm-1.41-3.26c-.12.15.42.22.09.3C102.55,36.78,102.31,36.71,102.5,36.54ZM79.62,50.3c0-.13.27,0,.23-.15C80,50.29,79.65,50.27,79.62,50.3Zm18.54-4.88c.11-.07.18-.21.32-.28s-.24.07-.32.07.11,0-.06.09,0-.17-.18,0a1.87,1.87,0,0,1,.3-.26l-.13,0c.19-.25.51-.25.75-.55h-.07c.18-.21.32-.11.31-.26a1.48,1.48,0,0,0-.5.37c-.13,0-.5.38-.56.28.09-.12.09.05.23-.11s-.16,0-.13-.09a.69.69,0,0,1-.33.25c0-.13.21-.14.18-.21s-.26.1-.3.22c-.27.21,0-.13-.21,0,.16-.18.47-.3.5-.45-.16.17-.31.13-.54.39a.85.85,0,0,1,.29-.27c.07-.13-.4.19-.07-.13l-.19.15.16-.23s-.34.11-.07-.13c0,0-.09-.08-.25.12s.18-.06,0,.19c.17-.22-.09,0-.19,0l.1-.1s-.06,0-.18,0a.27.27,0,0,0,.14-.14l-.17.12c-.14,0,.26-.26.16-.28l.17-.06s.09-.14,0-.13l-.47.33c-.09,0,.15-.16,0-.06l.22-.11s.2-.24.16-.29-.33.15-.37.27,0-.14.16-.21c-.1,0-.15.15-.28.18.08-.11.16-.29.27-.45l.28-.16,0,0c.23-.13.13-.15.36-.31,0-.05-.09,0-.16,0-.26.36-.51.32-.79.6-.16,0,.67-.69.12-.38,0,.07-.22.18-.23.21s-.28.21-.23.06.26-.32.49-.4c-.1.08,0,.11,0,.09s.31-.26.26-.32-.11,0-.26.09.06,0-.13.17.13-.26-.2,0c.06,0-.1.19-.22.29h-.12l.12-.09c0-.15-.22.16-.26,0l.19-.23c.21-.16,0,.19.32-.1,0-.07-.21.06-.17-.07h.09s.39-.42.08-.28c-.13,0-.12.09-.24.19s-.25,0-.32,0c.24-.19-.06-.11.23-.26-.11.15,0,.26.25.09s0,.1.32-.12c-.06-.08.21-.31.38-.48,0,0-.1,0-.13,0-.18.13-.15.16-.32.31,0-.12-.18-.11-.38,0,.06-.1.23-.23.28-.22a.35.35,0,0,1-.22-.29c-.19.25-.16,0-.27.13A3.07,3.07,0,0,1,96.3,42c-.17,0,.16-.13.1-.19a.94.94,0,0,1-.43,0c.13-.26-.18-.21-.25-.28s.33-.32.34-.4-.23.26-.18.1l.05,0c-.07,0,0-.27-.32,0l.28-.21s-.06,0-.1,0,.15-.16.22-.19c.14-.2-.11-.06-.16-.11l-.12.17c-.2,0-.09-.17-.22-.2l.15-.13-.13,0c.13-.1.18-.2.12-.18l.42-.18c-.06.11-.21.12-.34.27s0,.18.15.06c0,0,0,0-.12,0,.2-.2.23-.14.39-.24,0,0,0,0,0-.05s.14,0,.18,0-.11.13-.18.17c.19-.16.28-.16.29-.06-.18.23.23,0,.24.11a1.62,1.62,0,0,1-.51.26c0,.13,0,.05,0,.17a1.92,1.92,0,0,1,.51-.29l-.13.13c.12,0,.32-.19.34-.09a1.1,1.1,0,0,0,.2.39l-.14.13c.34-.21.25.06.44,0,0,.23.34.13.16.39a1,1,0,0,1,.66.43l-.23.14c.18-.09-.09.12,0,.13.12-.18.25-.13.39-.21-.07.23.2.19.41.15l-.13.12c.32-.15.18.15.23.29s-.16.19-.11.21a1,1,0,0,1,.48-.14.42.42,0,0,1,.05.33c.5-.05.5.35.89.41l-.14.16c.54-.08.47.47.81.5l-.29.22c0,.14.19.08.37-.11,0,.06,0,.07.09.09,0-.22-.07-.43-.09-.61l.3-.08c-.69-.05-.42-.61-.77-.8.16-.53-.56-.89-.13-1.28a7,7,0,0,1-1.15-2.12l.47,0c-.36,0,.21-.19.09-.31-.27.3-.52,0-.81,0,.18-.49-.38-.77-.8-.92l.27-.15c-.67,0-.38-.6-.51-1,.09-.1.31-.31.22-.4a2,2,0,0,1-1-.15,1.1,1.1,0,0,1-.15-.39,1.52,1.52,0,0,1-.06-.47,2.17,2.17,0,0,1-.65-.29,3.14,3.14,0,0,1-.48-.39,1.9,1.9,0,0,0-1-.61l.17-.32a1.68,1.68,0,0,1-.65,0,3.68,3.68,0,0,1-.49-.23l-.22-.13a2,2,0,0,0-.22-.09.54.54,0,0,0-.45,0L93,33c-.16-.22-.45.08-.45.53-.07-.11-.18,0-.27,0s-.18,0-.24-.24c-.18-.1-.2.31-.33.4a.58.58,0,0,0-.61,0L91,33.7a.17.17,0,0,1,0,.07h-.1L91,33.7c0-.15-.07-.33-.15-.34-.09.21-.56,0-.19.66-.24-.16-.44,0-.62.19s-.37.31-.69.16c.12.16,0,.24.08.38a.61.61,0,0,1-.27.08h0s.18-.12.09-.07h0l0,0-.08,0-.18.06a.73.73,0,0,0-.29.15.43.43,0,0,0-.11.12.52.52,0,0,0,0,.14c-.09,0-.13-.34-.24-.27s.15.22.15.36a.38.38,0,0,1-.09.18l-.06.07-.08.07a1.44,1.44,0,0,1-.42.18,3.38,3.38,0,0,0-.44.18.65.65,0,0,0-.33.28,7.41,7.41,0,0,1-.31.7l-.18.32-.2.33a8.7,8.7,0,0,0-.7,1.31l-.13-.07c.18.27,0,.39-.2.52s-.31.27,0,.55c-.16,0-.17.26-.42.11.13.19,0,.34-.15.51a.5.5,0,0,0-.14.53s0,0,0,0,.08.09.05.12l-.06-.1c-.41.3-.07.75-.45,1.1,0,0-.08-.14-.23-.18-.32.1.54.52-.18.46,0,.1.34.14.33.08-.47.89-.15,2,0,3-.47.7-1.21,0-.71.58-.14,0,.27.05.13.05.19.23-.82.32-.45.5.44-.06.24.11.51.12-.29.44-.69.54-.35.9l-.24,0c.67.42.33.91,1.1,1.23a20.86,20.86,0,0,0,.68,3.29c.16.52.31,1,.48,1.56s.33,1,.49,1.47c.07.29.14.57.22.86l.13.42.06.22.07.18.26.72c.09.25.18.49.29.74.21.5.4,1,.6,1.52s.36,1,.53,1.57c-.31.74-.29.79.21,1.18-.1,0-.14,0-.21.08.46-.21.24.34.69.16A4.93,4.93,0,0,0,89.11,64c.23.33.45.67.68,1-.11-.09-.5.07-.38.19l.36,0-.1.1a.39.39,0,0,0,.47-.17,9,9,0,0,1,1,1.27c.13.23.26.46.38.7s.26.47.38.71.24.48.37.71.26.47.41.7a6.88,6.88,0,0,0,1,1.26c.17.53.81.92,1.25,1.25.64,1.63,1.38,3.08,3,3.84,0,0-1,.84-1.75.58a1.44,1.44,0,0,1-1.48-.66c-.37-.41-.68-.88-1.29-1-.13,0,.47-.42.17-.51a1.93,1.93,0,0,1-1.53-1,5.16,5.16,0,0,1-.69-2l.18-.06c0-.25-.67-.09-.76-.33.09-.07.18,0,.28-.19-.32.18-.41-.23-.68-.14,0-.16.28-.33.33-.52l-.41.14c-1,.29-.5-.78-1.22-.89.1,0,.19,0,.24-.13-1-.33-1.49-1.26-2.17-1.94a1.33,1.33,0,0,0,.49-.3.7.7,0,0,1-.85-.16c.33-.33-.57-.17-.51-.55l.1,0c-.51,0,.06-.42-.51-.29l.23-.3c-.59.23.13-.44-.24-.44l-.11.07c-.21-.08,0-.31-.15-.4l.06,0c-.32-.25-.12-.6-.55-.37.29-.29.33.24.74-.21a5.17,5.17,0,0,1-1.18-1.47c-.3-.56-.53-1.14-.77-1.71.13-.2.15-.3.31-.4-.14-.08-.25-.4-.53-.41,0,0,.21-.16.21-.24.09-.27-.6,0-.48-.34a.59.59,0,0,0,.48-.07c-.44-.06-.47-.35-.67-.54a.45.45,0,0,0,.3,0c-.5-.12-.08-.5-.41-.63h.29c.21-.46-.6.07-.51-.3.11,0,.21,0,.32,0-.58-.14-.56-.67-.82-.91a.25.25,0,0,0,.12,0,2,2,0,0,1-.15-.49,1.07,1.07,0,0,0-.27-.5c.09-.16.68-.13.49-.45-.55.15-.37-.53-.95-.17,0-.33.13-.85-.1-1,.24.09.65-.28.75,0l.3-.25c.23,0,0,.2.23.08,0-.11-.33-.43-.26-.55-.39-.16-1.06-.27-1.2-.63.22.12.51-.12.66-.12l-.52-.16-.57-.18c0-.13.44-.09.26-.25a.73.73,0,0,1-.38-.08c.06-.06-.2-.52.35-.64.21-.08.14.19.32,0,0-.23-.23-.22-.26-.45l.07,0c.07-.16-.28-.43-.57-.23,0,.11.33-.07.19.1a.61.61,0,0,1-.48-.58.93.93,0,0,0,.4.07,2.17,2.17,0,0,1-.8-.93c-.08,0-.12,0,0,0l0,0c.11,0,.32.07.34.11.29-.46-.52-.9-.08-1.29a.82.82,0,0,1-.27,0c0-.23.41-.22.27-.37.22,0-.08-.18-.15-.32s0-.06.08,0A1.43,1.43,0,0,1,80,46.09c-.15,0-.53-.33-.51-.44l.35.06a.17.17,0,0,0,.1-.13s0,0,0,0a.23.23,0,0,1,0-.17v0c-.09-.17-.21-.33,0-.47-.07.06.46.22.46,0s-.16-.11-.25-.38l-.13-.17c-.32-.05,0-.26-.27-.21.18-.07-.13-.48.39-.38l.44.09c0-.13-.44-.28-.62-.41a.35.35,0,0,1,.21,0c-.68-.12.1-.33-.39-.57.27-.25.14-.74.58-.8-.15-.26-.36-.51-.15-.74,0,.07,0,.14.19.19.23-.12.06-.2,0-.37.09.06.46-.22.74-.33-.14-.27-.52-.29-.73-.37.71,0-.25-.74.42-.82.06.1.22.41.43.28.7,0-.34-.54.07-.76l-.56-.1c.37,0-.14-.58.39-.36-.15-.17.31-.31-.21-.47a1.43,1.43,0,0,0,.51-.81.67.67,0,0,1,.82-.47c0-.11.12-.25-.15-.34s.11.27-.09.22c0-.08-.11-.16-.17-.2.19-.1.28-.2.61.15.47-.17-.62-.79-.19-1.13.19.13.28.14.32,0l-.17-.44c.26-.23.53.12.85.32,0-.17.16-.33,0-.56l.51.11c-.37-.08-.1-.25-.13-.37l0,.12c.15.08.18-.14.2-.25a.53.53,0,0,0-.51,0c-.08-.17,0-.26-.05-.48.26.26.39-.06.51-.14s-.14-.36-.1-.39c.15.13.19-.18.32.1,0,.08-.23,0-.16.15.18,0,.43.25.38-.08s-.58-.46-.18-.54a1.19,1.19,0,0,0,.16.37l.34-.07-.23-.25c.09,0,.09.08.13.09-.19-.31.24-.4,0-.74.09-.12.41,0,.54-.11v0c.26,0,.33-.22.32-.49l0,.06a.52.52,0,0,0,.24-.48c.36.05.82,1,.79.48.18-.14-.07-.71-.26-.84a.48.48,0,0,0,.27-.12.63.63,0,0,0,.12-.11l0-.06,0,0h0l.08-.05a.57.57,0,0,1,.69-.14c0-.15-.09-.21,0-.34a6.25,6.25,0,0,0,.9-.51,1.48,1.48,0,0,1,.47-.17.85.85,0,0,1,.53.15c-.14.19.1.32.16.51.06-.34.27.24.18-.27-.11-.29-.13-.44-.36-.5a1.5,1.5,0,0,1,.66-.31.8.8,0,0,1,.63.11c-.14-.12-.07-.23,0-.34.06.5.36.49.58.31v-.3l.19.29c.08-.1,0-.63.32-.36a.87.87,0,0,0,.09.31l.2-.21a1.08,1.08,0,0,1,.24-.18.35.35,0,0,1,.47,0s.06.11.11.22.09.22.09.22.36-.26.16-.42c.46.34.75.43.81.83a2,2,0,0,1,.79-.33,2,2,0,0,1,.42,0l.41.06a3.68,3.68,0,0,1,1.42.68l-.15.17c.09.32.33-.25.39,0-.19.13-.12.49-.42.59.13.38.58-.06.83,0,.22-.21-.26,0,0-.24.11-.05.22.49.55.19,0,.19-.31.39-.46.5l.3,0c-.08.27-.35.35-.61.44a1,1,0,0,0-.64.54l.17.06c-.19.45-.66.12-.47.5.27-.05.83-.42.84-.68.38.18.87-.65,1.16-.3-.1.28-.3-.21-.49.11s.43.16.47.39c0-.27.43-.45.59-.4,0,.31-.42.17-.23.44.23-.14.57,0,.53-.34.52-.29.11.36.57.22-.25.33-.94.34-.88.75.27-.31.7,0,1-.51,0,.18-.24.38-.49.45-.08.3.86,0,.27.47l.36-.19c-.07.13-.09.26-.21.47.09.14.75.15.24.47.08,0,.27.35.54,0,.08-.34-.41-.06,0-.49-.29.4.24.26.46.31l-.19.14c.13,0,.18.21.43.13a.34.34,0,0,0-.29.21l.35-.1c.33.2-.5.38-.24.61l-.37-.07c.08,0-.15.27,0,.35.31-.11.71-.2,1-.27s-.21.22,0,.24l-.38,0c-.11,0-.4.4-.28.61s.7.08.74-.22c.07.1,0,.35-.29.37.23.19.3-.19.59-.07-.15.18-.3.59-.51.88l-.6,0,.06.15c-.48,0-.25.23-.72.33,0,.12.17.17.33.21.54-.59,1.07-.1,1.64-.46.35.34-1.39.91-.25.91.11-.11.46-.13.48-.22a.1.1,0,0,1-.07-.1c.06,0,.08.08.07.1.19.07.6-.11.49.23-.34-.12-.54.49-1,.32.22-.07.09-.24,0-.27-.2.21-.64.25-.54.49s.22.34.53.18-.13-.22.27-.27c.25.27-.28.52.41.41-.13-.18.23-.37.48-.46l.24.18-.26,0c0,.44.48,0,.55.34l-.42.34c-.44.07,0-.59-.65-.28.06.24.42.2.33.48-.07,0-.11-.09-.19-.11s-.85.48-.22.63c.27.1.26,0,.51-.12.2.35.49.38.61.61-.51.11.09.45-.5.34.25-.21,0-.76-.46-.73-.54.33,0-.32-.64-.19.09.3-.49.47-.85.65,0,.09.18.11.25.14.37-.09.33-.19.7-.32,0,.36.3.61.71.69-.14.16-.51.24-.58.12a2.11,2.11,0,0,1,.28,1.2c.45-.35.32.17.55.15a3.12,3.12,0,0,1-.59.19c.32.18-.33.07-.27.32a2.5,2.5,0,0,1,.75.69,6.12,6.12,0,0,1,.32-.94l0,0h-.13c-.07,0,.08-.1.12-.13a.09.09,0,0,0,.06,0c.05-.07.09-.15.14-.23a.68.68,0,0,0-.31,0l0,0a.82.82,0,0,1,.47-.44,3.88,3.88,0,0,1,.7-1.1c.4,0,.4,0,.36-.24,0,0,0,0,.11.06-.26-.14,0-.13-.21-.27a3.27,3.27,0,0,0,.35-.73c0,.06.21.19.22.13l-.14-.14.08,0a.34.34,0,0,0-.24-.17c.11-.74,1-1.08,1.21-1.73.18-.08.19-.34.22-.53.59-.28,1.1-.56,1.1-1.16,0,0,.64.42.7.7.47.56-.32.57-.07,1,0,0-.33-.18-.29-.07.33.51-.17.78-.7.91l-.08-.06c-.1,0,.17.26.09.3s-.08-.07-.17-.09c.18.11,0,.16.15.26-.09,0-.24-.09-.34-.1l.2.14c.45.38-.17.24,0,.52-.05,0-.08-.07-.13-.08.19.39,0,.64,0,1a1,1,0,0,0-.29-.16c.21.13.23.24.24.33-.25-.09.15.22,0,.24l0,0c.21.19-.18,0,.08.22l-.2-.06c.31.2-.21,0-.07.13l.06,0c.06.08-.12,0-.09.09h0c0,.14-.17.11.08.24-.22-.07,0-.15-.37-.25a1.58,1.58,0,0,1-.3,1.11.72.72,0,0,1-.27,0c0,.06,0,.15.09.25a.34.34,0,0,0-.16,0c-.13,0,.25.22.1.22a.57.57,0,0,0-.23-.15c.16.16.09.22.12.32a.29.29,0,0,0-.13-.1c.19.19-.12.1,0,.24l-.14-.1c-.23,0,.3.19.14.23a.33.33,0,0,0-.15-.1c.22.22.06.31.11.43l-.06,0c0,.11-.14.16-.08.32-.08,0-.35-.2-.35-.08.3.16,0,.23.4.35-.09,0-.27.13-.2.23-.09-.09-.38-.15-.37-.23l-.2,0c-.12-.07.07,0-.09-.1s0,.21,0,.21c.15.16.46.39.44.51-.08-.09-.27-.13-.35-.17l.47.41s-.24-.11-.19,0a.45.45,0,0,1,.17.13s0,.18-.3,0c-.12,0,0-.09-.15-.1s.07.12,0,.18l0,0c-.06,0,.06.19.24.23h0s-.16-.07-.07-.07a.23.23,0,0,1,.07.07c.08.09.09.16.06.21a.62.62,0,0,0-.19-.14,1,1,0,0,1,.25.46s0,0,0,0v0a1.62,1.62,0,0,1-.16-.12c-.23,0,.14.35-.18.37l.14.08c-.06.08-.25,0-.2,0-.12-.07,0,.09,0,.17s0,0,0,0c0,.17,0,.55-.22.59a.72.72,0,0,1,.14.41l-.13-.19s0,0-.07,0,0,0,0,0a.07.07,0,0,1,0,0h0c0,.11,0,.24-.1.17,0,0-.14-.33-.17-.25s.05.12,0,.28l0,.14c.11.2,0,.1.07.25-.08-.08,0,.29-.2-.06l-.14-.3a4.84,4.84,0,0,0,.15.55.26.26,0,0,1-.07-.11c.2.47-.09.08,0,.51-.13,0-.17.29-.3,0,0,.24,0,.52-.07.51a.72.72,0,0,0,0-.24c-.08-.11,0,0,0,.2a3.22,3.22,0,0,0-.23-.37,4.14,4.14,0,0,0,.13.76c-.09-.26-.1-.11-.11.07s0,.36-.1.11a1.33,1.33,0,0,0-.06-.53c-.07-.28-.07-.13-.06.07s0,.46,0,.36l.08.53c0-.13-.05,0-.06.06s0,0-.07-.26c0,.16-.13-.31-.07.24a.83.83,0,0,0-.28-.45c-.09-.1-.18-.25-.22-.73,0,.06-.07-.08-.06.17s0-.13.06.07c0,0,0,.12,0,.18a1,1,0,0,1,0-.58c-.08-.39-.13.67-.27.33,0,0,0,0,0-.06l-.12,0,0,0s0,0,0-.06,0,0,0,0a1.41,1.41,0,0,1,0-.4h-.05l.06,0,0-.23s-.1-.07-.15.12v-.41c0,.29-.07.13-.1.17l0,0c0-.13,0-.11-.08-.1a.85.85,0,0,0,0,.38c-.05.09-.08,0-.15.12.08-.25,0-.27-.06-.34s-.11.17-.12.15-.07-.11,0-.24,0,.16,0,.08.07-.35,0-.25-.14.49-.18.24a1,1,0,0,0,.12-.19l0-.21-.08.21c0-.07,0-.08,0-.11-.11.19-.14-.07-.27.15,0,0,0-.24,0-.3h0c0-.16-.09-.15-.2-.08l0,0s-.1-.08-.2,0c0-.21.42-.67.21-.53-.06-.06-.33.18-.38.31,0-.12-.12-.15-.2-.21a.21.21,0,0,1-.09-.29c-.07,0-.1.09-.16.09-.06-.18-.42-.11-.22-.48.1,0,.16-.13.24-.2-.16.08.11-.16-.13,0s-.2.18-.23.26a.17.17,0,0,1-.15-.28.24.24,0,0,1-.16.11c.22-.18.21-.26.09-.24l-.13.11.1-.15s-.29.23-.2.07l.13-.13c-.15,0-.38.15-.32,0l.16-.21a.29.29,0,0,0-.21.15c0-.18,0-.25.16-.42-.53.21-.73,0-.85-.17l.1-.08C98.37,45.25,98.12,45.51,98.16,45.42ZM97,44.13s-.12.1-.14.09L97,44.1S97,44.14,97,44.13Zm-.43-.19s.13,0,0,.08C96.66,43.94,96.4,44.05,96.56,43.94Zm-.72-1.53s-.07,0-.1,0,.1,0,.1,0a.57.57,0,0,0,.16-.13l0,0a.85.85,0,0,1-.32.38s.12-.1.17-.16C95.7,42.6,95.82,42.46,95.84,42.41Zm0-.13s.07,0,.12-.07,0,.06,0,.08S95.8,42.34,95.85,42.28Zm.33.3a.29.29,0,0,1-.28.06Zm-.28.74.14-.09C96,43.33,95.93,43.36,95.9,43.32Zm.38-.27s0,.07,0,.12S96.14,43.17,96.28,43.05ZM96,40c-.1.11-.12.21-.3.3C95.82,40.19,95.91,40.06,96,40Zm-.21,0c.09-.06.16-.1.12,0S95.78,40.11,95.81,39.94Zm-15-.77.2.09-.14.08Zm21-3.65-.23.17s0-.08-.06-.1A.21.21,0,0,1,101.88,35.52Zm1.23,4.38c0-.09,0-.17.11-.25S103.4,39.83,103.11,39.9Zm.6,1.88-.55-.38C103.37,41.36,103.63,41.61,103.71,41.78Zm1.65,2.31h0l-.24-.13Zm-.06,1.84s-.14-.09-.15,0S105.28,45.93,105.3,45.93Zm-2.23,4V50l0-.22Zm31.55-2.2,0,0c-.1-.06-.29-.14-.31-.19a.87.87,0,0,0,0,.8c.08.27.13.53-.13.71.1,0,.32,0,.26,0-.08.26-.46.17-.35.37-.22,0,0,.22.07.41s0,.06-.07,0a2.64,2.64,0,0,1,.1.72,1.41,1.41,0,0,1-.33,1c.14,0,.44.48.39.61l-.33-.14a.2.2,0,0,0-.13.12s0,.06,0,.06a.34.34,0,0,1-.09.18,0,0,0,0,0,0,0c0,.21.13.42-.16.52.08,0-.39-.34-.43-.14-.06.37.12.15.14.47l.07.23c.31.11-.1.29.21.29-.2,0,0,.57-.48.35l-.41-.19c0,.16.36.4.5.59a.29.29,0,0,1-.2,0c.62.27-.2.34.21.71-.34.22-.34.8-.79.78.09.32.21.64-.05.84,0-.08,0-.16-.14-.23-.26.08-.12.2-.09.4-.08-.08-.52.17-.83.24.08.32.44.4.63.53-.35,0-.33.16-.31.39s0,.45-.31.44c0-.12-.12-.48-.37-.38-.7-.11.22.65-.25.83l.53.18c-.38,0,0,.66-.46.34.12.22-.38.3.11.54-.71.29-.56,1.44-1.58,1.24,0,.12-.17.25.09.37s-.07-.29.13-.22c0,.08.09.17.15.22-.22.09-.33.19-.61-.2-.52.16.53.87,0,1.21-.17-.15-.26-.17-.32,0l.14.47c-.27.24-.53-.13-.84-.34-.06.18-.21.36,0,.59l-.52-.1c.37.07.09.26.11.38l0-.12c-.15-.07-.2.16-.22.28a.56.56,0,0,0,.54-.06c.07.18,0,.27,0,.49-.27-.26-.39.09-.51.19s.15.36.11.39-.2.2-.33-.07c0-.08.23,0,.15-.17-.18,0-.44-.22-.39.11s.61.42.22.54c0-.13-.13-.23-.19-.37l-.35.12.26.23c-.09,0-.1-.07-.15-.08.22.29-.21.44.06.75-.08.15-.39.11-.52.2v0c-.27,0-.33.29-.25.55l-.06,0a.49.49,0,0,0-.13.5c-.36,0-1-.78-.88-.29-.16.2.2.72.43.78-.47.21-.42,1-1.1.92.06.14.15.17.11.32a4,4,0,0,0-.66.81,1,1,0,0,1-.9.44c0-.24-.24-.24-.37-.38.09.33-.36-.09,0,.33.23.2.32.32.55.27-.18.4-.63.87-1,.8.18,0,.18.16.18.28-.31-.38-.58-.23-.61,0l.18.24-.32-.13c0,.13.37.52,0,.46a1.22,1.22,0,0,0-.26-.18,3.29,3.29,0,0,1,0,.54.44.44,0,0,1-.08.22l0,0h0l0,0h0l-.12,0-.46-.18c0,.11,0,.43.22.39-.51.1-.75.26-1.1.07a2.23,2.23,0,0,1-.52,1.47,3.8,3.8,0,0,1-.52.54,6.7,6.7,0,0,1-.58.4l-.11-.19c-.32,0,.13.38-.1.36-.06-.22-.42-.27-.42-.59-.41,0-.12.57-.25.78.14.26,0-.26.22.07,0,.12-.52.09-.31.48a1.23,1.23,0,0,1-.37-.57l0,.29c-.5-.29-.06-1.08-.64-1.46l-.11.16c-.41-.29.1-.7-.37-.58,0,.29.18.92.44,1-.28.34.43,1,0,1.22-.25-.15.28-.26,0-.52s-.25.41-.48.41c.27,0,.36.5.29.65-.31,0-.1-.44-.41-.29.1.24-.06.57.26.58.21.55-.38.05-.3.52-.31-.28-.21-1-.63-1,.26.3-.1.69.38,1.09-.19,0-.36-.28-.4-.54-.3-.1,0,.88-.51.25l.15.38a5.15,5.15,0,0,1-.46-.26c-.16.09-.22.77-.51.24,0,.08-.39.26,0,.54.35.1.1-.41.51,0-.39-.31-.29.24-.34.45l-.14-.2c0,.13-.23.19-.15.44a.31.31,0,0,0-.21-.29l.1.36c-.22.33-.38-.51-.63-.25l.09-.37c0,.08-.29-.15-.38,0,.11.32.19.72.27,1-.1.2-.23-.2-.26,0l0-.39c0-.11-.41-.39-.63-.26s-.09.72.22.75a.29.29,0,0,1-.39-.28c-.2.24.2.29.08.59-.2-.14-.63-.26-1-.45l0-.6-.15.07c0-.49-.26-.23-.37-.71-.14,0-.19.2-.23.36.65.49.13,1.08.54,1.63-.34.39-1-1.31-1-.15.12.09.17.45.26.46-.06.19.15.59-.2.52.1-.37-.56-.48-.42-1,.08.21.26.06.29,0-.23-.18-.3-.62-.57-.48s-.34.27-.15.56.23-.16.3.24c-.26.29-.58-.21-.4.48.18-.16.41.17.53.4l-.16.27-.08-.25c-.46,0,.1.47-.3.6l-.41-.36c-.11-.43.63-.1.24-.71-.25.11-.17.47-.48.42,0-.08.09-.13.11-.21s-.62-.77-.71-.11c-.08.28.07.25.19.49-.35.27-.34.57-.57.74-.19-.49-.46.17-.43-.44.27.21.81-.1.72-.61-.42-.48.34-.08.14-.68-.32.15-.58-.4-.81-.73-.1,0-.11.21-.13.3.13.35.24.28.43.62a.88.88,0,0,0-.65.87c-.2-.11-.34-.46-.22-.56a2.83,2.83,0,0,1-1.25.59c.45.35-.13.36-.06.58a2.87,2.87,0,0,1-.32-.53c-.14.37-.14-.31-.41-.17a2.88,2.88,0,0,1-.62,1c-.58-.21-.93.48-1.25.69-.28-.13-.43-.66-.66-.64h0a.08.08,0,0,1,0,0c-.06.14.44.38,0,.34l0-.11c0,.06-.13.08-.25.12s0,.37,0,.54a.57.57,0,0,1-.29,0c-.16-.05-.25-.13-.18,0l.2.11.19.09a1.63,1.63,0,0,1,.6.44c0,.37,0,.37.14.3a.6.6,0,0,0-.06.11c.14-.26.1,0,.23-.23.15.13.35.13.53.21,0,0-.16.23-.12.23l.12-.16,0,.08a.46.46,0,0,0,.14-.25c.56,0,.77.72,1.26.85.06.16.26.12.4.11.19.51.4.94.85.83,0,0-.32.69-.54.79-.45.55-.44-.19-.82.12,0,0,.15-.34.06-.28-.41.41-.61,0-.69-.51l.06-.09c0-.09-.21.21-.24.14a1.78,1.78,0,0,0,.08-.18c-.1.19-.13.06-.21.19,0-.08.08-.24.09-.33l-.12.21c-.31.49-.18-.12-.41.1a.37.37,0,0,0,.07-.14c-.31.25-.5.09-.75.12a1.77,1.77,0,0,0,.15-.31c-.12.23-.2.26-.28.28.09-.25-.19.18-.19,0l0,0c-.16.22,0-.18-.17.1l.06-.19c-.18.32,0-.21-.1-.06l0,.07c-.08.07,0-.11-.07-.07v0c-.12,0-.07-.15-.19.11.07-.22.11-.06.22-.38a.91.91,0,0,1-.86-.16,2,2,0,0,1,.07-.26l0,0-.06.06a1.8,1.8,0,0,1-.19.2l0,0h0L99.38,85s0,0,0,0h0l0,0c-.11.07-.16,0-.25,0l0-.06c-.09,0-.1-.13-.25-.07,0-.08.24-.33.14-.32-.19.27-.19,0-.38.35,0-.09,0-.26-.17-.23.12-.06.27-.31.33-.29l0-.08h0l-.07-.09,0,0h0a.41.41,0,0,1-.22,0c-.12,0-.3-.12-.17-.35,0,.14.1.14.18.17a.49.49,0,0,1,.13.08.15.15,0,0,1,0-.06L98.57,84l0,0h0v0l0,0a1.47,1.47,0,0,0-.1-.13s0,0,0,0l-.09-.07h0a.46.46,0,0,1-.07-.07s0,0,0,0-.11,0-.13.06l.06-.57,0,0h0l0-.34a.18.18,0,0,1,.13.12c.07,0,.16,0,.12,0,.12,0,0-.05,0-.1l0,0c-.08-.1-.15-.29,0-.31h0c-.09,0-.27-.19-.25-.2l.19.09h.06s0,0,0,0l0,0v0h0s-.1-.11,0-.08l0,0,.08-.07,0,0c-.18-.09,0,0-.16-.12.15.06-.06-.13.24,0l.24.11s-.24-.15-.33-.22l.11,0c-.37-.16.06,0-.21-.2.15,0,.07-.14.31-.07-.1-.09-.21-.18-.11-.2a.27.27,0,0,0,.11.08c.12,0,0,0,0-.09a2.2,2.2,0,0,0,.39,0,1.65,1.65,0,0,0-.42-.21c.38.11-.19-.22.16-.13,0,0,.16.13.26.13.39.12-.23-.19,0-.18l-.31-.11c.2,0-.14-.16.17,0-.1-.06.13,0-.17-.14.29,0-.05-.32.51-.17,0,0,0-.06-.14-.11s.11.08,0,.05-.08-.06-.12-.07.11,0,.34.1-.47-.27-.32-.32.17.06.16,0l-.19-.14c.08,0,.3.08.5.16,0,0,0-.08-.14-.16l.27.07c-.2,0-.11-.08-.16-.11l.05,0c.09,0,0,0,0-.06a.43.43,0,0,0-.24,0c-.09,0-.06-.07-.16-.14.21.09.17,0,.2,0s-.17-.1-.16-.11,0,0,.18,0-.12,0,0,0,.27.08.15,0-.4-.15-.25-.15l.19.11.13,0-.19-.07.09,0c-.19-.09,0-.11-.24-.21,0,0,.15,0,.18,0h0c.12,0,.06-.06,0-.14l0,0s0-.06-.1-.13c.16,0,.71.26.5.12,0,0-.32-.2-.44-.23.15,0-.12-.24.2-.2a.76.76,0,0,1-.16-.09c.12-.09-.12-.34.28-.29.06.07.19.08.29.11-.16-.09.19,0-.1-.08a.81.81,0,0,0-.33-.09c-.06-.11,0-.21.15-.19a.38.38,0,0,1-.18-.08c.27.11.33.07.25,0l-.16-.07.18,0s-.34-.15-.17-.13a.83.83,0,0,0,.18,0c-.12-.09-.32-.23-.17-.22l.25,0a.38.38,0,0,0-.23-.1.69.69,0,0,1,.43,0c-.46-.32-.41-.52-.32-.65l.12,0c.13,0-.2-.1-.11-.1a2.88,2.88,0,0,1,.4.15c.15,0-.19-.16-.23-.22s.09.07-.11,0,.16,0-.09-.13a2.46,2.46,0,0,1,.38.14l-.11-.08c.31.06.48.29.85.37l0,0c.27.06.26.19.38.14a2,2,0,0,0-.58-.25c0-.1-.57-.25-.52-.32s0,.08.22.13-.08-.11,0-.12a.89.89,0,0,1-.38-.16c.13,0,.23.11.27.07-.14-.07-.22-.16-.34-.15-.31-.14.11,0-.13-.15.24.06.5.25.64.23-.22-.07-.27-.19-.6-.27a1.29,1.29,0,0,1,.37.12c.15,0-.37-.22.07-.08l-.22-.1.26,0s-.26-.21.08-.08c0,0,0-.09-.24-.15s.15.11-.17,0c.27.07,0-.07-.09-.13l.13,0s0-.06-.14-.11l.2.06-.19-.09c-.08-.1.35.11.32,0l.13.1s.17,0,.12,0l-.53-.24c-.06-.06.21.06,0,0l.2.12c.06,0,.31.08.32,0a.86.86,0,0,0-.41-.18s.13,0,.25,0c0-.07-.2-.06-.29-.15.13,0,.32,0,.51.06l.28.16v0c.23.13.2,0,.44.16,0,0,0-.06-.08-.11-.44-.08-.54-.27-.92-.39-.07-.12.93.28.38,0-.09,0-.27-.11-.3-.1s-.32-.14-.17-.15.39.09.59.23c-.12,0-.11,0-.07,0s.37.14.39.09,0-.1-.21-.16,0,.06-.21,0c0-.09.28,0-.09-.15,0,0-.2,0-.35-.07l-.07-.08.14.06c.13,0-.25-.12-.19-.18l.29.07c.24.1-.14.07.26.19,0,0-.17-.13-.05-.13l.07.06s.55.16.27,0c-.11-.08-.14-.06-.29-.12s-.16-.17-.16-.22c.28.11.06-.08.33.08-.18,0-.2.08.07.2s-.07,0,.26.19c0-.06.37.07.59.14,0,0-.06-.07-.09-.09-.21-.08-.21-.06-.43-.13.09-.05,0-.16-.19-.27a.6.6,0,0,1,.32.13.2.2,0,0,1,.12-.24c-.31-.06-.12-.11-.25-.16l.35.12c-.13-.11.18.07.2,0a1,1,0,0,1-.25-.3c.28,0,.07-.19.09-.27a4.17,4.17,0,0,0,.5.13s-.34-.09-.18-.1l.06,0c-.06,0,.25-.06-.17-.23l.31.13s0,0-.06-.06a1.79,1.79,0,0,1,.26.1c.24,0,0-.1,0-.14l-.2,0c-.13-.13.08-.12,0-.22l.19.08-.1-.09c.15.06.26.07.22,0l.37.24c-.13,0-.22-.11-.41-.16s-.14.05,0,.13,0,0-.07-.08a1.56,1.56,0,0,1,.41.2s0,0,0,0,.1.09.09.13-.17,0-.24-.07c.23.08.29.15.2.18-.28,0,.13.17,0,.21a2,2,0,0,1-.48-.29c-.13,0,0,0-.14,0a2.21,2.21,0,0,1,.51.29l-.17-.07c.07.08.32.18.25.22a.62.62,0,0,0-.21.26l-.17-.06c.35.17.08.2.22.32-.2,0,.09.28-.23.22.07.23.14.43,0,.6l-.24-.12c.17.1-.15,0-.12,0,.21,0,.24.14.38.21-.22,0,0,.2.1.33l-.17-.05c.29.19,0,.18-.11.25s-.24-.06-.23,0a1.24,1.24,0,0,1,.37.3.31.31,0,0,1-.24.14c.31.34,0,.46.14.76l-.21-.06c.36.37-.13.47,0,.73L102,78.7c-.12,0,0,.15.29.23-.12,0,.12.2-.18.13-.08,0,.14.12.16.19-.15.06-.16.11-.14.21a.42.42,0,0,0-.21-.06c.08.08-.14.11.28.22-.28,0,.09.34-.27.33a.71.71,0,0,1,.2.11c0,.09-.21.11-.19.21l.59-.26.16.26c-.09-.7.62-.6.78-1,.64,0,1-.83,1.46-.49a8.26,8.26,0,0,1,2.4-1.64l.06.48c0-.39.23.17.36,0-.36-.22,0-.52,0-.83.57.1.9-.51,1.1-1l.16.26c.09-.7.75-.49,1.24-.65.11.08.33.29.45.19,0-.57.13-.61.32-1.08a2.18,2.18,0,0,1,1.07-.27A3.35,3.35,0,0,1,113.27,73a4.57,4.57,0,0,0,1.24-1.13l.27.25a2.72,2.72,0,0,1,1.15-1.32l.68-.49a1.89,1.89,0,0,0,.47-.59l.34.53c.35,0,.39-.55,0-.83a.3.3,0,0,0,.2-.13.44.44,0,0,0,.08-.1v0s0,0,0,0h0l0-.06a.32.32,0,0,1,.47-.13c.3-.13.07-.47.2-.71a2.09,2.09,0,0,0,.65-.38,2,2,0,0,0,.31-.41c.08.13.22.26.33.19,0-.27.66-.42,0-.8.73-.11.71-1.23,1.53-1.26-.18-.11-.11-.24-.17-.38.36-.38,1-.53,1-1.07.14,0,.18.33.34.18s-.2-.17-.19-.37a1.31,1.31,0,0,1,.34-.54,2.81,2.81,0,0,1,.51-.4,3.3,3.3,0,0,0,1-.79,8.41,8.41,0,0,1,1-1.81c.19-.29.39-.56.58-.84a8.29,8.29,0,0,0,.52-.84l.12.1c-.26-.67,1-.57.47-1.3.17,0,.24-.3.46-.1-.18-.46.66-.64.6-1.2.5-.3.29-.89.78-1.24,0,.08,0,.19.17.27.35-.08-.36-.7.33-.51,0-.12-.3-.22-.3-.15a4.28,4.28,0,0,0,.65-1.64c.09-.61.15-1.22.24-1.8.62-.7,1.17.27.83-.52.15,0-.26-.1-.11-.08-.13-.29.88-.2.57-.47-.45,0-.21-.17-.47-.24.37-.44.78-.48.53-1l.22.07a1.36,1.36,0,0,1-.34-.82,1.11,1.11,0,0,0-.49-.76c0-.32,0-.64,0-1s0-.63,0-1l0-.47V44.9h0V45h0v-.06l0-.27,0-.26c0-.05,0-.08,0-.12a2.34,2.34,0,0,1-.09-.28,9.09,9.09,0,0,0-1.38-2.53,7.2,7.2,0,0,0-2.1-2.16c-.41-.29-.85-.54-1.29-.8s-.89-.48-1.36-.71c-.15-.37-.26-.55-.39-.61s-.29,0-.58,0c0-.1.07-.12.05-.22-.1.5-.4,0-.49.48a5.3,5.3,0,0,0-2.2.15c.11-.07.1-.49,0-.42l-.09.33-.06-.13a.41.41,0,0,0,0,.49,9.06,9.06,0,0,1-1.49.59l-.27.12.08,0-.08,0-.18,0-.48.2-.25.09-.26.14-.54.27-.27.15-.26.17-.52.36-.5.39a5,5,0,0,0-.45.47,2.14,2.14,0,0,0-.75.64c-.11.14-.22.28-.32.43s-.18.3-.27.44c-.43.24-.85.49-1.26.74a6.87,6.87,0,0,0-1.13.86,7.1,7.1,0,0,0-1.67,2.3s-.9-.95-.63-1.8a1.94,1.94,0,0,1,.66-1.75l.33-.36c.1-.11.22-.23.31-.35a1.79,1.79,0,0,0,.4-.87c.06-.14.47.44.55.1a2.4,2.4,0,0,1,1.08-1.82,5.67,5.67,0,0,1,2.15-1l0,.19c.28-.07.13-.73.4-.85.07.09,0,.19.19.28-.18-.33.27-.46.2-.73.18,0,.34.27.55.32l-.13-.42c-.11-.52.12-.68.4-.79s.61-.13.74-.51c0,.1,0,.2.1.25a1.44,1.44,0,0,1,.28-.4,1.67,1.67,0,0,1,.36-.34h0a10.38,10.38,0,0,1,2.19-1.08,1.13,1.13,0,0,0,.1.57c0-.43.28-.61.57-.75.1.21.21.1.36,0s.32-.33.51-.21l0,.1c.25-.48.41.25.61-.32l.09.17.08.18c.13-.63.38.33.61,0v-.12c.21-.14.3.18.5.09v.08c.47-.13.67.27.74-.22.09.41-.46.12-.3.72a4.52,4.52,0,0,1,2.22.13,10,10,0,0,1,2,.9c0,.25.1.36,0,.54.17,0,.5.2.75.08,0,0-.07.26,0,.32.1.3.56-.27.65.09a.49.49,0,0,0-.37.3c.42-.15.65.1.95.21-.09,0-.18,0-.27.14a.34.34,0,0,1,.43.18c.08.13.13.27.32.27l-.27.13c.07.55.52-.33.64.1-.13,0-.18.09-.28.15a.91.91,0,0,1,.73.24,3.38,3.38,0,0,0,.52.44.22.22,0,0,0-.1.05,4.62,4.62,0,0,1,.37.5,1.39,1.39,0,0,0,.45.49c0,.19-.61.31-.32.61.24-.15.38,0,.52.08s.25.19.48-.07c0,.19.08.43.13.66a.77.77,0,0,0,.25.51c-.26-.08-.58.4-.74.14l-.12.16-.13.16c-.22.05,0-.23-.25-.07.07.12.42.44.36.59.4.15,1.11.24,1.26.7-.22-.15-.5.12-.65.12l.52.21c.29.12.58.28.58.28,0,.17-.44.07-.27.3.15,0,.24.07.37.13,0,0,0,.18,0,.33l0,.12h0v0h0v0l0,0a.52.52,0,0,1-.3.13c-.22.06-.1-.25-.31-.09,0,.28.18.3.18.57h-.07c-.09.18.21.55.53.37,0-.13-.34,0-.17-.15a.75.75,0,0,1,.39.76c-.08-.1-.23-.1-.39-.15a2.25,2.25,0,0,1,.63,1.23C134.68,47.67,134.71,47.7,134.62,47.68Zm.18-.92c-.14-.19.21-.11.24-.14C135.06,46.78,134.77,46.54,134.8,46.76Z" transform="translate(-19.92 -17.95)" fill="#6bbf4e"/><path d="M80.15,45.9s0-.07,0-.12Z" transform="translate(-19.92 -17.95)" fill="#6bbf4e"/><path d="M98.76,84.18Z" transform="translate(-19.92 -17.95)" fill="#6bbf4e"/><path d="M133.6,52.07a.57.57,0,0,0,0,.22h0a1.46,1.46,0,0,0,0-.21Z" transform="translate(-19.92 -17.95)" fill="#6bbf4e"/><path d="M98.65,83.61l0,0,0,0S98.68,83.65,98.65,83.61Z" transform="translate(-19.92 -17.95)" fill="#6bbf4e"/><path d="M98.42,82.93h.07l-.07,0Z" transform="translate(-19.92 -17.95)" fill="#6bbf4e"/></svg>