<svg id="New_Twin_BedSet" xmlns="http://www.w3.org/2000/svg" viewBox="0 0 576.99 336.38"><defs><style>.cls-1{fill:none;stroke:#8ec242;stroke-miterlimit:10;stroke-width:4px;}</style></defs><title>8675_Donate_Icon_$250_TwinBed</title><rect id="Mattress" class="cls-1" x="41.96" y="167.25" width="494.61" height="91.85"/><rect id="Base" class="cls-1" x="41.96" y="259.09" width="494.61" height="19.57"/><path id="Blanket" class="cls-1" d="M6950.7,7237.33l93.21-19.24a214.17,214.17,0,0,1,97.54,2.57l6.11,1.6a214.26,214.26,0,0,0,114.7-1.73h0a214.18,214.18,0,0,1,116.5-1.24l66.54,18" transform="translate(-6910.74 -7003.83)"/><path id="Pillow" class="cls-1" d="M7437.91,7085.26h-13c-10.22,0-19.64,7.2-24.59,18.79l-11.94,49.4c-2.11,8.74,2.93,17.63,10,17.63h48.89v-73.65C7447.3,7090.71,7443.1,7085.26,7437.91,7085.26Z" transform="translate(-6910.74 -7003.83)"/><g id="Pillar_02"><circle class="cls-1" cx="23.51" cy="78.47" r="21.51"/><rect class="cls-1" x="3.53" y="99.98" width="39.96" height="11.93" rx="5.97"/><rect id="Pillar_02-2" data-name="Pillar_02" class="cls-1" x="5.07" y="112.29" width="36.89" height="222.08"/></g><g id="Pillar_01"><rect class="cls-1" x="535.03" y="45.03" width="39.96" height="11.93" rx="5.97"/><circle class="cls-1" cx="554.24" cy="22.75" r="20.75"/><rect id="Pillar_01-2" data-name="Pillar_01" class="cls-1" x="536.57" y="56.96" width="36.89" height="277.42"/></g></svg>