<svg id="Kitchen_Essentials" xmlns="http://www.w3.org/2000/svg" viewBox="0 0 105.1 71.56"><defs><style>.cls-1,.cls-2,.cls-3,.cls-4,.cls-5,.cls-6{fill:#fff;stroke:#8ec242;stroke-miterlimit:10;}.cls-2{stroke-width:0.5px;}.cls-3{stroke-width:0.97px;}.cls-4{stroke-width:1.04px;}.cls-5{stroke-width:0.87px;}.cls-6{stroke-width:0.9px;}.cls-1{stroke-width:1px;}</style></defs><title>8675_Donate_Icon_$25_KitchenEssentials</title><g id="Pot"><ellipse id="UpperLiP" class="cls-1" cx="66.81" cy="4.68" rx="20.66" ry="4.18"/><path id="BottomPot" class="cls-1" d="M6404.24,6994.84V7018a1.88,1.88,0,0,0,1.88,1.88h37.56a1.89,1.89,0,0,0,1.88-1.88v-23.11" transform="translate(-6358.09 -6990.06)"/><path id="HandleRight" class="cls-1" d="M87.47,8.55h2.08a2.08,2.08,0,0,1,2.08,2.08v0a2.08,2.08,0,0,1-2.08,2.08H87.47a0,0,0,0,1,0,0V8.55A0,0,0,0,1,87.47,8.55Z"/><path id="HandleLeft" class="cls-1" d="M6400.08,6998.62h2.08a2.08,2.08,0,0,1,2.08,2.08v0a2.08,2.08,0,0,1-2.08,2.08h-2.08a0,0,0,0,1,0,0v-4.16A0,0,0,0,1,6400.08,6998.62Z" transform="translate(6446.23 7011.33) rotate(180)"/><path id="Dip" class="cls-1" d="M6445.56,6994.84c0,2.31-9.36,4.18-20.66,4.18s-20.66-1.87-20.66-4.18" transform="translate(-6358.09 -6990.06)"/></g><g id="Spatula"><path id="Handle" class="cls-1" d="M6418,7048.51l-3-2.42,7.94-9.71a1.54,1.54,0,0,1,2.17-.22l.28.24.29.23a1.54,1.54,0,0,1,.22,2.17Z" transform="translate(-6358.09 -6990.06)"/><line id="Stem" class="cls-1" x1="78.65" y1="32.45" x2="67.19" y2="46.46"/><path id="Spatula-2" data-name="Spatula" class="cls-1" d="M6437.1,7009H6446a2.56,2.56,0,0,1,2.56,2.56v7a5.69,5.69,0,0,1-5.69,5.69h-2.64a5.69,5.69,0,0,1-5.69-5.69v-7a2.56,2.56,0,0,1,2.56-2.56Z" transform="translate(-462.25 -9482.85) rotate(39.27)"/><rect id="Left" class="cls-2" x="6437.88" y="7009.48" width="2.31" height="9.24" rx="1.16" transform="translate(-464.42 -9481.82) rotate(39.27)"/><rect id="Middle" class="cls-2" x="6440.62" y="7011.72" width="2.31" height="9.24" rx="1.16" transform="translate(-462.38 -9483.05) rotate(39.27)"/><rect id="Right" class="cls-2" x="6443.43" y="7014.02" width="2.31" height="9.24" rx="1.16" transform="translate(-460.3 -9484.31) rotate(39.27)"/></g><g id="Spoon"><ellipse id="Spoon-2" data-name="Spoon" class="cls-1" cx="6454.88" cy="7024.99" rx="8.83" ry="7.08" transform="translate(-9419.28 713.39) rotate(-51.5)"/><path id="Handle-2" data-name="Handle" class="cls-1" d="M6430.74,7058.37l-3-2.4,7.84-9.78a1.55,1.55,0,0,1,2.17-.24l.29.23.28.23a1.53,1.53,0,0,1,.24,2.17Z" transform="translate(-6358.09 -6990.06)"/><line id="Stem-2" data-name="Stem" class="cls-1" x1="91.36" y1="41.97" x2="80.03" y2="56.09"/><rect id="Left-2" data-name="Left" class="cls-2" x="6451.32" y="7018.18" width="2.03" height="9.46" rx="1.01" transform="translate(-548.05 -9482.48) rotate(38.71)"/><rect id="Middle-2" data-name="Middle" class="cls-2" x="6453.75" y="7020.13" width="2.03" height="9.46" rx="1.01" transform="translate(-546.31 -9483.57) rotate(38.71)"/><rect id="Right-2" data-name="Right" class="cls-2" x="6456.24" y="7022.12" width="2.03" height="9.46" rx="1.01" transform="translate(-544.51 -9484.68) rotate(38.71)"/></g><g id="CanOpener"><circle class="cls-3" cx="28.37" cy="43.19" r="27.89"/><circle class="cls-4" cx="28.37" cy="43.19" r="20.69"/></g><g id="Fork"><path class="cls-5" d="M6381,7045.31v-15.43a.87.87,0,0,0-.89-.86c-1.27,0-2-1-1.78-7.5" transform="translate(-6358.09 -6990.06)"/><line class="cls-5" x1="22.9" y1="31.46" x2="22.9" y2="38.15"/><path class="cls-5" d="M6383.67,7021.52c0,1.49.6,8-1.9,8" transform="translate(-6358.09 -6990.06)"/></g><g id="Spoon-3" data-name="Spoon"><line class="cls-5" x1="33.31" y1="38.98" x2="33.31" y2="55.25"/><ellipse class="cls-6" cx="33.31" cy="35.49" rx="3.21" ry="4.36"/></g></svg>