<svg id="Complete_Furnishing" xmlns="http://www.w3.org/2000/svg" viewBox="0 0 684.64 466.57"><defs><style>.cls-1{fill:#fff;stroke:#8ec242;stroke-miterlimit:10;stroke-width:4px;}</style></defs><title>8675_Donate_Icon_$1150_CompleteFurnishing</title><g id="Chair"><g id="White_Backing"><rect class="cls-1" x="408.08" y="127.21" width="240.61" height="105"/></g><path id="LeftArm" class="cls-1" d="M386.14,88.47H430a12,12,0,0,1,12,12V271.73a0,0,0,0,1,0,0H386.14a12,12,0,0,1-12-12V100.47A12,12,0,0,1,386.14,88.47Z"/><path id="RightArm" class="cls-1" d="M626.75,88.47h43.89a12,12,0,0,1,12,12V259.73a12,12,0,0,1-12,12H614.75a0,0,0,0,1,0,0V100.47A12,12,0,0,1,626.75,88.47Z"/><rect id="Base" class="cls-1" x="442.03" y="208.72" width="172.61" height="63.01"/><rect id="Leftleg" class="cls-1" x="433.37" y="271.73" width="17.31" height="20.86"/><rect id="Rightleg" class="cls-1" x="605.98" y="271.73" width="17.31" height="20.86"/><path id="Cushion" class="cls-1" d="M7448,6978.7h0a225.53,225.53,0,0,0-128.95,0h0a30.56,30.56,0,0,0-21.83,29.29v124.09h.81c2.45-3.52,10.35-6.42,21-7.49h0a659.86,659.86,0,0,1,128.95,0h0c10.68,1.07,21.83,3.67,21.83,7.49h0V7008A30.56,30.56,0,0,0,7448,6978.7Z" transform="translate(-6855.2 -6967.29)"/></g><g id="Dresser"><rect id="Dresser-2" data-name="Dresser" class="cls-1" x="223.5" y="132.16" width="264.68" height="212.97"/><rect id="BottomDrawer" class="cls-1" x="237.44" y="215.81" width="236.81" height="97.63"/><rect id="LeftDrawer" class="cls-1" x="237.44" y="152.52" width="113.32" height="53.56"/><rect id="Right_Drawer" class="cls-1" x="360.92" y="152.52" width="113.32" height="53.56"/><rect id="MidHandle" class="cls-1" x="330.61" y="262.02" width="50.02" height="5.2" rx="2.6"/><rect id="LeftHandle" class="cls-1" x="268.87" y="176.69" width="50.02" height="5.2" rx="2.6"/><rect id="RightHandle" class="cls-1" x="392.35" y="176.69" width="50.02" height="5.2" rx="2.6"/><rect id="LeftLeg-2" data-name="LeftLeg" class="cls-1" x="237.44" y="345.13" width="20.14" height="28.25"/><rect id="RightLeg-2" data-name="RightLeg" class="cls-1" x="454.1" y="345.13" width="20.14" height="28.25"/></g><g id="Dining_Table"><path id="LeftLeg-3" data-name="LeftLeg" class="cls-1" d="M7045,7374.55h-15.54a21.38,21.38,0,0,0-19.94,13.64l-7.33,18.87a16.17,16.17,0,0,1-15.07,10.32h0a9.89,9.89,0,0,0-9.89,9.89v4.59h34.66s-.78-12.63,17.34-13.33c8.65-.33,12.74-12.63,14.59-19.46a34,34,0,0,0,1.18-8.92h0Z" transform="translate(-6855.2 -6967.29)"/><path id="RightLeg-3" data-name="RightLeg" class="cls-1" d="M7062,7374.55h15.55a21.37,21.37,0,0,1,19.93,13.64l7.33,18.87a16.19,16.19,0,0,0,15.08,10.32h0a9.88,9.88,0,0,1,9.88,9.89v4.59h-34.66s.78-12.63-17.34-13.33c-8.65-.33-12.73-12.63-14.59-19.46a34.46,34.46,0,0,1-1.18-8.92h0Z" transform="translate(-6855.2 -6967.29)"/><path id="BottomBase" class="cls-1" d="M7045,7374.55v19.77c2.92.06,5.57-.07,8.47-.07s4.22.09,8.47,0v-19.7Z" transform="translate(-6855.2 -6967.29)"/><path id="Pole" class="cls-1" d="M7062,7374.55v-99.4c-2.75.13-5.58.2-8.47.2s-5.71-.07-8.47-.2v99.4Z" transform="translate(-6855.2 -6967.29)"/><path id="TopBase" class="cls-1" d="M7098,7252H7009c-4.14,2.3-6.5,4.95-6.5,7.78,0,8.8,22.85,15.94,51,15.94s51-7.14,51-15.94C7104.54,7256.92,7102.17,7254.27,7098,7252Z" transform="translate(-6855.2 -6967.29)"/><rect id="BottomTable" class="cls-1" x="27.98" y="271.94" width="339.95" height="12.42"/><rect id="TopTable" class="cls-1" x="2" y="247.1" width="390.78" height="24.85" rx="12"/></g></svg>