<svg id="Family_Room_Seating" xmlns="http://www.w3.org/2000/svg" viewBox="0 0 658.67 295.06"><defs><style>.cls-1{fill:none;stroke:#8ec242;stroke-miterlimit:10;stroke-width:4px;}</style></defs><title>8675_Donate_Icon_$100_FamilySeating</title><path id="LeftArm" class="cls-1" d="M14,88.61H58a12,12,0,0,1,12,12V272.17a0,0,0,0,1,0,0H14a12,12,0,0,1-12-12V100.61a12,12,0,0,1,12-12Z"/><path id="RightArm" class="cls-1" d="M600.67,88.61h44a12,12,0,0,1,12,12V260.17a12,12,0,0,1-12,12h-56a0,0,0,0,1,0,0V100.61A12,12,0,0,1,600.67,88.61Z"/><rect id="Base" class="cls-1" x="70" y="209.06" width="518.67" height="63.11"/><rect class="cls-1" x="61.33" y="272.17" width="17.33" height="20.89"/><rect class="cls-1" x="580" y="272.17" width="17.33" height="20.89"/><path id="LeftCushion" class="cls-1" d="M7091.69,7063.4h0a225.91,225.91,0,0,0-129.16,0h0a30.61,30.61,0,0,0-21.86,29.34V7217h.81c2.45-3.53,10.36-6.44,21.05-7.51h0a662,662,0,0,1,129.16,0h0c10.69,1.07,21.87,3.67,21.87,7.51h0V7092.74A30.62,30.62,0,0,0,7091.69,7063.4Z" transform="translate(-6870.67 -7051.97)"/><path id="MiddleCushion" class="cls-1" d="M7264.58,7063.4h0a225.91,225.91,0,0,0-129.16,0h0a30.61,30.61,0,0,0-21.86,29.34V7217h0c0-4.17,11.17-6.44,21.86-7.51h0a662,662,0,0,1,129.16,0h0c10.69,1.07,21.86,3.47,21.86,7.51h0V7092.74A30.61,30.61,0,0,0,7264.58,7063.4Z" transform="translate(-6870.67 -7051.97)"/><path id="RightCushion" class="cls-1" d="M7437.47,7063.4h0a225.91,225.91,0,0,0-129.16,0h0a30.62,30.62,0,0,0-21.87,29.34V7217h0c0-4.25,11.18-6.44,21.87-7.51h0a662,662,0,0,1,129.16,0h0c10.69,1.07,18.6,4,21.05,7.51h.81V7092.74A30.61,30.61,0,0,0,7437.47,7063.4Z" transform="translate(-6870.67 -7051.97)"/><line id="Divide01" class="cls-1" x1="242.89" y1="154.39" x2="242.89" y2="209.06"/><line id="Divide_02" class="cls-1" x1="415.78" y1="154.39" x2="415.78" y2="209.06"/></svg>