<svg id="Kitchen_Table_Chairs" xmlns="http://www.w3.org/2000/svg" viewBox="0 0 598.34 311.18"><defs><style>.cls-1{fill:none;stroke:#8ec242;stroke-miterlimit:10;stroke-width:4px;}</style></defs><title>8675_Donate_Icon_$50_TableChairs</title><g id="Dining_Chair_02"><path id="RightLeg" class="cls-1" d="M7067.66,7239.36l18.26,105.56a9.69,9.69,0,0,1-19.09,3.31L7048,7239.36Z" transform="translate(-6898.63 -7047.08)"/><path id="LeftLeg" class="cls-1" d="M6923.09,7344.92l18.26-105.56H6961l-18.84,108.87a9.69,9.69,0,0,1-19.09-3.31Z" transform="translate(-6898.63 -7047.08)"/><rect id="Seat" class="cls-1" x="6927.64" y="7225.94" width="174.69" height="13.43" transform="translate(7131.34 7418.22) rotate(-180)"/><polygon id="Back" class="cls-1" points="2.33 3.22 29 178.23 44.43 178.23 17.82 3.22 2.33 3.22"/><polygon id="Midbase" class="cls-1" points="53.09 245.99 158.65 245.99 156.33 232.57 55.41 232.57 53.09 245.99"/><path id="Cushion" class="cls-1" d="M6949.56,7223.94h128.93a7.6,7.6,0,0,0,7.58-7.58h0a7.6,7.6,0,0,0-7.58-7.58l-131.13-.64a3.93,3.93,0,0,0-3.93,4.3c.1.94.16,1.5.57,4.11l.54,4.3C6944.78,7221.75,6945.39,7223.94,6949.56,7223.94Z" transform="translate(-6898.63 -7047.08)"/></g><g id="Dining_Chair_01"><path id="LeftLeg-2" data-name="LeftLeg" class="cls-1" d="M7328,7238.14l-18.26,105.56a9.69,9.69,0,0,0,19.09,3.31l18.84-108.87Z" transform="translate(-6898.63 -7047.08)"/><path id="RightLeg-2" data-name="RightLeg" class="cls-1" d="M7472.52,7343.7l-18.26-105.56h-19.67L7453.43,7347a9.69,9.69,0,0,0,19.09-3.31Z" transform="translate(-6898.63 -7047.08)"/><rect id="Seat-2" data-name="Seat" class="cls-1" x="394.64" y="177.64" width="174.69" height="13.43"/><polygon id="Back-2" data-name="Back" class="cls-1" points="596.01 2 569.34 177.01 553.91 177.01 580.52 2 596.01 2"/><polygon id="MidBase-2" data-name="MidBase" class="cls-1" points="545.25 244.77 439.69 244.77 442.01 231.35 542.93 231.35 545.25 244.77"/><path id="Cushion-2" data-name="Cushion" class="cls-1" d="M7446.05,7222.72H7317.12a7.6,7.6,0,0,1-7.58-7.58h0a7.6,7.6,0,0,1,7.58-7.58l131.13-.64a3.91,3.91,0,0,1,3.92,4.3c-.09.94-.15,1.5-.56,4.11l-.54,4.3C7450.83,7220.53,7450.22,7222.72,7446.05,7222.72Z" transform="translate(-6898.63 -7047.08)"/></g><g id="Dining_Table"><path id="LeftLeg-3" data-name="LeftLeg" class="cls-1" d="M7189.66,7289.94h-16.8a23.09,23.09,0,0,0-21.54,14.74l-7.93,20.4a17.47,17.47,0,0,1-16.29,11.14h0a10.69,10.69,0,0,0-10.68,10.69v5h37.46s-.84-13.66,18.73-14.41c9.36-.36,13.77-13.66,15.77-21a36.88,36.88,0,0,0,1.28-9.64h0Z" transform="translate(-6898.63 -7047.08)"/><path id="RightLeg-3" data-name="RightLeg" class="cls-1" d="M7208,7289.94h16.79a23.12,23.12,0,0,1,21.55,14.74l7.92,20.4a17.47,17.47,0,0,0,16.29,11.14h0a10.7,10.7,0,0,1,10.69,10.69v5h-37.47s.85-13.66-18.73-14.41c-9.35-.36-13.77-13.66-15.77-21a36.87,36.87,0,0,1-1.27-9.64h0Z" transform="translate(-6898.63 -7047.08)"/><path id="Bottombase" class="cls-1" d="M7189.66,7289.94v21c3,.18,6,0,9.15,0s5.13.08,9.16,0v-21Z" transform="translate(-6898.63 -7047.08)"/><path id="Pole" class="cls-1" d="M7208,7289.94V7182.52c-3,.14-6,.21-9.16.21s-6.17-.07-9.15-.21v107.42Z" transform="translate(-6898.63 -7047.08)"/><path id="TopBase" class="cls-1" d="M7246.94,7157.47h-96.25c-4.47,2.48-7,5.35-7,8.41,0,9.51,24.69,17.22,55.15,17.22s55.16-7.71,55.16-17.22C7254,7162.82,7251.41,7160,7246.94,7157.47Z" transform="translate(-6898.63 -7047.08)"/><rect id="BottomTable" class="cls-1" x="116.1" y="96.62" width="367.39" height="13.43"/><rect id="TopTable" class="cls-1" x="88.03" y="69.77" width="422.31" height="26.85" rx="12"/></g></svg>