<svg id="_2New_Twin_BedSets" data-name="2New_Twin_BedSets" xmlns="http://www.w3.org/2000/svg" viewBox="0 0 666.12 442.11"><defs><style>.cls-1{fill:none;stroke:#8ec242;stroke-miterlimit:10;stroke-width:4px;}</style></defs><title>8675_Donate_Icon_$500_TwoTwinBeds</title><g id="Twin_01"><rect id="Mattress" class="cls-1" x="30.8" y="121.11" width="356.5" height="66.2"/><rect id="Base" class="cls-1" x="30.8" y="187.31" width="356.5" height="14.11"/><path id="Blanket" class="cls-1" d="M6895.8,7142.13l67.19-13.86a154.34,154.34,0,0,1,70.3,1.85l4.41,1.15a154.41,154.41,0,0,0,82.67-1.24h0a154.45,154.45,0,0,1,84-.9l48,13" transform="translate(-6866.44 -6973.28)"/><path id="Pillow" class="cls-1" d="M7247,7032.52h-9.34c-7.37,0-14.16,5.19-17.73,13.55l-8.6,35.61c-1.52,6.3,2.11,12.7,7.21,12.7h35.23V7041.3C7253.74,7036.45,7250.71,7032.52,7247,7032.52Z" transform="translate(-6866.44 -6973.28)"/><circle class="cls-1" cx="17.51" cy="57.12" r="15.51"/><rect class="cls-1" x="3.11" y="72.63" width="28.8" height="8.6" rx="4.3"/><rect id="Pillar_02" class="cls-1" x="4.21" y="81.5" width="26.59" height="160.07"/><rect class="cls-1" x="386.2" y="33.01" width="28.8" height="8.6" rx="4.3"/><circle class="cls-1" cx="400.05" cy="16.95" r="14.95"/><rect id="Pillar_01" class="cls-1" x="387.3" y="41.61" width="26.59" height="199.96"/></g><g id="Twin_02"><rect id="Mattress-2" data-name="Mattress" class="cls-1" x="279.92" y="319.65" width="356.5" height="66.2"/><rect id="Base-2" data-name="Base" class="cls-1" x="279.92" y="385.85" width="356.5" height="14.11"/><path id="Blanket-2" data-name="Blanket" class="cls-1" d="M7144.92,7340.67l67.19-13.86a154.47,154.47,0,0,1,70.3,1.84l4.41,1.16a154.41,154.41,0,0,0,82.67-1.24h0a154.45,154.45,0,0,1,84-.9l48,13" transform="translate(-6866.44 -6973.28)"/><path id="Pillow-2" data-name="Pillow" class="cls-1" d="M7496.09,7231.06h-9.34c-7.37,0-14.16,5.19-17.73,13.55l-8.6,35.61c-1.52,6.3,2.11,12.7,7.21,12.7h35.24v-53.09C7502.87,7235,7499.83,7231.06,7496.09,7231.06Z" transform="translate(-6866.44 -6973.28)"/><circle class="cls-1" cx="266.63" cy="255.66" r="15.51"/><rect class="cls-1" x="252.23" y="271.16" width="28.8" height="8.6" rx="4.3"/><rect id="Pillar_02-2" data-name="Pillar_02" class="cls-1" x="253.33" y="280.03" width="26.59" height="160.07"/><rect class="cls-1" x="635.32" y="231.55" width="28.8" height="8.6" rx="4.3"/><circle class="cls-1" cx="649.17" cy="215.49" r="14.95"/><rect id="Pillar_01-2" data-name="Pillar_01" class="cls-1" x="636.43" y="240.15" width="26.59" height="199.96"/></g></svg>